<svg xmlns="http://www.w3.org/2000/svg" viewBox="0 0 500 500"><path d="M357.25 465.21c-31.68-13.06-45.81-47.23-51.84-79.43-1-5.37-2.84-10.86-1.35-16.11s6.71-9.76 12-8.58c4.37 1 7.12 5.21 10.19 8.53a32 32 0 0 0 15.17 9.17c3.79 1 8.23 1.15 11.17-1.45 4-3.56 3.17-10 1.95-15.34l-6.78-29.62c-1.22-5.3-2.44-10.72-1.91-16.12s3.14-10.89 7.87-13.43 11.62-1 13.84 3.94c.93 2.07 1 4.41 1.62 6.58s2.21 4.37 4.44 4.52 4-1.82 5.28-3.73c4.29-6.57 6.47-14.3 8.41-21.94s3.76-15.41 7.43-22.36 9.51-13.11 17-15.23 16.64.77 20.22 7.8.92 15.61-2.48 22.72a121.7 121.7 0 0 1-19.43 29c-1.41 1.56-2.94 3.24-3.14 5.35-.37 3.79 3.77 6.56 7.52 6.95 4.25.43 8.45-.93 12.69-1.37s9.14.4 11.57 4c3.38 4.94.11 11.63-3.52 16.35a104.2 104.2 0 0 1-26.17 24c-3.59 2.3-7.42 4.47-10 7.91s-3.37 8.63-.64 11.95 7.88 3.42 11.8 1.76 7.09-4.71 10.66-7c6.68-4.38 16.2-6 22.28-.71 4 3.46 5.54 9.17 5.09 14.45s-2.66 10.24-5.13 14.91c-8.63 16.31-21.14 30.67-36.75 40.3s-30.93 14.7-49.1 12.3" style="fill:#f5f5f5"/><path d="M361 443.34c1.11-17.18 3.9-35.9 7.48-55.39l2.71-14.41c.9-4.73 1.79-9.42 2.94-14a244 244 0 0 1 8.14-25.67c3-8 6.1-15.56 9.07-22.57s5.9-13.49 8.8-19.28a193 193 0 0 1 15.71-26.29c2.09-2.95 3.79-5.18 5-6.68.57-.71 1-1.27 1.34-1.7a4 4 0 0 1 .49-.55 4.3 4.3 0 0 1-.4.62c-.32.43-.74 1-1.27 1.75-1.11 1.54-2.76 3.81-4.8 6.79a204 204 0 0 0-15.4 26.38c-2.85 5.8-5.71 12.28-8.66 19.29s-6 14.54-9 22.57a248 248 0 0 0-8.05 25.59c-1.14 4.51-2 9.16-2.92 13.9s-1.78 9.55-2.7 14.41c-3.58 19.47-6.38 38.15-7.54 55.27" style="fill:#e0e0e0"/><path d="M374.44 359.48a11.2 11.2 0 0 1-1-2.15c-.6-1.4-1.41-3.46-2.37-6-1.93-5.12-4.34-12.27-7-20.17s-5.15-15-7.15-20.08c-1-2.54-1.81-4.58-2.4-6a11 11 0 0 1-.81-2.24 11 11 0 0 1 1.16 2.08c.7 1.36 1.62 3.37 2.7 5.88 2.18 5 4.81 12.12 7.44 20s4.92 14.86 6.7 20.25c.83 2.43 1.52 4.48 2.08 6.12a10.5 10.5 0 0 1 .65 2.31m65.38-27.93a14.7 14.7 0 0 1-2.65.94c-1.71.54-4.2 1.32-7.24 2.37-6.1 2.07-14.42 5.21-23.45 9.09s-17.05 7.76-22.77 10.72c-2.87 1.47-5.16 2.71-6.75 3.57a15 15 0 0 1-2.52 1.24 16 16 0 0 1 2.33-1.59c1.53-.95 3.78-2.3 6.61-3.85 5.65-3.14 13.65-7.12 22.7-11a247 247 0 0 1 23.63-8.84c3.08-1 5.61-1.64 7.36-2.07a16.4 16.4 0 0 1 2.75-.58M361.6 441.9s-.25-.23-.66-.73l-1.71-2.17c-1.48-1.92-3.55-4.77-6.07-8.31-5-7.08-11.67-17.08-18.84-28.22s-13.72-21.19-18.6-28.36l-5.8-8.49-1.56-2.32a3.1 3.1 0 0 1-.49-.85 4.4 4.4 0 0 1 .65.73l1.72 2.21c1.48 1.92 3.55 4.77 6.06 8.31 5 7.08 11.67 17.08 18.85 28.22s13.72 21.19 18.59 28.37c2.39 3.48 4.35 6.35 5.8 8.48.63.92 1.14 1.69 1.57 2.32a3.3 3.3 0 0 1 .49.81m84.14-49.39a3.4 3.4 0 0 1-.81.57l-2.44 1.47-9 5.31c-7.6 4.48-18 10.79-29.55 17.78s-22 13.21-29.72 17.53c-3.85 2.17-7 3.89-9.17 5l-2.53 1.3a4 4 0 0 1-.91.4s.26-.23.81-.58l2.44-1.46 9-5.31c7.6-4.48 18-10.79 29.55-17.78s22-13.21 29.72-17.54c3.85-2.16 7-3.88 9.17-5l2.53-1.31a4 4 0 0 1 .91-.38m21.21-287.95v117.25H315.5l-5.45-116.43z" style="fill:#e0e0e0"/><path transform="rotate(-90 385.77 163.53)" style="fill:#fff" d="M327.48 87.81h116.57v151.44H327.48z"/><path d="M462.07 222.39h-152.6V104.67h152.6Zm-151.44-1.15h150.28V105.82H310.63Z" style="fill:#e0e0e0"/><path style="fill:#fff" d="M326.45 117.22h118.64v89.25H326.45z"/><path d="M445.09 117.22h-8.71l-24.33.07-85.6.14.27-.28v89.24l-.3-.3 118.64.05-.25.25c.05-27 .1-49.25.13-64.8 0-7.79 0-13.88.06-18v-6.4 6.3c0 4.16 0 10.23.07 18 0 15.59.07 37.93.13 65v.25h-.25l-118.64.05h-.3V117h.27l85.78.14 24.27.07h8.04Z" style="fill:#e0e0e0"/><path d="M310.05 105a15.5 15.5 0 0 1 2.56 1.58c1.54 1 3.64 2.5 5.91 4.18s4.29 3.27 5.72 4.46a14.6 14.6 0 0 1 2.21 2 15 15 0 0 1-2.48-1.7l-5.8-4.31-5.81-4.32a14.5 14.5 0 0 1-2.31-1.89m151.44.24c.1.14-3.49 2.93-8 6.24s-8.28 5.88-8.38 5.74a87 87 0 0 1 8-6.23 87 87 0 0 1 8.38-5.75" style="fill:#e0e0e0"/><path style="fill:#fff" d="m461.49 221.81-17-15.34"/><path d="M444.49 206.47a111 111 0 0 1 8.7 7.45 111 111 0 0 1 8.3 7.89c-.11.13-4-3.21-8.7-7.44s-8.42-7.78-8.3-7.9m-134.44 15.34a101 101 0 0 1 7.91-7.55 103 103 0 0 1 8.32-7.1 101 101 0 0 1-7.91 7.55c-4.49 4.05-8.21 7.23-8.32 7.1" style="fill:#e0e0e0"/><path d="M414.39 161a14.32 14.32 0 1 1-11-17 14.32 14.32 0 0 1 11 17" style="fill:#f5f5f5"/><path d="M395.73 171.66c-.15-.07.46-1.55 1.25-4a24 24 0 0 0 1.31-9.63 13.4 13.4 0 0 0-4.19-8.44c-1.86-1.66-3.47-2-3.4-2.2s1.75 0 3.9 1.59a13.1 13.1 0 0 1 4.79 8.93 21.2 21.2 0 0 1-1.67 10c-1 2.46-1.86 3.81-1.99 3.75" style="fill:#e0e0e0"/><path d="M414.21 156.33c-.06.32-3.86-1.05-8.32.28s-6.93 4.51-7.16 4.27c-.11-.08.33-1 1.46-2.15a12.6 12.6 0 0 1 5.38-3.19 12.8 12.8 0 0 1 6.26-.23c1.57.36 2.43.89 2.38 1.02" style="fill:#e0e0e0"/><path d="M407.75 155.6c-.18 0-.1-1-.62-2.41a6.43 6.43 0 0 0-9.3-3.63c-1.33.69-1.94 1.47-2.08 1.36s.29-1.07 1.68-2a6.75 6.75 0 0 1 10.46 4.08c.37 1.61-.03 2.63-.14 2.6" style="fill:#e0e0e0"/><path d="M403.18 157.11c-.31-.07-.09-2-.66-4.32s-1.62-3.94-1.37-4.15 1.85 1.3 2.46 3.89-.15 4.68-.43 4.58" style="fill:#e0e0e0"/><path d="M403.05 152.62c0 .33-1.24.4-2.43 1s-2.18 1.47-2.41 1.22.4-1.36 1.9-2.21 3.01-.27 2.94-.01" style="fill:#e0e0e0"/><path d="M380.14 159.33a10.87 10.87 0 1 1-15.3 1.33 10.86 10.86 0 0 1 15.3-1.33" style="fill:#f5f5f5"/><path d="M380.6 175.61a17.5 17.5 0 0 1-2.21-2.24 18 18 0 0 0-6-4.31 10.13 10.13 0 0 0-7.15-.21 19.4 19.4 0 0 0-2.69 1.49 4.63 4.63 0 0 1 2.46-2 9.93 9.93 0 0 1 7.69 0 16 16 0 0 1 6.11 4.69 9 9 0 0 1 1.79 2.58" style="fill:#e0e0e0"/><path d="M376.93 157.77c.19.16-2.08 2.21-2.78 5.68s.54 6.24.3 6.31c-.09.05-.54-.57-.91-1.74a9.6 9.6 0 0 1 1.86-9c.8-.94 1.46-1.33 1.53-1.25" style="fill:#e0e0e0"/><path d="M374.13 161.84c-.07.12-.71-.29-1.83-.45a5.27 5.27 0 0 0-4 1.1 5.2 5.2 0 0 0-1.7 3.84c0 1.13.29 1.82.16 1.88s-.61-.58-.76-1.85a5.12 5.12 0 0 1 6.46-5.55c1.2.34 1.74.96 1.67 1.03" style="fill:#e0e0e0"/><path d="M373.52 165.44c-.16.18-1.4-.67-3.13-1.1s-3.22-.32-3.26-.56 1.52-.78 3.47-.26 3.08 1.77 2.92 1.92" style="fill:#e0e0e0"/><path d="M370.47 163.92c.21.13-.18 1-.19 2s.21 2 0 2.06-.77-.76-.8-2.07.83-2.13.99-1.99" style="fill:#e0e0e0"/><path d="M380.61 155.6c-3.84-2.51-6.2-7-7.73-11.29a21.22 21.22 0 0 1-.17-13.5 17.56 17.56 0 0 1 9.24 9.87c1.6 4.34.66 10.74-1.34 14.92" style="fill:#ebebeb"/><path d="M376.14 137.9a151 151 0 0 1 4.12 17.1" style="fill:#fff"/><path d="M380.26 155a12.6 12.6 0 0 1-.69-2.48c-.41-1.78-.89-3.8-1.42-6l-1.49-6a12 12 0 0 1-.52-2.52 10 10 0 0 1 .93 2.41c.49 1.51 1.1 3.63 1.67 6s1 4.52 1.25 6.09a10 10 0 0 1 .27 2.5" style="fill:#e0e0e0"/><path d="M390.33 175.09c4.48-1 9.3.54 13.44 2.51a21.22 21.22 0 0 1 9.67 9.43 17.58 17.58 0 0 1-13.51-.45c-4.2-1.94-8.06-7.13-9.6-11.49" style="fill:#ebebeb"/><path d="M406 184.45a154 154 0 0 1-15-9.16" style="fill:#fff"/><path d="M391 175.29a12.2 12.2 0 0 1 2.25 1.27l5.27 3.27 5.31 3.2a11.4 11.4 0 0 1 2.15 1.42 10.6 10.6 0 0 1-2.36-1c-1.42-.73-3.34-1.79-5.42-3.06s-3.9-2.49-5.19-3.42a10 10 0 0 1-2.01-1.68" style="fill:#e0e0e0"/><path d="M386 177.22c.83 2.61.23 5.57-.71 8.14a12.65 12.65 0 0 1-5 6.31 10.5 10.5 0 0 1-.52-8.06c.9-2.62 3.77-5.22 6.27-6.39" style="fill:#ebebeb"/><path d="M381.33 187.09a92 92 0 0 1 4.57-9.45" style="fill:#fff"/><path d="M385.9 177.64c.15.09-.89 2.19-2.15 4.79s-2.26 4.73-2.42 4.66a18.7 18.7 0 0 1 1.88-4.92 19 19 0 0 1 2.69-4.53" style="fill:#e0e0e0"/><path d="M25.37 270.07s-11 3.08-1.35 26.67 16.64 35.47 16.64 35.47 1.6 5.42-2.89 5.86-14.08-1.94-16.52 3.29c-2.52 5.44 1.1 11.07 9 16.42s24.66 17.69 26.17 18.81 2.85 3.68-.15 4.47-25.13 1.2-24.27 11.67 25.17 21.75 27.81 23 3.19 2.5 2.84 4-7.78.91-14.06 1.29-13.48 1.91-12.5 7.9 14.81 19.61 50.65 26.24l16.81 2 10.39-13.46c20.48-30.15 20.53-49.55 16.95-54.46s-9.73-.87-14.41 3.33-9.51 9.88-10.8 9.09-1.77-2-.83-4.82 10-28 3.16-36-22.68 7.46-25.36 9.05-3.54-1.2-3.28-3 3.29-22.49 5-31.84.26-15.88-5.38-17.91c-5.43-1.95-10.48 6.55-14 9.43s-6.2-2.06-6.2-2.06-3.5-13.36-13.53-36.77-20.13-17.6-20.13-17.6" style="fill:#ebebeb"/><path d="M101.45 454.26c-7.3-17.22-17.19-41.1-28-67.52S52.8 336.43 45.6 319.17L37 298.73l-2.32-5.56-.59-1.45c-.13-.33-.18-.5-.18-.5s.09.16.23.48l.65 1.43 2.41 5.51c2.1 4.8 5.08 11.76 8.73 20.37 7.3 17.22 17.18 41.1 28 67.51s20.66 50.32 27.86 67.59" style="fill:#e0e0e0"/><path d="M34.54 345.24a4.5 4.5 0 0 1 1.16.42c.72.3 1.76.77 3 1.36 2.55 1.18 6 2.91 9.83 4.89l9.75 5.09 2.95 1.54a5.3 5.3 0 0 1 1.06.61 5 5 0 0 1-1.15-.41c-.73-.3-1.77-.77-3-1.37-2.54-1.21-6-3-9.8-5l-9.74-5.05-3-1.52a4.8 4.8 0 0 1-1.06-.56m29 12.96c-.15-.06 3.1-7.4 7.25-16.37s7.63-16.2 7.78-16.14-3.1 7.4-7.26 16.38-7.63 16.2-7.77 16.13m14.8 41.31a5.6 5.6 0 0 1 .76-1l2.23-2.51c1.87-2.17 4.45-5.17 7.18-8.59s5.11-6.58 6.81-8.88l2-2.73a5.7 5.7 0 0 1 .8-1 5 5 0 0 1-.61 1.09c-.43.68-1.06 1.66-1.87 2.84-1.62 2.38-4 5.59-6.69 9s-5.38 6.39-7.34 8.49c-1 1-1.79 1.89-2.36 2.45a5 5 0 0 1-.91.84m-28.81-5.95a4.3 4.3 0 0 1 1.15.11c.74.1 1.8.28 3.1.5 2.62.46 6.22 1.12 10.19 1.89s7.56 1.49 10.16 2.05l3.06.68a4.7 4.7 0 0 1 1.11.33 4.5 4.5 0 0 1-1.15-.1c-.74-.11-1.8-.28-3.1-.51-2.62-.45-6.22-1.12-10.19-1.88s-7.56-1.5-10.15-2.05c-1.3-.28-2.35-.52-3.07-.69a5 5 0 0 1-1.11-.33M58 431.69a7.3 7.3 0 0 1 1.47.16l4 .63c3.35.56 8 1.38 13.08 2.31s9.71 1.82 13 2.48l3.94.82a7.3 7.3 0 0 1 1.43.38 7.3 7.3 0 0 1-1.47-.16l-4-.63c-3.36-.56-8-1.38-13.08-2.32s-9.71-1.81-13-2.48l-3.94-.81a7.3 7.3 0 0 1-1.43-.38m36.06 6.37a8.3 8.3 0 0 1 1-1.28c.7-.88 1.61-2 2.7-3.35 2.28-2.84 5.42-6.76 8.77-11.19s6.28-8.5 8.39-11.47l2.49-3.51a7.8 7.8 0 0 1 1-1.25 9 9 0 0 1-.79 1.38c-.54.86-1.33 2.1-2.35 3.62-2 3-4.9 7.15-8.26 11.58s-6.55 8.33-8.92 11.1c-1.18 1.38-2.15 2.49-2.84 3.24a9 9 0 0 1-1.19 1.13M44.98 95.17h87.37v91.08H44.98z" style="fill:#e0e0e0"/><path style="fill:#fafafa" d="M39.06 95.17h87.37v91.08H39.06z"/><path d="M126.46 186.27H39V95.14h87.43Zm-87.37-.05h87.31v-91H39.09Z" style="fill:#e0e0e0"/><path style="fill:#fff" d="M50.81 107.41h63.88V174H50.81z"/><path d="M50.81 174.45a10.8 10.8 0 0 1-1.58 1.83c-1 1.08-2.45 2.53-4.06 4.12s-3.09 3-4.17 4a10.8 10.8 0 0 1-1.85 1.54 10 10 0 0 1 1.57-1.83c1-1.07 2.45-2.53 4.07-4.12s3.09-3 4.18-4a10 10 0 0 1 1.84-1.54m63.88-.17a10.8 10.8 0 0 1 1.83 1.58c1.08 1 2.53 2.45 4.12 4.06s3 3.08 4 4.17a10.4 10.4 0 0 1 1.54 1.85 10.4 10.4 0 0 1-1.83-1.57c-1.07-1-2.53-2.46-4.12-4.07s-3-3.09-4-4.18a10 10 0 0 1-1.54-1.84m-.18-66.69a10.4 10.4 0 0 1 1.58-1.83c1-1.08 2.45-2.54 4.06-4.12s3.08-3 4.17-4a10 10 0 0 1 1.85-1.54 10.6 10.6 0 0 1-1.57 1.82c-1 1.08-2.46 2.54-4.07 4.13s-3.09 3-4.18 4a10 10 0 0 1-1.84 1.54m-63.88.16a10.4 10.4 0 0 1-1.83-1.57c-1.08-1-2.54-2.46-4.12-4.06s-3-3.09-4-4.18a10.4 10.4 0 0 1-1.54-1.84A10 10 0 0 1 41 97.67c1.08 1 2.54 2.45 4.13 4.07s3 3.09 4 4.18a10.2 10.2 0 0 1 1.5 1.83" style="fill:#e0e0e0"/><path d="M114.51 174v-4.84c0-3.16 0-7.75-.07-13.58 0-11.66-.07-28.27-.12-48.17l.24.25h-63.7l.28-.29v66.59l-.24-.24 46.12.12 13 .07h4.62a1.3 1.3 0 0 1-.28 0h-4.24l-12.9.06-46.28.13h-.25v-66.97h64.24v.24c-.05 20-.1 36.63-.13 48.33 0 5.81 0 10.38-.06 13.52v4.45a1.4 1.4 0 0 1-.23.33" style="fill:#e0e0e0"/><path style="fill:#ebebeb" d="M72.09 130.05h21.32v21.32H72.09z"/><path style="fill:#e0e0e0" d="M183.91 29.39h87.37v91.08h-87.37z"/><path style="fill:#fafafa" d="M178 29.39h87.37v91.08H178z"/><path d="M265.39 120.49H178V29.36h87.42Zm-87.37 0h87.32v-91H178Z" style="fill:#e0e0e0"/><path style="fill:#fff" d="M189.74 41.63h63.88v66.59h-63.88z"/><path d="M189.74 108.66a10.6 10.6 0 0 1-1.58 1.84c-1 1.07-2.45 2.53-4.06 4.11s-3.08 3-4.17 4a10.4 10.4 0 0 1-1.85 1.54 10.4 10.4 0 0 1 1.57-1.83c1-1.08 2.46-2.54 4.07-4.12s3.09-3 4.18-4a10 10 0 0 1 1.84-1.54m63.88-.16a10.4 10.4 0 0 1 1.83 1.58c1.08 1 2.54 2.45 4.12 4.06s3 3.08 4 4.17a9.5 9.5 0 0 1 1.53 1.85 11 11 0 0 1-1.82-1.57c-1.08-1-2.54-2.46-4.13-4.07s-3-3.09-4-4.18a10 10 0 0 1-1.53-1.84m-.17-66.69A10 10 0 0 1 255 40c1-1.08 2.46-2.54 4.06-4.12s3.09-3 4.18-4a10 10 0 0 1 1.84-1.54 9.7 9.7 0 0 1-1.56 1.82c-1 1.08-2.46 2.54-4.07 4.13s-3.1 3-4.19 4a9.8 9.8 0 0 1-1.81 1.52m-63.88.19a10.2 10.2 0 0 1-1.84-1.57c-1.07-1-2.53-2.46-4.11-4.06s-3-3.09-4-4.18a11 11 0 0 1-1.54-1.84 9.5 9.5 0 0 1 1.83 1.56c1.08 1 2.54 2.46 4.12 4.07s3 3.1 4 4.18a10 10 0 0 1 1.54 1.84" style="fill:#e0e0e0"/><path d="M253.45 108.22a2 2 0 0 1 0-.32v-4.53c0-3.15 0-7.74-.06-13.57 0-11.66-.08-28.27-.13-48.17l.25.25h-63.7l.28-.28v66.59l-.24-.24 46.13.12 12.95.07h4.63a1.5 1.5 0 0 1-.28 0h-4.25l-12.9.06-46.28.12h-.24V41.2h64.23v.24l-.12 48.33c0 5.8 0 10.37-.07 13.52v4.45a2.7 2.7 0 0 1-.2.48" style="fill:#e0e0e0"/><path d="M240.05 71.12a10.56 10.56 0 0 0-2.6-5.82 10.24 10.24 0 0 0-5.23-3.38 8.21 8.21 0 0 0-9.14 4 8.15 8.15 0 0 0-2.39-2.7 8.34 8.34 0 0 0-6.39-1.4 10.16 10.16 0 0 0-5.38 3.18 10.6 10.6 0 0 0-2.84 5.7 12.85 12.85 0 0 0 1.43 8 18.3 18.3 0 0 0 6.16 6c4.05 2.56 9.39 5.77 9.39 5.77s4.65-3.32 8.81-5.7a18.2 18.2 0 0 0 6.41-5.77 12.88 12.88 0 0 0 1.77-7.88" style="fill:#ebebeb"/><path d="m202.54 248.89-6.55-.16 5.12 35.57c49.55 1 98.87-24.66 126.4-65.88Z" style="fill:#eb996e"/><path d="M153.84 254.94c2.74 0 52.33-9.12 52.33-9.12l9.37 44.89-47.46 31.65Z" style="fill:#ff725e"/><path d="M153.84 254.94c2.74 0 52.33-9.12 52.33-9.12l9.37 44.89-47.46 31.65Z" style="opacity:.30000000000000004"/><path d="M243.23 253.06s-37.38 5.88-48.3 20.58-21.42 18.06-16.38 53.76c0 0 45.36 15.54 45.36 16.8s9 123.65 9 123.65h124.7l-9-145.91 41.56-28.26s-17.44-62.61-55.31-59.49c-55.62 4.59-91.63 18.87-91.63 18.87" style="fill:#455a64"/><path d="M308.69 393.08a2.3 2.3 0 0 1-.16.56l-.57 1.57c-.25.69-.57 1.52-1 2.46s-.85 2-1.43 3.2-1.18 2.45-1.92 3.79-1.56 2.75-2.43 4.23a94 94 0 0 1-6.46 9.12 95 95 0 0 1-7.58 8.22c-1.26 1.17-2.45 2.29-3.63 3.26s-2.27 1.88-3.31 2.67-2 1.47-2.83 2.07-1.58 1.09-2.19 1.47l-1.42.89a3 3 0 0 1-.51.28s.14-.14.45-.37l1.36-1c.6-.41 1.33-.92 2.15-1.55s1.77-1.29 2.77-2.12 2.11-1.69 3.25-2.71 2.33-2.11 3.58-3.28a101 101 0 0 0 7.51-8.2 99 99 0 0 0 6.45-9.05c.88-1.46 1.74-2.84 2.46-4.18s1.39-2.59 2-3.74 1.06-2.23 1.5-3.16.78-1.74 1.06-2.41.48-1.13.66-1.54a2 2 0 0 1 .24-.48m3.5-15.9a10 10 0 0 1-.93 1.38c-.62.88-1.56 2.12-2.75 3.63a140 140 0 0 1-21.09 21.35 100 100 0 0 1-3.59 2.8 10 10 0 0 1-1.37.94 9.7 9.7 0 0 1 1.25-1.1c.83-.68 2-1.68 3.48-2.92 2.92-2.49 6.87-6 11-10.19s7.6-8.16 10.05-11.11c1.23-1.48 2.21-2.68 2.88-3.52a10 10 0 0 1 1.07-1.26M198.44 130.52c-1.59-1.76-4.53.31-5.31 2.55s-1 5-3 6.28c-2.66 1.63-7.19-.35-8.66 2.41-1.13 2.12 1.11 4.61.79 7-.58 4.25-7.84 4-9.48 7.93-1 2.36.57 4.93 1.76 7.19s1.91 5.47-.12 7-5.38.34-7 2.26c-2.14 2.56 1.84 6.16 1.43 9.48-.3 2.43-2.84 3.87-5.16 4.64s-4.95 1.41-6.34 3.43c-3.06 4.47 2.69 10.29 1.8 15.64-.54 3.23-3.52 6.21-2.43 9.3 1.39 4 8 3.83 9.38 7.79 1.15 3.36-2.37 7.7.08 10.28s6.82-.52 10 .86c3.66 1.6 3.67 8.13 7.63 8.68 1.76.24 3.45-1 5.23-.9 4.31.19 6.21 7.43 10.48 6.71 2.49-.42 4.16-3.61 6.66-3.24s3.18 3.73 5.38 4.84c3.44 1.74 6.74-2.93 10.55-3.49 2.38-.36 4.85 1 7.15.28s3.55-3 3.8-5.28a21.4 21.4 0 0 0-.85-6.8 67.5 67.5 0 0 1 2.5-37.26" style="fill:#263238"/><path d="m224.4 263.51-1.66-19.69s-19.82-.88-26.9-25.75c-3.53-12.36-5.42-33.11-6.36-50.14-1-18.79 17.22-40.53 32.57-40.76l46.73 11.47.82 8.2 10.11 111.84a27.76 27.76 0 0 1-24.81 30.12 27.76 27.76 0 0 1-30.5-25.29" style="fill:#936754"/><path d="M196.44 185.48c.45.37 2.69-1.75 6.19-2.16s6.28 1 6.61.55c.16-.21-.34-.93-1.56-1.6a9 9 0 0 0-5.35-1 8.6 8.6 0 0 0-4.87 2.25c-.97.98-1.24 1.79-1.02 1.96m32.41-5.64c.45.38 2.7-1.74 6.2-2.15s6.27 1 6.6.55c.16-.21-.34-.93-1.56-1.61a9 9 0 0 0-5.34-1 8.63 8.63 0 0 0-4.87 2.25c-.98.99-1.25 1.8-1.03 1.96m-8.69 22.29c0-.2-2.23-.32-5.81-.34-.9 0-1.77-.06-2-.65a4.55 4.55 0 0 1 .28-2.72c.57-2.27 1.18-4.64 1.82-7.13 2.5-10.12 4.19-18.41 3.78-18.51s-2.76 8-5.26 18.17q-.9 3.74-1.71 7.15c-.21 1.05-.66 2.27 0 3.56a2.28 2.28 0 0 0 1.63 1.13 6.2 6.2 0 0 0 1.54 0c3.57-.21 5.74-.46 5.73-.66" style="fill:#263238"/><path d="M222.74 243.82a65 65 0 0 0 32.86-13.15s-6.68 18.61-32.34 19.3Zm-.08-33.44a6.34 6.34 0 0 1 5.37-3 5.76 5.76 0 0 1 4.23 1.65 3.67 3.67 0 0 1 .78 4.14c-.78 1.44-2.72 2-4.45 1.71a13.4 13.4 0 0 1-4.79-2.13 4.2 4.2 0 0 1-1.13-.91 1.2 1.2 0 0 1-.15-1.31" style="fill:#7c5142"/><path d="M230.75 203.31c-.57 0-.12 3.83-3.05 6.92s-7 3.15-7 3.69c0 .24 1 .63 2.7.47a9.55 9.55 0 0 0 5.86-2.87 8.3 8.3 0 0 0 2.31-5.77c-.03-1.61-.57-2.5-.82-2.44m-3.58-42.26c.46.91 3.9 0 8.06 0s7.62.72 8.06-.2c.2-.44-.49-1.26-1.94-2a14 14 0 0 0-12.28.13c-1.44.79-2.07 1.63-1.9 2.07m-31.85 6.82c.71.72 3-.4 5.92-.79s5.41-.11 5.88-1c.2-.43-.28-1.18-1.45-1.8a8.18 8.18 0 0 0-5-.73 8.34 8.34 0 0 0-4.53 2.17c-.9.93-1.14 1.79-.82 2.15m4.68-33.56c0 .29.93.44 2 .33s1.92-.44 1.89-.73-.93-.44-2-.33-1.89.42-1.89.73" style="fill:#263238"/><path d="M202.18 139.05c-7.87-12.34 5.89-24.73 12.63-29s15.61-5.43 22.86-2.09c3.31 1.52 6.31 3.93 9.91 4.46 8.31 1.21 16.2-8 24.1-5.14 6.51 2.33 8.51 11.51 15 13.79 3.15 1.1 6.59.29 9.92.31s7.23 1.42 8 4.66c.85 3.61-2.61 7.86-.35 10.79 2.79 3.61 9.5-.7 12.9 2.33 3.18 2.83.46 9.5 4.2 11.54 2.73 1.5 6.83-1.06 9 1.21s-1.13 6.12-1.18 9.45 3.41 5.68 6.35 7.46 6.12 4.75 5.14 8c-1.14 3.78-7.06 4.72-7.7 8.62s5.05 7.8 3 11.33c-1.35 2.36-5 2.1-6.85 4.11-3 3.35-11.08 9.67-12.3 14-1.67 6 .86 3.54-2.43 8.83-1.83 2.93-1.08 7.4-3.89 9.41s-7-.3-10.46.48c-5.66 1.26-8.29 10.31-14 9.19-2.91-.58-5.35-3.92-8.15-2.92-2.41.87-3 4.5-5.5 5.16-3.35.88-4.81-4-7.13-6.57-3.09-3.43-9.06-3-12-6.61-2.62-3.23-1.46-8 .15-11.83s3.58-8 2.21-11.95c-1.57-4.46-7.25-7.88-5.85-12.4 1.54-4.94 10.42-5.35 10.51-10.53.09-4.88-8.28-6.78-7.85-11.65.29-3.27 4.55-5 5.05-8.23.58-3.77-4.18-6.44-4.51-10.24-.21-2.43 1.44-4.57 2.55-6.74s1.52-5.28-.49-6.66c-3.21-2.2-7.18 2.82-11 2.1-2.67-.51-3.93-3.49-5.11-5.94 0 0-7.92-9.68-20-6.93s-16.73 8.2-16.73 8.2" style="fill:#263238"/><path d="M201.52 134.37c-2.19 2.73-.55 7.53 2.85 8.34 3.17.76 6.2-1.49 8.71-3.56s5.67-4.22 8.78-3.26c5.71 1.77 5.18 11.81 10.94 13.42 2.36.65 4.79-.49 7.12-1.25s5.3-1 6.84.92c2.07 2.56.11 7.2 2.73 9.18 1.1.83 2.67.85 3.68 1.78 1.62 1.49.74 4.26-.71 5.93s-3.43 3-4 5.19c-.91 3.39 2.18 6.5 5.19 8.32s6.59 3.6 7.55 7c1.55 5.46-4.79 11.52-1.93 16.42 1.61 2.76 5.63 3.35 8.5 1.93s4.74-4.29 6-7.23c5.13-12.07 1.95-25.88-1.5-38.53-2.26-8.29-4.77-16.85-10.41-23.32-5.86-6.72-14.48-10.42-23.15-12.49-6.63-1.59-13.6-2.33-20.24-.81s-12.93 5.57-16 11.66" style="fill:#263238"/><path d="M286.31 242.07a1.3 1.3 0 0 0 .47.21 1.76 1.76 0 0 0 1.49-.31 3.52 3.52 0 0 0 1.37-2.07 3.17 3.17 0 0 0 0-1.62 4.2 4.2 0 0 0-.91-1.6 10.6 10.6 0 0 0-3.55-2.34 12.7 12.7 0 0 1-4.14-2.53 4 4 0 0 1-1.18-2.26 4.06 4.06 0 0 1 .73-2.6 24 24 0 0 1 2-2.37 8.3 8.3 0 0 0 1.87-2.85 3.72 3.72 0 0 0-.69-3.56 8.6 8.6 0 0 0-3.12-2.06c-1.13-.51-2.31-.94-3.39-1.53a4.67 4.67 0 0 1-2.41-2.56 3.7 3.7 0 0 1 .84-3.41 34 34 0 0 1 2.83-3A10 10 0 0 0 281 202a5.22 5.22 0 0 0-.74-4.56 12 12 0 0 0-3.39-3.2c-1.31-.87-2.68-1.54-3.92-2.43a8.86 8.86 0 0 1-3-3.24 4.9 4.9 0 0 1 .13-4.27 25 25 0 0 1 2.62-4 10.6 10.6 0 0 0 2.24-4.65 5.27 5.27 0 0 0-.49-2.71 5.9 5.9 0 0 0-1.79-2 27 27 0 0 0-4.62-2.41 8.4 8.4 0 0 1-3.82-2.85 4.62 4.62 0 0 1 0-4.42 25.7 25.7 0 0 1 2.56-4.17 10.84 10.84 0 0 0 1.87-4.72 4.8 4.8 0 0 0-.48-2.6 4.53 4.53 0 0 0-1.89-1.84 10.2 10.2 0 0 0-4.85-.63 19.8 19.8 0 0 1-4.51-.1 3.93 3.93 0 0 1-3.11-2.38c-.56-1.27-.68-2.77-1.21-4.2a5.33 5.33 0 0 0-3.11-3.24c-2.84-1.15-5.76-.44-8.3-.11a12.6 12.6 0 0 1-3.78 0 9.3 9.3 0 0 1-3.33-1.35 49.5 49.5 0 0 1-5.38-4.48 15 15 0 0 0-5.57-3.36 12.1 12.1 0 0 0-5.8-.24 11.2 11.2 0 0 0-7.44 5.21 11.6 11.6 0 0 0-1.72 5.55 7.6 7.6 0 0 0 .15 2c.05 0-.06-.7 0-2a11.8 11.8 0 0 1 1.84-5.37 10.88 10.88 0 0 1 7.23-4.89 11.5 11.5 0 0 1 5.53.31 14.2 14.2 0 0 1 5.3 3.28 49 49 0 0 0 5.43 4.6 10 10 0 0 0 3.59 1.47 13 13 0 0 0 4 0c2.62-.33 5.38-.94 7.89.1a4.5 4.5 0 0 1 2.64 2.77c.47 1.29.58 2.79 1.2 4.26a4.85 4.85 0 0 0 3.73 2.9 20.2 20.2 0 0 0 4.72.12 9.5 9.5 0 0 1 4.41.56 3.6 3.6 0 0 1 1.49 1.45 3.8 3.8 0 0 1 .37 2.09 9.94 9.94 0 0 1-1.73 4.29 26.7 26.7 0 0 0-2.64 4.31 7.1 7.1 0 0 0-.63 2.61 5.2 5.2 0 0 0 .72 2.66 9.25 9.25 0 0 0 4.24 3.22 26.3 26.3 0 0 1 4.45 2.31 5.3 5.3 0 0 1 1.52 1.72 4.4 4.4 0 0 1 .39 2.18 9.7 9.7 0 0 1-2.06 4.21 25 25 0 0 0-2.71 4.19 5.83 5.83 0 0 0-.11 5 9.7 9.7 0 0 0 3.34 3.58c1.3.93 2.71 1.62 3.94 2.43a11.3 11.3 0 0 1 3.16 3 4.36 4.36 0 0 1 .66 3.82 9.3 9.3 0 0 1-2.31 3.34 32 32 0 0 0-2.89 3.07 4.53 4.53 0 0 0-.94 4.12 5.42 5.42 0 0 0 2.8 3c1.16.62 2.35 1 3.46 1.53a8 8 0 0 1 2.87 1.85 3 3 0 0 1 .59 2.91c-.69 2-2.6 3.32-3.69 5.1a4.11 4.11 0 0 0 .57 5.55 13.2 13.2 0 0 0 4.34 2.57 10.15 10.15 0 0 1 3.45 2.17 3.08 3.08 0 0 1 .91 2.92 3.44 3.44 0 0 1-1.21 2 1.7 1.7 0 0 1-1.36.37c-.34-.15-.5-.23-.51-.21m-108.51-9.99a2.2 2.2 0 0 1-1 .54 3.14 3.14 0 0 1-2.84-1.46c-.89-1.2-.66-3.14-.67-5.31a8.5 8.5 0 0 0-.83-3.46 34 34 0 0 1-1.53-3.52 3.61 3.61 0 0 1 .68-3.67 10.8 10.8 0 0 1 3.83-2.25c1.43-.66 3.17-1.14 4.36-2.72a3.38 3.38 0 0 0 .45-2.82 5.24 5.24 0 0 0-1.63-2.36c-1.35-1.25-3.07-2.18-3.83-3.71s.21-3.34 1.74-4.34 3.52-1.46 5.37-2.53a5.9 5.9 0 0 0 2.34-2.29 5.6 5.6 0 0 0 .59-3.28 14 14 0 0 0-2.36-5.87 17.7 17.7 0 0 1-2.55-5.21 5.83 5.83 0 0 1 1.22-5.05c1.11-1.44 2.55-2.62 3.76-4a9.36 9.36 0 0 0 2.35-4.9 19 19 0 0 0-.07-5.06c-.39-3.19-.92-6.16-.27-8.76a14 14 0 0 1 3.32-6.3 14.3 14.3 0 0 1 4.33-3.3A18 18 0 0 1 199 139a6.3 6.3 0 0 0-1.23.06 13.3 13.3 0 0 0-3.4 1 14.82 14.82 0 0 0-8.14 9.78c-.73 2.76-.2 5.85.15 9a18.3 18.3 0 0 1 0 4.85 8.45 8.45 0 0 1-2.18 4.46c-1.15 1.32-2.61 2.49-3.82 4.05A6.71 6.71 0 0 0 179 178c.95 4.09 4.49 6.94 4.88 11a4.8 4.8 0 0 1-.48 2.74 4.93 4.93 0 0 1-2 1.93c-1.65 1-3.71 1.36-5.43 2.58a6.1 6.1 0 0 0-2.08 2.33 3.66 3.66 0 0 0 0 3.15c1 1.91 2.8 2.77 4.06 4a4.56 4.56 0 0 1 1.4 1.95 2.57 2.57 0 0 1-.33 2.13c-.87 1.24-2.54 1.82-4 2.46a11.4 11.4 0 0 0-4.07 2.48 4.33 4.33 0 0 0-1 2.14 5.1 5.1 0 0 0 .23 2.21 32 32 0 0 0 1.63 3.58 7.8 7.8 0 0 1 .84 3.23c.08 2.09-.15 4.15.9 5.51a3.31 3.31 0 0 0 3.18 1.43 1.35 1.35 0 0 0 1.07-.77" style="fill:#455a64"/><path d="M315.59 211.06a8.1 8.1 0 0 0 3.53-2 9.4 9.4 0 0 0 2.43-4.2 7.94 7.94 0 0 0-.82-6.36h.25a3 3 0 0 1-1.37 1.85 4.2 4.2 0 0 1-2.37.56 3.85 3.85 0 0 1-2.4-.94 4.9 4.9 0 0 1-1.38-2.33 7.34 7.34 0 0 1 .89-5.59 21.2 21.2 0 0 1 4.09-4.63l.15.34a29.3 29.3 0 0 1-7.47-.06 10.7 10.7 0 0 1-3.75-1.36 8.74 8.74 0 0 1-2.88-3 6.18 6.18 0 0 1-.83-4.18 7.08 7.08 0 0 1 2.25-3.75c1.07-1 2.28-1.89 3.35-2.89a7.4 7.4 0 0 0 2.21-3.71 3.85 3.85 0 0 0-.07-2.13 2.85 2.85 0 0 0-1.41-1.55c-1.32-.66-2.95-.23-4.47.1s-3.21.8-4.88.22a3.77 3.77 0 0 1-2-1.62 5.9 5.9 0 0 1-.77-2.44c-.45-3.44 1.68-6.62 1-9.89a4.85 4.85 0 0 0-1.05-2.16 5.15 5.15 0 0 0-2-1.4 10.45 10.45 0 0 0-5-.6 31.5 31.5 0 0 0-5.46 1.2 18.5 18.5 0 0 1-5.58.79 7.3 7.3 0 0 1-5.08-2.23 10 10 0 0 1-2.31-5c-.72-3.55-.56-7.1-1.31-10.42a8.76 8.76 0 0 0-2.16-4.39 6.64 6.64 0 0 0-4.31-1.9 18.6 18.6 0 0 0-4.76.47 40 40 0 0 1-4.69.75 9.9 9.9 0 0 1-4.61-.68 19.5 19.5 0 0 1-3.86-2.3 36 36 0 0 0-3.56-2.37 8.54 8.54 0 0 0-3.83-1.17 8.8 8.8 0 0 0-3.77.84c-1.18.51-2.29 1.14-3.39 1.71a16.5 16.5 0 0 1-3.38 1.41 14.3 14.3 0 0 1-3.45.48 41.4 41.4 0 0 1-6.32-.52 31 31 0 0 0-5.45-.4 13.9 13.9 0 0 0-4.46 1 8.16 8.16 0 0 0-4.69 4 7.6 7.6 0 0 0-.54 2.13s0-.19 0-.56a2.4 2.4 0 0 1 .11-.69 4.7 4.7 0 0 1 .3-.93 8.2 8.2 0 0 1 4.72-4.16 14.1 14.1 0 0 1 4.52-1 32.4 32.4 0 0 1 5.5.36 40 40 0 0 0 6.27.48 13.5 13.5 0 0 0 3.36-.49 16 16 0 0 0 3.31-1.4c1.09-.57 2.2-1.21 3.4-1.74a9.6 9.6 0 0 1 3.94-.89 9 9 0 0 1 4 1.21 36 36 0 0 1 3.61 2.39 19.4 19.4 0 0 0 3.78 2.24 9.5 9.5 0 0 0 4.4.64 41 41 0 0 0 4.64-.76 18.4 18.4 0 0 1 4.89-.48 7 7 0 0 1 4.61 2 9.2 9.2 0 0 1 2.31 4.63c.77 3.4.61 7 1.32 10.43a9.4 9.4 0 0 0 2.19 4.71 6.8 6.8 0 0 0 4.73 2.06 18.5 18.5 0 0 0 5.42-.77 31.3 31.3 0 0 1 5.55-1.22 10.9 10.9 0 0 1 5.22.64 5.75 5.75 0 0 1 2.18 1.54 5.17 5.17 0 0 1 1.15 2.39c.67 3.59-1.48 6.72-1 9.94a5.3 5.3 0 0 0 .7 2.23 3.27 3.27 0 0 0 1.71 1.42c1.45.52 3.07.11 4.6-.24a19 19 0 0 1 2.37-.42 4.44 4.44 0 0 1 2.43.37 3.3 3.3 0 0 1 1.65 1.82 4.37 4.37 0 0 1 .09 2.4 7.9 7.9 0 0 1-2.36 4c-1.11 1-2.32 1.89-3.35 2.88a6.55 6.55 0 0 0-2.13 3.5 5.67 5.67 0 0 0 .77 3.86 8.14 8.14 0 0 0 2.72 2.81 10.3 10.3 0 0 0 3.59 1.32 28.4 28.4 0 0 0 7.36.08h.57l-.42.38a20.8 20.8 0 0 0-4 4.53 7 7 0 0 0-.89 5.31 4.5 4.5 0 0 0 1.28 2.18 3.46 3.46 0 0 0 2.19.88 3.2 3.2 0 0 0 3.47-2.17l.07-.32.17.28a8.16 8.16 0 0 1 .79 6.56 9.47 9.47 0 0 1-2.54 4.24 7.8 7.8 0 0 1-2.6 1.63c-.52.16-.93.22-.93.22" style="fill:#455a64"/><path d="M198.57 196.6c-.14 0-.32-.37-.4-.88s0-.92.12-.95.32.37.4.88.02.93-.12.95m6.43-2.19c-.13.06-.34-.14-.47-.45s-.12-.59 0-.64.34.14.47.44.16.6 0 .65m-2.32 5.93c-.15 0-.25-.42-.22-.92s.16-.91.3-.9.24.42.22.92-.16.91-.3.9m34.1-9.21c-.1.1-.41 0-.69-.32s-.42-.59-.32-.69.41 0 .69.32.42.56.32.69m6.03-1.56c-.09.11-.4 0-.71-.21s-.47-.5-.39-.62.41 0 .71.21.47.5.39.62m-2.27 5.21c-.15 0-.22-.36-.17-.76s.21-.72.35-.7.22.36.17.76-.21.72-.35.7m-9.05 0c-.14-.06-.12-.39 0-.75s.38-.59.51-.53.12.39 0 .74-.38.59-.51.54m18.51-5.84c-.13.05-.38-.25-.56-.68s-.21-.82-.08-.87.39.25.56.67.22.82.08.88m-52.77 14.69c-.14-.06-.07-.48.13-.93s.49-.76.62-.7.06.47-.14.92-.48.77-.61.71" style="fill:#7c5142"/><path d="M177.42 316.66c.15 2 18.68 109.17 24.31 127.38 4.86 15.7 27.35 34.38 46 15.71 17.82-17.81 25.16-97.82 25.16-97.82L231 363.88l-.58-47.22s-31-11.15-55.39 0" style="fill:#936754"/><path d="M349.09 221.49c-5.28-12.89-28.9-9.59-28.9-9.59s-73.42 65.92-84.11 75.75-12.67 19.35-12.39 22.13c0 0-2.53 26.18-.83 35.94s10.45 25.83 17.78 24c0 0 5.9-3.17 2.86-7.19 0 0 6.15 4 8.44-.45s-3.72-10-3.72-10 7.51 5.68 9.4-.67-5.8-10.22-5.8-10.22-5.31-10.43-3.53-16.18 9.93-6.8 10.61-16.73c.3-4.32.47-7.57.58-9.88l87.26-52.17s7.63-11.86 2.35-24.74" style="fill:#ffbe9d"/><path d="M183.6 257.16a8.8 8.8 0 0 1-.3-3.78 10.5 10.5 0 0 1 1.72-4.06 28.2 28.2 0 0 1 4.08-4.32 24.9 24.9 0 0 0 4.89-5.7 21.5 21.5 0 0 0 2.84-8.19 21.1 21.1 0 0 0-.93-9.55 58.4 58.4 0 0 0-4.27-9.21 45.8 45.8 0 0 1-3.93-9.05 16.6 16.6 0 0 1-.18-8.88c1.52-5.59 4.86-10 6.55-14.27a17.08 17.08 0 0 0 1.38-10.66 9.4 9.4 0 0 0-1.09-2.75c-.35-.58-.6-.84-.63-.81a22 22 0 0 1 1.15 3.67 17.33 17.33 0 0 1-1.78 10.13c-1.74 4.08-5.19 8.38-6.92 14.34a17.94 17.94 0 0 0 .1 9.61 45.3 45.3 0 0 0 4 9.37 59 59 0 0 1 4.19 9 20 20 0 0 1 1 8.91 20.6 20.6 0 0 1-2.54 7.74 25 25 0 0 1-4.56 5.57 26.8 26.8 0 0 0-4 4.67 10.64 10.64 0 0 0-1.6 4.43 6.4 6.4 0 0 0 .35 3 2 2 0 0 0 .48.79M105.34 230a13.58 13.58 0 0 1-12.42 8.18 16.37 16.37 0 0 1-13.27-7.37 20.72 20.72 0 0 1-2.85-15.14c.43-2.35 1.22-4.69 1-7.06-.38-3.35-2.83-6.13-3.67-9.4-1.5-5.9 2.81-12.13 8.42-14.49s12-1.63 17.91 0" style="fill:#263238"/><path d="M190.8 161.8c5.4 5.43 3.34 12.57.82 17.4s-5.55 9.73-5.61 15.18 3 10.64 4.53 16a29.86 29.86 0 0 1-1.61 20.62c-2.22 4.8-5.7 8.94-8 13.73s-3.08 10.83 0 15.15a9.48 9.48 0 0 1-6.66-5.34 18.6 18.6 0 0 1-1.57-8.64c.24-11.22 5.61-22.13 4.27-33.27-.78-6.48-3.82-12.7-3.4-19.21s4.27-12.26 7-18.19 4.41-13.33.72-18.74" style="fill:#263238"/><path d="M177.51 140.51c6.62.86 13.19 4.32 16.39 10.18s2.1 14.16-3.37 18c-5.16 3.61-12.47 2.42-17.77-1a20.4 20.4 0 0 1-8.59-10.63 14.5 14.5 0 0 1 2.06-13.23c2.87-3.65 8.11-5.44 12.46-3.8" style="fill:#263238"/><path d="M182.92 139.83c-2.92-8.05-10.08-14.14-18.15-17s-17-2.82-25.38-1.23-16.49 4.63-24.5 7.66c-5.83 2.21-11.79 4.5-16.54 8.55s-7.89 9.53-10 15.33c-4 10.88-4.17 18.85.52 29.46 2 4.62.38 9.79 2.21 14.49s10.32 10.31 7.68 14.61" style="fill:#263238"/><path d="M187.19 169.53c-.13-15.24-9.19-34.42-24.4-33.63l-47.9 9.38a8.92 8.92 0 0 0-8.45 8.6l-3.75 110.45 56.53 12.88c.51-8.84 0-30.38 0-30.33s19.57-2.18 25-27.27c2.64-12.48 3.12-33.15 2.97-50.08" style="fill:#ffbe9d"/><path d="M182.23 186.16c-.43.4-2.79-1.56-6.28-1.74s-6.15 1.43-6.51 1c-.17-.2.28-.95 1.44-1.7a9 9 0 0 1 5.23-1.31 8.5 8.5 0 0 1 5 1.91c1 .87 1.33 1.68 1.12 1.84m-34.47-.93c-.42.4-2.79-1.55-6.28-1.73s-6.15 1.43-6.5 1c-.18-.2.27-.94 1.43-1.69a8.9 8.9 0 0 1 5.24-1.31 8.57 8.57 0 0 1 5 1.91c.99.86 1.35 1.64 1.11 1.82M159 205.41c0-.2 2.18-.46 5.73-.72.89 0 1.75-.17 1.93-.77a4.5 4.5 0 0 0-.45-2.68l-2.27-6.94c-3.14-9.86-5.36-18-5-18.08s3.27 7.77 6.41 17.64c.75 2.43 1.48 4.75 2.16 7 .28 1 .8 2.22.27 3.53a2.21 2.21 0 0 1-1.53 1.22 5.7 5.7 0 0 1-1.53.13c-3.48-.03-5.72-.13-5.72-.33" style="fill:#263238"/><path d="M159.22 246.88A64.54 64.54 0 0 1 125.81 236s8.06 17.91 33.52 16.91Z" style="fill:#eb996e"/><path d="M149.87 168.67c-.4.94-3.86.3-8 .57s-7.51 1.21-8 .33c-.22-.42.4-1.28 1.79-2.13a13.86 13.86 0 0 1 12.17-.68c1.49.68 2.17 1.47 2.04 1.91m31.53 1.17c-.66.76-3-.19-5.91-.39s-5.38.25-5.9-.61c-.22-.42.21-1.19 1.32-1.89a8.58 8.58 0 0 1 9.51.81c.98.87 1.27 1.71.98 2.08" style="fill:#263238"/><path d="M157.1 213.36a5.87 5.87 0 0 0-5.14-2.47 5.37 5.37 0 0 0-3.81 1.79 3.41 3.41 0 0 0-.47 3.87 4 4 0 0 0 4.22 1.31 12.4 12.4 0 0 0 4.29-2.26 3.6 3.6 0 0 0 1-.91 1.11 1.11 0 0 0 .06-1.22" style="fill:#eb996e"/><path d="M149.2 207.32c.53 0 .34 3.53 3.24 6.2s6.67 2.49 6.67 3c0 .22-.87.64-2.47.6a8.84 8.84 0 0 1-5.58-2.29 7.7 7.7 0 0 1-2.49-5.2c-.05-1.49.43-2.35.63-2.31m34.15-60.69c-1.66 7.94-14.39 8.53-22.26 6.55a25.78 25.78 0 0 1-23.24 8.49 7 7 0 0 0-3.47 0 7.14 7.14 0 0 0-2.75 2.44 22.7 22.7 0 0 1-14.26 7.83A20.33 20.33 0 0 1 101 187.73s-2.53-1.43-1-11.61 1.57-31.52 1.57-31.52l28.42-11 33.48-4.31s22.68 3.9 19.88 17.34" style="fill:#263238"/><path d="M89.25 183.75c.22.05.06-2.8 2.12-7a18 18 0 0 1 5.31-6.36 18.27 18.27 0 0 1 10-3.58h.44l.13-.43c1.24-4 3.4-8.27 7.21-11.24s9.48-4.14 14-1.56l.74.43.34-.82c.12-.29.25-.6.37-.91a20 20 0 0 1 17-11.71 22.8 22.8 0 0 1 4.89.41 11.4 11.4 0 0 0 5 .06 9.3 9.3 0 0 0 3.91-2.64 17.6 17.6 0 0 1 3-2.64 14 14 0 0 1 11.56-1.56 24 24 0 0 1 4.07 1.9s-.26-.33-.87-.83a12.2 12.2 0 0 0-3-1.62 14.32 14.32 0 0 0-12.31 1.22c-2.43 1.35-4 4.22-6.67 5s-6-.87-9.63-.65a21.19 21.19 0 0 0-18.34 12.51c-.13.34-.27.67-.4 1l1.08-.39c-5.25-3-11.6-1.49-15.62 1.72a23.4 23.4 0 0 0-7.54 12l.58-.45a19 19 0 0 0-10.59 4 18.1 18.1 0 0 0-5.34 6.86 17.2 17.2 0 0 0-1.47 5.37 5.6 5.6 0 0 0 .03 1.91" style="fill:#455a64"/><path d="M134.49 159.45a5.5 5.5 0 0 0 2 .8 20.8 20.8 0 0 0 6 .67 24.52 24.52 0 0 0 17.78-8.32l-.93.17.81.42a19.1 19.1 0 0 0 11.28 1.69 18.3 18.3 0 0 0 8.51-3.75 17.5 17.5 0 0 0 4.13-4.69 5.1 5.1 0 0 0 .9-2.1c-.24-.17-1.56 2.94-5.67 5.94a18.1 18.1 0 0 1-8.07 3.24 18.4 18.4 0 0 1-10.42-1.67l-.75-.39-.54-.28-.39.45a24.7 24.7 0 0 1-16.69 8.25c-4.9.36-7.89-.71-7.95-.43" style="fill:#455a64"/><path d="M149.58 145.28c0 .45 3.72.33 8 1.59s7.32 3.26 7.58 2.9-2.57-3-7.16-4.34-8.5-.52-8.42-.15m9.64-.28c.31.29 1.66-.71 3.36-1.79s3.16-1.92 3-2.32-2-.16-3.84 1.06-2.83 2.78-2.52 3.05m-40.17 12.49c.14.42 3.4-.44 7.42-.07s7.11 1.69 7.31 1.3-2.78-2.45-7.18-2.8-7.72 1.22-7.55 1.57m-7.77 13.16c0 .38 4.75.85 10.35-.79s9.41-4.55 9.18-4.85-4.23 1.89-9.6 3.41-9.94 1.79-9.93 2.23m-17.83 8.71c.32.31 2.8-2.18 6.8-3.31s7.42-.46 7.52-.89-3.47-1.89-7.94-.55-6.73 4.57-6.38 4.75M96 143c.12 0 .45-.83 1.42-2.13a15.15 15.15 0 0 1 5.36-4.17c5.21-2.54 13.43-4.12 22.37-3.72a91 91 0 0 1 22.57 4.3c5.66 1.76 9.11 3.05 9.2 2.84a8.6 8.6 0 0 0-2.3-1.22c-1.52-.69-3.75-1.61-6.56-2.63a79.5 79.5 0 0 0-22.85-4.79c-9.18-.4-17.56 1.37-22.93 4.28a14.2 14.2 0 0 0-5.34 4.78A5.07 5.07 0 0 0 96 143" style="fill:#455a64"/><path d="M93.17 156.64c.28.11 1.06-3.07 4.3-6.92A30.73 30.73 0 0 1 114 140c7.49-1.68 14.59-1 19.6-.41s8.16 1.26 8.21 1-3-1.15-8.05-2.08a50.75 50.75 0 0 0-20.1 0c-7.82 1.77-14 6.31-17 10.51a19.9 19.9 0 0 0-3 5.38 5.4 5.4 0 0 0-.49 2.24" style="fill:#455a64"/><path d="M81.85 206.48c.14-.23-2.42-1.59-6-4.3a18.4 18.4 0 0 1-5.1-5.84 10.07 10.07 0 0 1-.44-8.92 11.83 11.83 0 0 1 6.51-6.31 13.54 13.54 0 0 1 7.6-.49c4.39 1 6.54 3.1 6.7 2.86 0-.07-.4-.64-1.44-1.45a14.6 14.6 0 0 0-5-2.44 14.1 14.1 0 0 0-8.33.22 13 13 0 0 0-7.41 7 11.29 11.29 0 0 0 .6 10.16 18.2 18.2 0 0 0 5.69 6 35 35 0 0 0 4.77 2.79c1.13.56 1.8.81 1.85.72m-1.18.14a8 8 0 0 0-1.16 2.19 54 54 0 0 0-2.38 6.31 33 33 0 0 0-1.59 10A21.43 21.43 0 0 0 79 237a15.4 15.4 0 0 0 10.48 6.65 11.08 11.08 0 0 0 9.52-3.26 10 10 0 0 0 3-6.16 4.4 4.4 0 0 0-.32-2.49c-.14 0 0 .9-.26 2.41a10.44 10.44 0 0 1-11.78 8.14 14.3 14.3 0 0 1-9.43-6.12 20.73 20.73 0 0 1-3.27-11.12 35.4 35.4 0 0 1 1.23-9.65c1.42-5.4 2.75-8.69 2.5-8.78" style="fill:#263238"/><path d="M119.87 159.25c3.16 6.29.74 13.91-2.49 20.16s-7.37 12.45-7.64 19.48c-.45 11.78 10.07 22.2 8.62 33.9a17.61 17.61 0 0 1-13.28 14.62c5.58-3.75 6.08-11.95 4-18.32s-12.44-23.15-13.93-29.7c-5-22-2.88-24.56 4.81-32.29" style="fill:#263238"/><path d="M98.67 174.93c0 .18 1.54.54 4.08.17a16.95 16.95 0 0 0 13.91-12.83c.57-2.5.33-4.09.15-4.09s-.4 1.52-1.2 3.78a19.15 19.15 0 0 1-5 7.72 19.35 19.35 0 0 1-8.09 4.36c-2.31.61-3.85.65-3.85.89" style="fill:#455a64"/><path d="M107.83 240.41s.3-.13.78-.5a11.5 11.5 0 0 0 1.85-1.92 15.07 15.07 0 0 0 3-9.29 14.24 14.24 0 0 0-1.72-6.66 30.4 30.4 0 0 0-4.89-6.06 22.5 22.5 0 0 1-4.76-6.61 19 19 0 0 1-1.57-8.49 18 18 0 0 1 2.41-8.28 47.3 47.3 0 0 1 4.91-6.69 48.5 48.5 0 0 0 8-12 26.5 26.5 0 0 0 2.38-9.44 9.7 9.7 0 0 0-.26-3.56c-.32-.06.44 5.24-3.11 12.55a51 51 0 0 1-8.11 11.54 45.4 45.4 0 0 0-5.14 6.86 19.24 19.24 0 0 0-2.64 9 20.34 20.34 0 0 0 1.73 9.18 23.3 23.3 0 0 0 5.12 7 30.4 30.4 0 0 1 4.8 5.7 13.4 13.4 0 0 1 1.74 6.07 15.1 15.1 0 0 1-2.38 8.9c-1.24 1.79-2.24 2.59-2.14 2.7" style="fill:#455a64"/><path d="M96.1 174.1c-.07-.06-.68.37-1.62 1.37a17.9 17.9 0 0 0-3.15 4.84c-2.09 4.42-3 11.56-.8 18.77a46.65 46.65 0 0 0 9.47 16.29c3.16 3.64 5.39 5.61 5.53 5.48s-1.78-2.4-4.69-6.17-6.74-9.19-8.88-16.05a28 28 0 0 1 .34-17.9c1.7-4.39 4.03-6.43 3.8-6.63" style="fill:#455a64"/><path d="M195.1 398.11a27.82 27.82 0 0 1 2.3-23.93c10.7-17.29 8.67-41.79-13-73.58-.28-.41-.55-.83-.8-1.25-3.13-5.17-27.13-44.74-65.64-48.63-7.9-.79-17.15 1.35-23.07 6.64-7.42 6.63-16 17.25-19.64 28.9-6.16 19.58-12.52 61.79-4.12 87.9 5.85 18.19 22.84 55 32.61 75.61 4.33 9.16-7.74 17.64 2.38 18.08h106.05c-3.3-15.21-13.97-60.96-17.07-69.74" style="fill:#ff725e"/><path d="M152.33 354.51s92.36 28.82 107.09 25.14S359.54 265 359.54 265l-31.23-23.12L250.26 320l-74.63-26.7Z" style="fill:#ffbe9d"/><path d="M258.13 320.72a5 5 0 0 1-.66-.15l-1.84-.53-6.77-2c-5.71-1.73-13.6-4.11-22.28-6.84s-16.5-5.36-22.12-7.37c-2.81-1-5.08-1.84-6.63-2.45l-1.79-.7a3 3 0 0 1-.61-.28 5 5 0 0 1 .65.18l1.82.61 6.68 2.29c5.64 1.92 13.47 4.48 22.16 7.22l22.23 7 6.72 2.18 1.81.63a2.7 2.7 0 0 1 .63.21" style="fill:#eb996e"/><path d="M318.81 251.38s-1.81-5.64 0-10.66a29.6 29.6 0 0 1 4.35-7.18 6.07 6.07 0 0 1 8.93-.72l15.81-19.4s7.54-5 12.21 2.52c0 0 1.07-4.88 4.66-2.08s1.8 10.7 1.8 10.7 4.31.71 2.51 11.49c0 0 2 3.95.44 11.13s-11.57 23-14.44 26.57l-9.35 12.75" style="fill:#ffbe9d"/><path d="M345.72 286.5a2 2 0 0 1 .15-.24l.47-.68c.44-.62 1.07-1.49 1.86-2.61l7-9.7c1.52-2 3-4.41 4.65-7s3.26-5.41 4.89-8.46c.8-1.54 1.62-3.13 2.36-4.79a32.4 32.4 0 0 0 2-5.23 24.3 24.3 0 0 0 .74-5.76 15.6 15.6 0 0 0-1-5.88V236a27 27 0 0 0 .36-6.11 10 10 0 0 0-.68-3 3.53 3.53 0 0 0-2-2.08l-.26-.07.05-.24a22 22 0 0 0 .43-3.88 12.5 12.5 0 0 0-.48-4 6 6 0 0 0-1.11-2.06 4.6 4.6 0 0 0-1.91-1.24 1.84 1.84 0 0 0-1 0 2.3 2.3 0 0 0-.87.62 5.25 5.25 0 0 0-1 2l-.16.59-.31-.51a7.94 7.94 0 0 0-5.46-3.94 10 10 0 0 0-6.4 1.5h.06l-13.81 16.89-1.54 1.88-.38.46-.09.12c-.59.05-.17 0-.3 0h-.06l-.22-.19a5.5 5.5 0 0 0-.94-.62 5.85 5.85 0 0 0-4.2-.52 5.9 5.9 0 0 0-3.29 2.18c-.81 1-1.54 2.07-2.2 3.08a24 24 0 0 0-1.67 3 13.5 13.5 0 0 0-.93 2.85 18.3 18.3 0 0 0-.24 4.76 24 24 0 0 0 .43 3c.07.32.12.56.17.76a1 1 0 0 1 .05.26 1.5 1.5 0 0 1-.1-.25l-.21-.75a21.5 21.5 0 0 1-.5-3 17.7 17.7 0 0 1 .17-4.83 13.7 13.7 0 0 1 .91-2.92 24.5 24.5 0 0 1 1.66-3q1-1.53 2.19-3.12a6.3 6.3 0 0 1 3.47-2.33 6.24 6.24 0 0 1 4.48.53 6 6 0 0 1 1 .66l.23.19h.06-.28l.09-.11.38-.47 1.53-1.88 13.75-16.94a10.37 10.37 0 0 1 6.74-1.59 8.44 8.44 0 0 1 5.83 4.17l-.48.08a5.8 5.8 0 0 1 1.1-2.26 2.8 2.8 0 0 1 1.09-.77 2.3 2.3 0 0 1 1.35 0 5 5 0 0 1 2.15 1.39 6.5 6.5 0 0 1 1.23 2.26 12.7 12.7 0 0 1 .5 4.14 21.6 21.6 0 0 1-.45 4l-.21-.31a3.91 3.91 0 0 1 2.38 2.39 10.4 10.4 0 0 1 .72 3.17 26.8 26.8 0 0 1-.38 6.23v-.15a15.9 15.9 0 0 1 1 6.1 24.7 24.7 0 0 1-.77 5.88 34 34 0 0 1-2 5.3c-.76 1.67-1.59 3.26-2.4 4.8-1.65 3.06-3.33 5.88-5 8.46s-3.16 4.94-4.72 7c-3 4.08-5.46 7.35-7.15 9.61-.83 1.1-1.47 2-1.93 2.56l-.5.66a2 2 0 0 1-.09.11" style="fill:#eb996e"/><path d="M351.1 227.58a52 52 0 0 1 4.78-5.5 53 53 0 0 1 5.16-5.14 50 50 0 0 1-4.78 5.5 49 49 0 0 1-5.16 5.14m-24.18 13.13a38 38 0 0 1 2.61-4.72 36 36 0 0 1 2.82-4.58 22.4 22.4 0 0 1-2.37 4.84 23 23 0 0 1-3.06 4.46m33.5-4.92c-.12-.08 1.43-2.79 3.21-6.2s3.12-6.24 3.26-6.18a8 8 0 0 1-.68 1.94c-.49 1.17-1.22 2.76-2.12 4.48s-1.78 3.23-2.46 4.29a7.2 7.2 0 0 1-1.21 1.67m4.71 10.95a48 48 0 0 1 1.91-6.69 46 46 0 0 1 2.4-6.53 48 48 0 0 1-1.91 6.69 46 46 0 0 1-2.4 6.53" style="fill:#eb996e"/><path d="M121.35 253.77s25.58 3.26 42.77 19.92c25.31 24.54 31.56 26 31.57 26.24s-39.24 63.41-39.24 63.41l-35.1-17.07-20.75-61.66Z" style="fill:#ff725e"/><path d="M185.7 346.65h.08a.73.73 0 0 1 .44 1 3.5 3.5 0 0 1-1.29 1.6 5.7 5.7 0 0 1-1.32.77c0 .18-.06.35-.07.5-.1 1 .09 1.55.59 1.71a1.1 1.1 0 0 0 .6 0 2.2 2.2 0 0 0 1.08-.82 1.2 1.2 0 0 1-.32-.23.84.84 0 0 1-.19-.9.66.66 0 0 1 .35-.4.74.74 0 0 1 .58-.06.8.8 0 0 1 .53 1l-.06.16h.2a.6.6 0 0 1 .29 0 .2.2 0 0 1 .11.07.24.24 0 0 1 0 .27.25.25 0 0 1-.12.15 1.3 1.3 0 0 1-.83.12 3.4 3.4 0 0 1-.94 1 1.66 1.66 0 0 1-1.47.29c-.66-.21-1-.78-1.06-1.71a6.3 6.3 0 0 1 .34-2.15 1 1 0 0 1 .06-.17 5.8 5.8 0 0 1 .82-1.45c.57-.66 1.09-.91 1.6-.75m-1.62 2.07a6 6 0 0 0-.26.61 4.6 4.6 0 0 0 .71-.45 2.9 2.9 0 0 0 1.13-1.3.2.2 0 0 0 0-.08.22.22 0 0 0-.15-.24.7.7 0 0 0-.69.25 4.7 4.7 0 0 0-.74 1.21m2 1.75H186a.18.18 0 0 0-.18.14q-.08.22.3.39a.2.2 0 0 1 0-.09l.05-.11a.1.1 0 0 1 0-.05q.1-.22-.07-.28Z" style="fill:#263238"/><path d="M190.49 351.4a.33.33 0 0 1 .37-.12l.15.07a1.74 1.74 0 0 1 .87 1 2.18 2.18 0 0 1 0 1.36 2 2 0 0 1-.73 1 .48.48 0 0 1-.41.1.22.22 0 0 1-.13-.12.28.28 0 0 1 0-.25.3.3 0 0 1 .05-.11l.08-.07a1.86 1.86 0 0 0 .59-.85v-.11a1.36 1.36 0 0 0-.12-1 .66.66 0 0 0-.35-.38 2 2 0 0 1-.26.39 4.9 4.9 0 0 1-1.27 1.12 2.75 2.75 0 0 1-2.3.37 1 1 0 0 1-.28-.12c-.43-.28-.54-.77-.31-1.48 0-.09.07-.19.11-.29a2.9 2.9 0 0 1 .83-1.08 1.3 1.3 0 0 1 1.24-.32.84.84 0 0 1 .43.27.73.73 0 0 1 .16.79 1 1 0 0 0 0 .1 1.3 1.3 0 0 1-1 .81 1.7 1.7 0 0 1-.92 0 1 1 0 0 1-.21-.08 1 1 0 0 0-.06.16 1 1 0 0 0-.05.25c0 .23.13.38.4.47a1.5 1.5 0 0 0 .48.07 2.85 2.85 0 0 0 1.78-.91 5.3 5.3 0 0 0 .86-1.04m-2.22-.27a.3.3 0 0 0-.12 0 1.84 1.84 0 0 0-.81.74.8.8 0 0 0 .18.07.94.94 0 0 0 .66 0 .67.67 0 0 0 .45-.45.14.14 0 0 0 0-.06c0-.18 0-.29-.11-.33a.5.5 0 0 0-.25.03m4.96-.2.41.14.57-1.18.11-.2a.32.32 0 0 1 .39-.16h.09c.12.07.15.21.08.42 0 .06-.23.49-.62 1.29l.42.14a.4.4 0 0 1 .18.1.33.33 0 0 1 .06.3.25.25 0 0 1-.08.12.32.32 0 0 1-.35.06l-.5-.16c-.73 1.54-1.12 2.41-1.18 2.61a.9.9 0 0 0 0 .37c0 .18.1.3.23.34h.09a.9.9 0 0 0 .37-.08.55.55 0 0 1 .38 0h.1a.24.24 0 0 1 .07.27.68.68 0 0 1-.44.34 1.3 1.3 0 0 1-.85 0 .81.81 0 0 1-.55-.54 1.5 1.5 0 0 1 0-1c0-.08.42-.94 1.17-2.57l-.36-.11a.27.27 0 0 1-.18-.38.4.4 0 0 1 .07-.12.29.29 0 0 1 .32 0m3.86 3.34.44.14.79-1.61c.77-1.55 1.52-2.21 2.27-2a1.1 1.1 0 0 1 .36.19.77.77 0 0 1 .2.89 2.4 2.4 0 0 1-.2.43 4.35 4.35 0 0 1-1.52 1.45 4.5 4.5 0 0 1-1.18.55l-.13.27.42.13a.5.5 0 0 1 .17.1.28.28 0 0 1 .06.3.22.22 0 0 1-.08.13.32.32 0 0 1-.34.06l-.5-.16-.61 1.26 1.4-.5a.55.55 0 0 1 .35 0 .25.25 0 0 1 .1.08.23.23 0 0 1 .05.24.56.56 0 0 1-.34.29c-.36.15-1 .39-1.94.73l-.63 1.28a1.08 1.08 0 0 1-.5.53 1 1 0 0 1-.75.05 1 1 0 0 1-.56-.49.94.94 0 0 1-.08-.71.92.92 0 0 1 .34-.5 1.6 1.6 0 0 1 .46-.22l1.21-.43.87-1.75-.4-.12h-.06a.27.27 0 0 1-.17-.37.4.4 0 0 1 .05-.11.31.31 0 0 1 .45-.13M195.8 358l.23-.47-.56.2q-.36.12-.42.33a.23.23 0 0 0 0 .14.26.26 0 0 0 .19.26.4.4 0 0 0 .15 0c.13.03.27-.13.41-.46m4.64-6.57c-.23-.07-.48.06-.76.38a6.8 6.8 0 0 0-.88 1.5 2 2 0 0 1-.13.24 4.4 4.4 0 0 0 .78-.48 3 3 0 0 0 1.14-1.32.2.2 0 0 0 0-.08.22.22 0 0 0-.15-.22Zm1.29 5.47c0 .28.08.44.22.48a1.2 1.2 0 0 0 .46 0 .9.9 0 0 1 .43-.05.25.25 0 0 1 .1.08.24.24 0 0 1 .05.22.73.73 0 0 1-.46.35 1.3 1.3 0 0 1-.85 0 .85.85 0 0 1-.42-.28 1.57 1.57 0 0 1 0-1.45 4 4 0 0 1 .14-.39 2 2 0 0 1 .23-.48 1.34 1.34 0 0 1-.6 0h-.25a1 1 0 0 1-.49 0l-.09-.06a.19.19 0 0 1-.06-.22.4.4 0 0 1 .18-.13h.08a.9.9 0 0 1-.05-.72.7.7 0 0 1 .19-.3.68.68 0 0 1 .69-.13.9.9 0 0 1 .35.23.6.6 0 0 1 .13.61 1 1 0 0 1-.17.33.8.8 0 0 0 .21-.07 1.3 1.3 0 0 1 .51-.07.48.48 0 0 1 .25.19.18.18 0 0 1 0 .14v.06a4.5 4.5 0 0 0-.59 1.14 3 3 0 0 0-.11.51c-.07-.04-.08-.01-.08.01m-.62-2.49a.13.13 0 0 0 0-.06.16.16 0 0 0-.11-.15.16.16 0 0 0-.16.12.33.33 0 0 0 .11.35.4.4 0 0 0 .16-.26" style="fill:#263238"/><path d="M204.07 355.29c0 .08-.09.24-.19.49-.32.74-.52 1.2-.57 1.38a1 1 0 0 0 0 .37c0 .19.1.3.23.34h.08a1.1 1.1 0 0 0 .4-.08.7.7 0 0 1 .4-.05.2.2 0 0 1 .1.08.26.26 0 0 1 .05.25.75.75 0 0 1-.46.33 1.4 1.4 0 0 1-.86 0 .76.76 0 0 1-.49-.42 1.7 1.7 0 0 1 0-1.26 8 8 0 0 1 .44-1l.24-.52v-.07c.13-.25.28-.35.46-.29h.08c.14.16.16.25.09.45m-.11-1.2a.3.3 0 0 1 .04-.09.28.28 0 0 1 .31-.08.25.25 0 0 1 .12.08.28.28 0 0 1 .08.31.35.35 0 0 1-.08.13.3.3 0 0 1-.31.07.35.35 0 0 1-.13-.08.29.29 0 0 1 .01-.34Z" style="fill:#263238"/><path d="M204.34 357.46c0-.1.07-.19.11-.29a2.9 2.9 0 0 1 .83-1.08 1.26 1.26 0 0 1 1.23-.33 1 1 0 0 1 .3.14.73.73 0 0 1 .29.92v.09a1.4 1.4 0 0 1-.77.76 1.63 1.63 0 0 1-1.13 0l-.2-.09-.07.16a.8.8 0 0 0 0 .39.6.6 0 0 0 .38.33 1.6 1.6 0 0 0 .31.06 1.8 1.8 0 0 0 .68-.09.8.8 0 0 1 .37 0 .3.3 0 0 1 .1.06.26.26 0 0 1 .06.26.2.2 0 0 1-.06.1 1.2 1.2 0 0 1-.81.29 2.5 2.5 0 0 1-1-.07 1.6 1.6 0 0 1-.26-.11c-.48-.26-.59-.76-.36-1.5m1.79-1.13a1.7 1.7 0 0 0-.87.75l.18.09a1 1 0 0 0 .65 0 .74.74 0 0 0 .45-.45c.06-.21 0-.34-.1-.38a.47.47 0 0 0-.31-.01" style="fill:#263238"/><path d="m206.58 359.07 1.17-2.48.06-.12c.12-.21.26-.3.42-.25h.09c.11.07.14.21.07.41l-.06.15a1 1 0 0 1 0 .11 1 1 0 0 1 1-.26.7.7 0 0 1 .33.23.63.63 0 0 1 .09.56l-.08.23-.21.65a5 5 0 0 0-.26 1v.07c0 .23.08.37.22.41h.08a1.1 1.1 0 0 0 .41-.08.7.7 0 0 1 .4-.05.2.2 0 0 1 .1.06.27.27 0 0 1 0 .28.75.75 0 0 1-.47.32 1.4 1.4 0 0 1-.83 0 .8.8 0 0 1-.45-.32 2 2 0 0 1 0-1.66l.09-.27a3 3 0 0 0 .11-.33c.1-.29.11-.44 0-.47-.17 0-.47.25-.88.73a6 6 0 0 0-.79 1.09l-.05.11a.8.8 0 0 1-.16.24.38.38 0 0 1-.35.1.15.15 0 0 1-.09-.06.37.37 0 0 1 .04-.4" style="fill:#263238"/><path d="M212.48 360.76a.54.54 0 0 0 .48-.14 5 5 0 0 0 .87-1.14l.6-.94a.31.31 0 0 1 .36-.13l.16.07a1.72 1.72 0 0 1 .87 1 2.2 2.2 0 0 1 0 1.37 2 2 0 0 1-.74 1 .47.47 0 0 1-.41.09.26.26 0 0 1-.11-.08.3.3 0 0 1 0-.29.5.5 0 0 1 .05-.1l.07-.07a1.9 1.9 0 0 0 .6-.84v-.11a1.47 1.47 0 0 0-.12-1c-.11-.21-.22-.34-.35-.38s-.18.28-.35.56a8.5 8.5 0 0 1-.86 1.23 2 2 0 0 1-.2.19 1.24 1.24 0 0 1-1.23.21.87.87 0 0 1-.6-.75l-.13.07a1.23 1.23 0 0 1-.95.13.76.76 0 0 1-.4-.27 1.4 1.4 0 0 1 0-1.29 1.2 1.2 0 0 1 .11-.28 2.9 2.9 0 0 1 .82-1.08 1.28 1.28 0 0 1 1.24-.33 1.2 1.2 0 0 1 .38.2l1.06-2.21c0-.07.06-.12.09-.16.12-.19.25-.25.4-.21l.1.05c.1.07.13.2.06.4s-.2.45-.53 1.15c-.85 1.76-1.34 2.86-1.49 3.31a1.2 1.2 0 0 0 0 .31c-.09.28-.01.41.15.46m-1.11-.82a1.8 1.8 0 0 0 .26-.35 14 14 0 0 0 .71-1.39.47.47 0 0 0-.33-.14 1.18 1.18 0 0 0-.85.5 2.6 2.6 0 0 0-.57 1 1 1 0 0 0 0 .15c-.06.27 0 .42.12.47a.7.7 0 0 0 .33 0 1.2 1.2 0 0 0 .33-.24m-31.09-12.63a2.47 2.47 0 0 0-.08-1.45 2.34 2.34 0 0 0-.84-1.14 1.9 1.9 0 0 0-1.46-.28 2 2 0 0 0-.81.4 1.88 1.88 0 0 0-1.54-1.58 2.32 2.32 0 0 0-1.39.24 2.47 2.47 0 0 0-1.07 1 2.92 2.92 0 0 0-.33 1.81 4.14 4.14 0 0 0 .82 1.78c.66.87 1.53 2 1.53 2s1.26-.33 2.33-.5a4.15 4.15 0 0 0 1.83-.71 2.9 2.9 0 0 0 1.01-1.57m-28.37 12.09a3 3 0 0 1-.73-.1l-2.07-.39c-.9-.16-2-.39-3.27-.72s-2.71-.63-4.28-1.12l-2.47-.73c-.86-.25-1.73-.58-2.65-.88-1.84-.59-3.75-1.37-5.77-2.15a120 120 0 0 1-12.7-6.16 118 118 0 0 1-11.8-7.75c-1.71-1.34-3.36-2.58-4.81-3.86-.73-.63-1.45-1.21-2.11-1.82S98 332.53 97.36 332c-1.23-1.09-2.24-2.18-3.16-3.1s-1.69-1.74-2.29-2.43l-1.4-1.58a3 3 0 0 1-.46-.58 5 5 0 0 1 .54.51l1.46 1.51c.63.67 1.41 1.48 2.35 2.37s2 2 3.21 3l1.9 1.72c.67.6 1.4 1.17 2.13 1.79 1.46 1.26 3.11 2.49 4.82 3.8a124 124 0 0 0 11.77 7.69 125 125 0 0 0 12.62 6.16c2 .8 3.91 1.58 5.74 2.19.9.31 1.77.64 2.62.91l2.46.76c1.55.51 3 .85 4.25 1.19s2.34.61 3.23.81l2 .48a6 6 0 0 1 .76.2m32.01 97.26a5 5 0 0 1-.69 0l-2-.12c-.85 0-1.89-.13-3.09-.28s-2.58-.27-4.08-.54-3.16-.51-4.91-.9-3.61-.82-5.57-1.32a101.3 101.3 0 0 1-24.21-10c-1.73-1-3.4-2-4.88-3s-2.88-1.93-4.11-2.83-2.32-1.75-3.27-2.49-1.76-1.42-2.4-2l-1.47-1.29a4 4 0 0 1-.49-.48 2.6 2.6 0 0 1 .56.4l1.53 1.22c.66.54 1.47 1.19 2.44 1.91s2.05 1.57 3.31 2.42 2.61 1.83 4.13 2.77 3.15 1.93 4.89 2.94a106 106 0 0 0 24.13 9.93c1.95.5 3.79 1 5.54 1.36s3.38.69 4.88.95 2.86.44 4.06.62 2.23.29 3.07.37l2 .22a3 3 0 0 1 .63.14m11.77-156.73-.29-.08-.81-.29a8 8 0 0 1-1.27-.59 16 16 0 0 1-1.65-1 69.5 69.5 0 0 1-9.43-7.66c-3.79-3.45-8.1-7.78-13.18-12.26-2.54-2.22-5.35-4.4-8.22-6.71s-5.9-4.63-9.08-6.9a83 83 0 0 0-19.16-10.63 50.2 50.2 0 0 0-17.53-3.25 37.3 37.3 0 0 0-11.88 1.95l-1.78.67c-.51.2-.92.41-1.27.56l-.79.34a2 2 0 0 1-.27.11s.08-.06.25-.15l.76-.4c.34-.16.75-.39 1.26-.61l1.77-.71a36.2 36.2 0 0 1 11.94-2.12 49.6 49.6 0 0 1 17.71 3.16 82.7 82.7 0 0 1 19.3 10.66c3.18 2.28 6.2 4.62 9.08 6.92s5.68 4.5 8.23 6.75c5.07 4.52 9.36 8.87 13.11 12.35a75.4 75.4 0 0 0 9.29 7.76 18 18 0 0 0 1.61 1 12 12 0 0 0 1.24.63l.79.33a1 1 0 0 1 .27.17m-111.22 4.28a6.4 6.4 0 0 1-.26-1.19c-.14-.77-.29-1.9-.44-3.29a75 75 0 0 1-.35-11 76.6 76.6 0 0 1 1.21-10.88c.26-1.38.51-2.49.71-3.25a6 6 0 0 1 .35-1.17 5 5 0 0 1-.15 1.21c-.14.77-.33 1.89-.54 3.27a94 94 0 0 0-.86 21.74c.1 1.39.2 2.51.27 3.29a4.7 4.7 0 0 1 .06 1.27" style="fill:#263238"/><path d="M145.81 448.15c-.14 0-7.58-22.81-16.63-51s-16.27-51.16-16.13-51.21 7.58 22.81 16.63 51.05 16.32 51.11 16.13 51.16m-1.61 17.96c-.14 0-1.95-5.27-4-11.86s-3.67-12-3.53-12 1.94 5.26 4 11.86 3.66 11.96 3.53 12" style="fill:#263238"/><path d="M160.4 357c-8.72 8.14-52.34-12.6-69.81-32.08A22.3 22.3 0 0 0 97 337c8 7.79 16 13.76 25.33 21.16 11.3 9 23.66 17.33 37.75 20.54s29.43.06 39.28-10.51c-13.3-3.71-29.24-8.45-38.96-11.19" style="opacity:.30000000000000004"/><path d="M82.63 301.23c0 .09-.79-.24-2.07-.43a9.7 9.7 0 0 0-2.27-.07 11.3 11.3 0 0 0-2.71.59 11.6 11.6 0 0 0-2.46 1.27 9.7 9.7 0 0 0-1.71 1.49c-.87 1-1.24 1.7-1.32 1.65a4.7 4.7 0 0 1 1-1.89 9.4 9.4 0 0 1 1.71-1.65 10.2 10.2 0 0 1 5.42-1.94 9 9 0 0 1 2.36.19 4.64 4.64 0 0 1 2.05.79m88.22-17.8a15.3 15.3 0 0 0-3.29-2 16.3 16.3 0 0 0-10.32-.67c-4.37 1-8.93 4.06-12.88 8.43s-7.45 9.91-12 15.08a33.2 33.2 0 0 1-7.57 6.57 28 28 0 0 1-8.68 3.43 28.9 28.9 0 0 1-8.43.59l-1-.06-1-.13c-.63-.1-1.26-.17-1.86-.29a32 32 0 0 1-3.42-.89 27.6 27.6 0 0 1-9.35-5 18.5 18.5 0 0 1-2.12-2l-.52-.54a1.3 1.3 0 0 1-.16-.2s.07.05.2.16l.55.51a23 23 0 0 0 2.18 1.88 28.3 28.3 0 0 0 9.33 4.81 31 31 0 0 0 3.49.89c.59.11 1.21.17 1.84.26l.94.13 1 .05a28.7 28.7 0 0 0 8.29-.63 27.6 27.6 0 0 0 8.52-3.39 33.1 33.1 0 0 0 7.45-6.48c4.49-5.12 7.94-10.72 12-15.07s8.67-7.53 13.14-8.46a16.32 16.32 0 0 1 10.49.84 12 12 0 0 1 2.47 1.52l.56.5Zm-.85 52.2a2.6 2.6 0 0 1-.27.45c-.19.29-.45.73-.85 1.25a34.6 34.6 0 0 1-3.65 4.21 37.3 37.3 0 0 1-33.94 10A35 35 0 0 1 126 350c-.62-.22-1.08-.45-1.4-.58a3.4 3.4 0 0 1-.47-.24 15 15 0 0 1 1.93.63 41 41 0 0 0 5.35 1.38 38.08 38.08 0 0 0 33.59-9.92 42 42 0 0 0 3.75-4.06 17 17 0 0 1 1.25-1.58m-51.79 30.21a1 1 0 0 1-.26 0h-.75a11 11 0 0 0-1.23 0 13 13 0 0 0-1.66.09 19.6 19.6 0 0 0-9.8 3.76 18.9 18.9 0 0 0-4.93 5.31 13.4 13.4 0 0 0-2.15 7.91 7.36 7.36 0 0 0 1.57 4.02 6.3 6.3 0 0 0 3.85 2.32 5.36 5.36 0 0 0 4.35-1.44 7.28 7.28 0 0 0 2.25-4.28 13.92 13.92 0 0 0-2.38-9.37 19.5 19.5 0 0 0-6.7-6.26 22 22 0 0 0-7.88-2.73 26.7 26.7 0 0 0-7.31 0A35.6 35.6 0 0 0 75 368.23c-1.15.53-2 1-2.6 1.29l-.67.35c-.15.08-.23.12-.24.11l.21-.15.65-.4c.57-.34 1.42-.83 2.56-1.39a34.7 34.7 0 0 1 10.2-3.23 26.2 26.2 0 0 1 7.43-.07 22.4 22.4 0 0 1 8.06 2.75 20 20 0 0 1 6.89 6.39 14.4 14.4 0 0 1 2.46 9.73 7.7 7.7 0 0 1-2.42 4.58 5.82 5.82 0 0 1-4.76 1.57 6.76 6.76 0 0 1-4.16-2.51A7.9 7.9 0 0 1 97 382.9a13.83 13.83 0 0 1 2.27-8.18 19 19 0 0 1 5.07-5.41 19.55 19.55 0 0 1 10-3.67 14 14 0 0 1 1.69 0 8.4 8.4 0 0 1 1.23.08l.75.1a.7.7 0 0 1 .2.02m76.37 31.97-.3.22-.9.59a28 28 0 0 1-3.68 1.93 29.6 29.6 0 0 1-6.27 2 26.7 26.7 0 0 1-8.69.35 24.4 24.4 0 0 1-5-1.19 21.8 21.8 0 0 1-4.88-2.57 21.44 21.44 0 0 1-7.55-9.39 18 18 0 0 1-1.35-6.45 15 15 0 0 1 .32-3.41 13.53 13.53 0 0 1 3.28-6.18 10.5 10.5 0 0 1 2.87-2.23 8.15 8.15 0 0 1 3.57-1 7 7 0 0 1 3.64.94 8.55 8.55 0 0 1 3.93 6.1 10.72 10.72 0 0 1-1.11 7 12.8 12.8 0 0 1-5 4.72 19.4 19.4 0 0 1-6.27 2 24.4 24.4 0 0 1-6.26.14 35.4 35.4 0 0 1-5.81-1 48.5 48.5 0 0 1-9.85-3.8 97 97 0 0 1-12.89-8.16c-1.46-1.06-2.57-1.9-3.33-2.48l-.85-.66a2 2 0 0 1-.28-.24 1.5 1.5 0 0 1 .31.2l.89.62 3.37 2.4a104 104 0 0 0 13 8 49 49 0 0 0 9.78 3.72A36 36 0 0 0 155 391a24.4 24.4 0 0 0 6.14-.17 18.5 18.5 0 0 0 6.11-2 12.2 12.2 0 0 0 4.79-4.53 10.2 10.2 0 0 0 1.05-6.67 8 8 0 0 0-3.68-5.74 6.45 6.45 0 0 0-3.37-.87 7.6 7.6 0 0 0-3.34.89 11.67 11.67 0 0 0-4.71 4.91 12.7 12.7 0 0 0-1.19 3.15 14.6 14.6 0 0 0-.31 3.29 17.4 17.4 0 0 0 1.3 6.28 21.26 21.26 0 0 0 12.12 11.76 23.6 23.6 0 0 0 4.86 1.2 26.9 26.9 0 0 0 8.59-.26 30.8 30.8 0 0 0 6.24-1.9 33 33 0 0 0 3.7-1.83l.93-.55a1.5 1.5 0 0 1 .35-.15m-61.42 16.03a12 12 0 0 1-1.73 0h-2c-.77 0-1.68 0-2.67.1s-2.06.13-3.21.29-2.38.34-3.66.56a54.5 54.5 0 0 0-15.89 5.69c-1.13.65-2.22 1.25-3.19 1.89s-1.87 1.24-2.67 1.81-1.5 1.14-2.12 1.62-1.14.91-1.56 1.28a12 12 0 0 1-1.34 1.08 9 9 0 0 1 1.21-1.24c.39-.39.89-.85 1.5-1.35s1.28-1.1 2.09-1.68 1.67-1.25 2.66-1.88 2-1.28 3.19-1.95a52 52 0 0 1 16.07-5.73c1.3-.21 2.53-.43 3.7-.52s2.25-.19 3.25-.23 1.89 0 2.68 0a19 19 0 0 1 2 .09 11 11 0 0 1 1.69.17m68.57 14.43a3.5 3.5 0 0 1-.5.43c-.35.27-.84.69-1.53 1.16a48 48 0 0 1-6 3.68 51.5 51.5 0 0 1-45 1.24 48 48 0 0 1-6.2-3.33c-.71-.43-1.22-.83-1.58-1.07a4 4 0 0 1-.53-.41 2.5 2.5 0 0 1 .58.32c.38.22.92.58 1.64 1a57 57 0 0 0 6.24 3.17 52.54 52.54 0 0 0 44.69-1.24 55 55 0 0 0 6.06-3.52c.7-.44 1.21-.83 1.58-1.07a2.5 2.5 0 0 1 .55-.36m-57.17-166.91v.28l-.16.83a13 13 0 0 1-1.24 3c-1.37 2.49-4.4 5.45-8.84 7.85a51 51 0 0 1-7.53 3.35 24.8 24.8 0 0 1-9.34 1.46 15.52 15.52 0 0 1-9.67-3.79 12.1 12.1 0 0 1-3.12-4.62 10 10 0 0 1-.48-5.72 8.79 8.79 0 0 1 8.22-6.86 6.82 6.82 0 0 1 4.88 2.24 7.32 7.32 0 0 1 2 4.77 5.87 5.87 0 0 1-2.06 4.44 9.3 9.3 0 0 1-4.18 2 19.4 19.4 0 0 1-8.23-.24A28.3 28.3 0 0 1 94 265.48a19.7 19.7 0 0 1-3.27-2.9 1.6 1.6 0 0 1 .23.18l.62.56a30 30 0 0 0 2.54 2 28.8 28.8 0 0 0 10.72 4.68 19.2 19.2 0 0 0 8.06.17 8.7 8.7 0 0 0 4-1.92 5.44 5.44 0 0 0 1.88-4.1 6.87 6.87 0 0 0-1.87-4.43 6.32 6.32 0 0 0-4.52-2.07 8.31 8.31 0 0 0-7.72 6.47 9.63 9.63 0 0 0 .46 5.42 11.8 11.8 0 0 0 3 4.43 15.05 15.05 0 0 0 9.34 3.68 24.5 24.5 0 0 0 9.18-1.39 52 52 0 0 0 7.45-3.26c4.42-2.34 7.44-5.22 8.84-7.63a14.3 14.3 0 0 0 1.62-4.01M141 459.78a22 22 0 0 1-2.69.19 32.45 32.45 0 0 0-12.41 3.4 24 24 0 0 1-2.42 1.21 10 10 0 0 1 2.24-1.54 27 27 0 0 1 6.08-2.49 26.5 26.5 0 0 1 6.49-.95 10 10 0 0 1 2.71.18m38 4.5a7 7 0 0 1-1.28.3 35 35 0 0 1-3.54.48 47.06 47.06 0 0 1-23.07-3.81c-1.38-.62-2.47-1.17-3.2-1.59a6.3 6.3 0 0 1-1.11-.7 6 6 0 0 1 1.2.51c.76.37 1.87.87 3.25 1.44a51.8 51.8 0 0 0 22.9 3.78c1.5-.09 2.71-.2 3.54-.31a5.8 5.8 0 0 1 1.31-.1" style="fill:#fafafa"/><path d="M216.72 308.27s5.34-9.84 11-8.15 6.41 2.81 6.41 2.81 3.42-4.78 9.33-.28c0 0 6.74-4.5 13.2.28s5.9-3.57 9.27 1.17 10.12 16.25 9.28 29.46-5.81 56.6-5.81 56.6l-45.4 7.92s10.13-40.93 5.94-44.8c-8.41-7.75-12.22-24-12.22-24l-10-16s2-8.43 7.31-3.09a157 157 0 0 1 10.67 12.12l-1.12-11s-7.3 2.58-7.86-3.04" style="fill:#936754"/><path d="M224.18 306.65a8.9 8.9 0 0 1 .48 3 9.1 9.1 0 0 1 0 3.05 8.9 8.9 0 0 1-.48-3 9.1 9.1 0 0 1 0-3.05m14.82 9.57c-.15 0-.72-3.11-2.05-6.79s-2.88-6.47-2.74-6.54a6.7 6.7 0 0 1 1.15 1.75 32 32 0 0 1 2.08 4.62 32.4 32.4 0 0 1 1.34 4.88 7 7 0 0 1 .22 2.08m8.76-3.97a28.4 28.4 0 0 0-2-5.53 28 28 0 0 0-3.49-4.71 12.82 12.82 0 0 1 5.45 10.24Zm12.76-.7c-.15.05-.89-2.25-2.12-4.94s-2.44-4.77-2.31-4.85a23.26 23.26 0 0 1 4.43 9.79m-29.67 42.92a.8.8 0 0 1 0 .26v3.7a91 91 0 0 1-1 10.75 92.5 92.5 0 0 1-3.85 15.54c-1.9 5.73-4.45 11.85-6.87 18.35a101 101 0 0 0-5.13 18.82 54.9 54.9 0 0 0-.41 15.87 37.5 37.5 0 0 0 2.82 10.33 13 13 0 0 0 .71 1.53l.57 1.1c.13.28.25.5.34.69a2 2 0 0 1 .1.24 1 1 0 0 1-.15-.22l-.38-.66-.61-1.08a11 11 0 0 1-.76-1.52 36.2 36.2 0 0 1-3-10.36 54.4 54.4 0 0 1 .31-16 98.6 98.6 0 0 1 5.14-18.92c2.43-6.52 5-12.63 6.9-18.32a96 96 0 0 0 4-15.44 102 102 0 0 0 1.13-10.71c0-1.24.07-2.22.1-2.93v-.76a1 1 0 0 1 .04-.26" style="fill:#7c5142"/><path d="M309.19 314.1s14.21 49.68 17.06 66.28 15.59 59.67 41.66 51.14 30.83-30.39 29.88-54.08S383.93 298 383.93 298l-33.67 22.84-6-25.32Z" style="fill:#936754"/><path d="M314.21 248.44s-7.77-5.89-13.23 2.94c0 0-3.58-4.27-7.78-1s-.83 11.08-.83 11.08-4.73-.58-2.63 12c0 0-6 3.92-1.37 13 3.9 7.65 17.46 23.4 20.82 27.6l5 8.26L343.73 298s6.6-11.76 4.5-17.64a34 34 0 0 0-5-8.32 7.14 7.14 0 0 0-10.52-.92Z" style="fill:#936754"/><path d="M311.06 265c-.21.22-2.39-3-5.08-6.77-1.35-1.91-2.6-3.62-3.52-4.84a17 17 0 0 1-1.48-2 8.5 8.5 0 0 1 1.76 1.77c1 1.16 2.31 2.85 3.66 4.77s2.53 3.69 3.36 5Zm27.67 15.34c-.06.05-.49-.5-1.17-1.4s-1.63-2.12-2.63-3.52a19.7 19.7 0 0 1-3.12-5.39c.12-.06 1.5 2.34 3.54 5.09a28.7 28.7 0 0 1 3.38 5.22m-39.18-5.75a9.7 9.7 0 0 1-1.39-2 74 74 0 0 1-5.35-10.23 10.5 10.5 0 0 1-.82-2.26 11.6 11.6 0 0 1 1.15 2.1c.66 1.33 1.57 3.15 2.62 5.15s2 3.79 2.72 5.09a13 13 0 0 1 1.07 2.15m-4.69 11.91a9.8 9.8 0 0 1-.84-1.87c-.48-1.17-1.17-2.77-2-4.54a28 28 0 0 1-2.32-6.61 9.4 9.4 0 0 1 .85 1.87c.47 1.17 1.17 2.77 2 4.54a26.8 26.8 0 0 1 2.31 6.61" style="fill:#7c5142"/><path d="M384.92 372.74a.2.2 0 0 0 0 .08.68.68 0 0 1-.6.84 3.15 3.15 0 0 1-1.87-.23 5 5 0 0 1-1.24-.67l-.43.19c-.81.39-1.16.82-1.05 1.28a1 1 0 0 0 .29.48 2 2 0 0 0 1.15.45 1.1 1.1 0 0 1 0-.37.76.76 0 0 1 .61-.57.68.68 0 0 1 .81.5.7.7 0 0 1 0 .5.7.7 0 0 1-.51.41h-.15l.12.14a.55.55 0 0 1 .16.22.25.25 0 0 1 0 .12.21.21 0 0 1-.18.17.23.23 0 0 1-.18 0 1.16 1.16 0 0 1-.49-.59 3.2 3.2 0 0 1-1.21-.27 1.53 1.53 0 0 1-.93-1 1.52 1.52 0 0 1 .82-1.66 5.6 5.6 0 0 1 1.85-.77h.16a5.3 5.3 0 0 1 1.53-.07c.77.08 1.22.34 1.34.82m-2.8 2.16a.1.1 0 0 0 0-.07.17.17 0 0 0-.2-.08c-.14 0-.19.18-.16.42h.2c.14-.09.19-.17.16-.27m.4-2.43-.6.1a5 5 0 0 0 .69.34 2.73 2.73 0 0 0 1.56.25h.07a.23.23 0 0 0 .12-.24c-.06-.21-.24-.34-.54-.42a4.6 4.6 0 0 0-1.3-.03" style="fill:#263238"/><path d="M383.52 378.78a.29.29 0 0 1 .26.23 1 1 0 0 1 0 .16 1.52 1.52 0 0 1-.39 1.17 2 2 0 0 1-1.07.66 1.83 1.83 0 0 1-1.16-.08.42.42 0 0 1-.28-.27.24.24 0 0 1 0-.16.32.32 0 0 1 .18-.15h.2a1.74 1.74 0 0 0 .95.06h.11a1.3 1.3 0 0 0 .73-.59.58.58 0 0 0 .13-.45 2.2 2.2 0 0 1-.43 0 4.1 4.1 0 0 1-1.49-.46 2.47 2.47 0 0 1-1.4-1.61 1 1 0 0 1 0-.28c0-.47.34-.79 1-1l.27-.06a2.7 2.7 0 0 1 1.25.13 1.18 1.18 0 0 1 .85.81 1 1 0 0 1 0 .48.71.71 0 0 1-.54.5h-.1a1.19 1.19 0 0 1-1.11-.37 1.67 1.67 0 0 1-.42-.74v-.21h-.16a1 1 0 0 0-.21.08.45.45 0 0 0-.18.54 1.7 1.7 0 0 0 .18.41 2.64 2.64 0 0 0 1.56 1 4.7 4.7 0 0 0 1.27.2m-.86-1.86a.24.24 0 0 0-.09-.08 1.6 1.6 0 0 0-1-.28 1 1 0 0 0 0 .17 1 1 0 0 0 .33.52.69.69 0 0 0 .57.14h.05c.16-.06.23-.14.21-.25a.5.5 0 0 0-.07-.22m2.54 3.78c0 .14.06.27.09.38l1.2-.12h.21a.3.3 0 0 1 .32.23s0 0 0 .09-.09.21-.28.26-.5.06-1.32.13l.1.4a.4.4 0 0 1 0 .19.29.29 0 0 1-.21.19h-.13a.31.31 0 0 1-.22-.25l-.12-.47c-1.55.18-2.42.29-2.6.34a.8.8 0 0 0-.31.15.29.29 0 0 0-.12.42.9.9 0 0 0 .24.24.6.6 0 0 1 .23.28.3.3 0 0 1 0 .1.22.22 0 0 1-.18.19.62.62 0 0 1-.48-.19 1.24 1.24 0 0 1-.42-.66.79.79 0 0 1 .16-.69 1.43 1.43 0 0 1 .77-.44c.07 0 .93-.13 2.57-.32l-.08-.34a.25.25 0 0 1 .2-.32.23.23 0 0 1 .14 0 .28.28 0 0 1 .24.21m-.75 4.63c0 .15.07.29.1.41l1.64-.16c1.59-.15 2.46.13 2.64.82a1.3 1.3 0 0 1 0 .38.71.71 0 0 1-.61.58 3 3 0 0 1-.43.06A4 4 0 0 1 386 387a4.3 4.3 0 0 1-1-.65h-.27l.1.38a.4.4 0 0 1 0 .18.27.27 0 0 1-.21.2h-.14a.29.29 0 0 1-.21-.24l-.11-.47-1.28.13 1.06.86a.45.45 0 0 1 .19.26.14.14 0 0 1 0 .11.22.22 0 0 1-.16.16.55.55 0 0 1-.4-.13c-.28-.21-.79-.6-1.5-1.17l-1.3.13a1.06 1.06 0 0 1-.67-.14.91.91 0 0 1-.28-1.23.84.84 0 0 1 .52-.41.9.9 0 0 1 .55 0 1.7 1.7 0 0 1 .4.27l.91.74 1.79-.16-.09-.37v-.07a.25.25 0 0 1 .21-.31h.11c.11.02.19.11.23.26m-3.55.8.48-.05-.43-.34a.65.65 0 0 0-.46-.18.3.3 0 0 0-.12.06.23.23 0 0 0-.11.28.6.6 0 0 0 .05.12c.08.11.28.15.59.11m7.38.46c-.06-.21-.29-.35-.67-.41a6.2 6.2 0 0 0-1.6 0h-.25a4.4 4.4 0 0 0 .75.37 2.66 2.66 0 0 0 1.58.26h.07a.23.23 0 0 0 .12-.22m-3.65 3.64c-.21.14-.3.27-.27.41a1.1 1.1 0 0 0 .26.33.8.8 0 0 1 .24.32.17.17 0 0 1 0 .12.21.21 0 0 1-.15.14.7.7 0 0 1-.5-.19 1.25 1.25 0 0 1-.42-.66.72.72 0 0 1 0-.46c.13-.34.5-.58 1.11-.73l.38-.08a2.4 2.4 0 0 1 .48-.05 1.2 1.2 0 0 1-.26-.49s0-.05 0-.09v-.05l-.07-.08a.77.77 0 0 1-.24-.37.3.3 0 0 1 0-.1c0-.08.07-.14.15-.15a.24.24 0 0 1 .18.08l.06.05a.82.82 0 0 1 .54-.39.6.6 0 0 1 .33 0 .58.58 0 0 1 .43.47.7.7 0 0 1 0 .38.55.55 0 0 1-.41.4 1 1 0 0 1-.35 0l.17.13a.9.9 0 0 1 .29.36.4.4 0 0 1 0 .29.2.2 0 0 1-.1.08h-.12a4.5 4.5 0 0 0-1.17.08 2.5 2.5 0 0 0-.45.17Zm1.65-1.69h.05a.13.13 0 0 0 .06-.16v-.05a.14.14 0 0 0-.16-.07.33.33 0 0 0-.23.26.4.4 0 0 0 .28.02" style="fill:#263238"/><path d="M387 391.28a4 4 0 0 1-.48.08c-.73.11-1.18.18-1.35.23a.7.7 0 0 0-.31.15.32.32 0 0 0-.16.34v.07a1.1 1.1 0 0 0 .25.28.6.6 0 0 1 .24.29.2.2 0 0 1 0 .11.28.28 0 0 1-.18.16.68.68 0 0 1-.48-.2 1.24 1.24 0 0 1-.42-.67.76.76 0 0 1 .09-.59 1.6 1.6 0 0 1 1-.58 9 9 0 0 1 1-.14l.52-.06h.07q.39 0 .45.21s0 .05 0 .08-.03.2-.24.24m.88-.66a.22.22 0 0 1 .14 0 .26.26 0 0 1 .21.2.3.3 0 0 1 0 .14.28.28 0 0 1-.21.21h-.14a.26.26 0 0 1-.2-.21.3.3 0 0 1 0-.14.26.26 0 0 1 .22-.2Z" style="fill:#263238"/><path d="m385.46 392.54.27-.05a2.6 2.6 0 0 1 1.25.12 1.16 1.16 0 0 1 .85.81.8.8 0 0 1 0 .3.67.67 0 0 1-.58.67h-.08a1.23 1.23 0 0 1-1-.24 1.5 1.5 0 0 1-.57-.86.8.8 0 0 1 0-.21h-.16a.64.64 0 0 0-.32.15.56.56 0 0 0-.07.47.8.8 0 0 0 .1.26 2 2 0 0 0 .4.5.57.57 0 0 1 .21.26.2.2 0 0 1 0 .11.24.24 0 0 1-.18.17h-.1c-.18 0-.39-.19-.61-.49a2.1 2.1 0 0 1-.41-.78 1.3 1.3 0 0 1 0-.26c-.03-.47.3-.76 1-.93m1.74.85a1.66 1.66 0 0 0-1-.32 1 1 0 0 0 0 .19.8.8 0 0 0 .33.49.64.64 0 0 0 .57.14c.19-.05.28-.14.25-.26a.54.54 0 0 0-.15-.24m-1.93 1.67 2.5-.28h.13c.23 0 .36.07.39.22a.2.2 0 0 1 0 .08c0 .12-.1.21-.29.26h-.25a.91.91 0 0 1 .69.67.6.6 0 0 1 0 .37.54.54 0 0 1-.39.34l-.22.05-.61.14a4 4 0 0 0-.89.28h-.06c-.18.12-.25.24-.22.37v.08a.9.9 0 0 0 .26.27.74.74 0 0 1 .23.3.17.17 0 0 1 0 .1.24.24 0 0 1-.2.17.7.7 0 0 1-.48-.21 1.37 1.37 0 0 1-.41-.64.83.83 0 0 1 0-.52c.15-.32.59-.57 1.32-.76l.26-.05.31-.07c.27-.07.4-.13.39-.2-.08-.13-.42-.24-1-.34a6 6 0 0 0-1.23-.09h-.11a.6.6 0 0 1-.27 0 .31.31 0 0 1-.24-.23.3.3 0 0 1 0-.09.38.38 0 0 1 .39-.22" style="fill:#263238"/><path d="M386.79 400.5a.49.49 0 0 0 .35.3 4.3 4.3 0 0 0 1.31.13h1a.3.3 0 0 1 .27.22 1 1 0 0 1 0 .16 1.54 1.54 0 0 1-.39 1.18 2 2 0 0 1-1.07.65 1.76 1.76 0 0 1-1.16-.07.41.41 0 0 1-.26-.27.2.2 0 0 1 0-.13.28.28 0 0 1 .2-.17h.2a1.85 1.85 0 0 0 1 .07h.1a1.4 1.4 0 0 0 .73-.58.73.73 0 0 0 .13-.47h-.61a8 8 0 0 1-1.38-.09.8.8 0 0 1-.24-.06 1.15 1.15 0 0 1-.76-.86.78.78 0 0 1 .3-.83l-.13-.07a1.14 1.14 0 0 1-.55-.68.66.66 0 0 1 0-.44c.11-.31.44-.53 1-.66l.28-.05a2.7 2.7 0 0 1 1.24.12 1.18 1.18 0 0 1 .85.81.9.9 0 0 1 0 .4l2.25-.23h.16c.2 0 .32.07.35.21a.4.4 0 0 1 0 .1c0 .12-.1.2-.28.24s-.46.06-1.16.14a31 31 0 0 0-3.31.44.8.8 0 0 0-.27.11.37.37 0 0 0-.15.38m.11-1.27a1.2 1.2 0 0 0 .4 0 10 10 0 0 0 1.43-.11.3.3 0 0 0 0-.19.7.7 0 0 0-.05-.13 1.1 1.1 0 0 0-.8-.43 2.4 2.4 0 0 0-1 0h-.13c-.24.08-.34.19-.31.32a.53.53 0 0 0 .19.24 1.1 1.1 0 0 0 .27.3m-5.11-30.41a2.15 2.15 0 0 0 1.09-.76 2.07 2.07 0 0 0 .49-1.21 1.76 1.76 0 0 0-.48-1.27 1.8 1.8 0 0 0-.71-.44 1.6 1.6 0 0 0 .46-.6 1.74 1.74 0 0 0 0-1.36 2.32 2.32 0 0 0-2.14-1.34 2.7 2.7 0 0 0-1.58.61 3.8 3.8 0 0 0-1 1.5c-.37.93-.82 2.15-.82 2.15s.87.82 1.52 1.58a3.9 3.9 0 0 0 1.43 1.09 2.64 2.64 0 0 0 1.74.05m-11.14-49.26s.05-.13.2-.33a5 5 0 0 1 .8-.78 5.4 5.4 0 0 1 3.76-1 5.06 5.06 0 0 1 2.54 1 6 6 0 0 1 1.94 2.58 6.24 6.24 0 0 1 .3 3.68 6.64 6.64 0 0 1-2 3.39 5.35 5.35 0 0 1-6.8.44 5.85 5.85 0 0 1-2.48-5.34 6.32 6.32 0 0 1 1.77-3.73 3.6 3.6 0 0 1 .87-.67.8.8 0 0 1 .35-.13 10 10 0 0 0-1.06 1 6.32 6.32 0 0 0-1.52 3.58 5.44 5.44 0 0 0 2.37 4.84 5.1 5.1 0 0 0 3 .88 5 5 0 0 0 3.14-1.32 6 6 0 0 0 1.84-3 5.64 5.64 0 0 0-.24-3.32 5.5 5.5 0 0 0-1.72-2.38 4.7 4.7 0 0 0-2.32-.95 5.25 5.25 0 0 0-3.58.8c-.81.36-1.12.8-1.16.76" style="fill:#263238"/><path d="M376.8 328.58a14 14 0 0 1-.54-1.6 8.4 8.4 0 0 0-2.1-3.25 7.9 7.9 0 0 0-3.29-1.82 9.7 9.7 0 0 1-1.57-.37 2.9 2.9 0 0 1 1.66-.06 6.85 6.85 0 0 1 3.59 1.78 7.6 7.6 0 0 1 2.11 3.57 3.26 3.26 0 0 1 .14 1.75" style="fill:#263238"/><path d="M374.79 324.21c-.14.08-.65-1.54 0-3.46s2-2.89 2.05-2.75a24 24 0 0 0-1.5 2.94 24 24 0 0 0-.55 3.27M389.5 343s.11.06.29.24a4.4 4.4 0 0 1 .61.91 6.4 6.4 0 0 1-.8 6.7 6.07 6.07 0 0 1-2.66 1.85 5.16 5.16 0 0 1-3.47 0 5.74 5.74 0 0 1-2.88-2.43 6.16 6.16 0 0 1-.87-3.83 6.7 6.7 0 0 1 1.39-3.43 5.49 5.49 0 0 1 5.32-2.21 5.34 5.34 0 0 1 3.22 2.18 3.6 3.6 0 0 1 .51 1 .85.85 0 0 1 .07.38 7 7 0 0 0-.76-1.21 5.3 5.3 0 0 0-3.12-1.89 5.1 5.1 0 0 0-4.83 2.12 6.2 6.2 0 0 0-1.23 3.12 5.53 5.53 0 0 0 .8 3.44 5.13 5.13 0 0 0 2.58 2.2 4.64 4.64 0 0 0 3.12 0 5.5 5.5 0 0 0 2.45-1.64 5.8 5.8 0 0 0 1.21-2.38 6.2 6.2 0 0 0-.26-3.87 12 12 0 0 0-.69-1.25" style="fill:#263238"/><path d="M380.26 348.8a12 12 0 0 1 1.57-.44 8.46 8.46 0 0 0 3.31-2 9.1 9.1 0 0 0 2.14-3.35 14 14 0 0 1 .56-1.63 3.27 3.27 0 0 1-.17 1.76 8.1 8.1 0 0 1-2.14 3.67 7.3 7.3 0 0 1-3.61 1.95c-1.02.24-1.66.12-1.66.04" style="fill:#263238"/><path d="M384.6 347a3.65 3.65 0 0 1 3.23.27 3.92 3.92 0 0 1 2.28 2.4c-.14.11-1-1.1-2.53-1.83s-2.97-.64-2.98-.84m-10.99-6.64s-.41 0-1-.47a4.36 4.36 0 0 1-1.52-2.66 4.82 4.82 0 0 1 1.46-4.41 4.22 4.22 0 0 1 2.47-1.18 4.16 4.16 0 0 1 2.77.73 4.4 4.4 0 0 1 1.75 2.38 5.2 5.2 0 0 1 0 2.85 4.52 4.52 0 0 1-3.15 3.29 3.94 3.94 0 0 1-2.92-.45c-.61-.37-.81-.76-.78-.78a6 6 0 0 0 .89.56 4 4 0 0 0 2.72.25 4.17 4.17 0 0 0 2.73-3 4.66 4.66 0 0 0 0-2.51 3.84 3.84 0 0 0-1.52-2.05 3.57 3.57 0 0 0-4.57.35 4.48 4.48 0 0 0-.14 6.45c.47.46.83.6.81.65" style="fill:#263238"/><path d="M378.43 333.34a10.1 10.1 0 0 0-2.67 3.29 10.6 10.6 0 0 0-.52 4.27c-.07 0-.32-.42-.44-1.25a6.2 6.2 0 0 1 .43-3.26 6 6 0 0 1 2-2.54c.69-.47 1.17-.58 1.2-.51" style="fill:#263238"/><path d="M375.89 336c.1.13-.89 1-2.34.95s-2.4-.84-2.29-1 1 .36 2.3.35 2.25-.46 2.33-.3m2.58-8.84c0-.05.3.12.83.3a4.4 4.4 0 0 0 2.31.08 5 5 0 0 0 2.9-1.87 6.85 6.85 0 0 0 1.28-4.22 7.7 7.7 0 0 0-.23-1.76l.32.21a8.5 8.5 0 0 0-5.38 3.89 19.5 19.5 0 0 0-1.21 2.62 2.3 2.3 0 0 1 .09-.79 8 8 0 0 1 .8-2 8.5 8.5 0 0 1 5.61-4.28l.25-.06.07.27a8 8 0 0 1 .27 1.92 7.34 7.34 0 0 1-1.46 4.59 5.24 5.24 0 0 1-3.25 2 4.2 4.2 0 0 1-2.46-.28c-.53-.35-.76-.6-.74-.62" style="fill:#263238"/><path d="M384.43 322.42a9.7 9.7 0 0 1-2.7 2.76 9 9 0 0 1-3.26 1.92 18.7 18.7 0 0 1 2.93-2.42c1.6-1.28 2.92-2.39 3.03-2.26m-8.88 6.43a2.3 2.3 0 0 1-.44.73 6.9 6.9 0 0 1-1.72 1.5 6.75 6.75 0 0 1-3.16 1 6.47 6.47 0 0 1-3.86-1.07 7 7 0 0 1-2.2-2.34l-.12-.21.17-.17a5.34 5.34 0 0 1 4.91-1.37 3.1 3.1 0 0 1 1.77.95 11.6 11.6 0 0 0-1.84-.58 5.23 5.23 0 0 0-4.47 1.43l.05-.37a6.7 6.7 0 0 0 2.05 2.12 6.27 6.27 0 0 0 3.53 1 6.8 6.8 0 0 0 3-.82 13.4 13.4 0 0 0 2.33-1.8" style="fill:#263238"/><path d="M367.58 329.9a7.8 7.8 0 0 1 3.68-1c2.1-.2 3.77.16 3.75.32s-1.69.11-3.72.3-3.67.56-3.71.38m-2.78 27.38s-.05-.13-.08-.39a5 5 0 0 1 0-1.14 8.07 8.07 0 0 1 1.63-3.87 14.65 14.65 0 0 1 4.69-3.83 40.5 40.5 0 0 0 6.16-3.75 9.9 9.9 0 0 0 2.39-2.84 10 10 0 0 0 1.11-3.34 11.3 11.3 0 0 0-.71-5.87 14 14 0 0 0-2-3.42 11 11 0 0 1-.92-1.14 4.9 4.9 0 0 1 1.09 1 12.7 12.7 0 0 1 2.21 3.41 11.4 11.4 0 0 1 .86 6.13 10.7 10.7 0 0 1-1.14 3.56 10.5 10.5 0 0 1-2.54 3 38 38 0 0 1-6.27 3.78 14.5 14.5 0 0 0-4.62 3.59 8.35 8.35 0 0 0-1.72 3.63c-.16.94-.08 1.49-.14 1.49" style="fill:#263238"/><path d="M381 335.83c-.16 0-.26-.75-.82-1.36s-1.23-.79-1.22-1 .2-.17.54-.12a1.93 1.93 0 0 1 1.11.64 2.14 2.14 0 0 1 .53 1.23c0 .4-.09.61-.14.61m6.25.66c0 .18-1.42-.08-3.07.27s-2.88 1.1-3 .94 1.07-1.2 2.88-1.56 3.25.2 3.19.35" style="fill:#263238"/><path d="M380.81 338.18a30 30 0 0 1 3.19.18 11.6 11.6 0 0 0 3.4-.3 7 7 0 0 0 3.56-2.14v.45l-.1-.08a7.66 7.66 0 0 0-3.77-1.67 7.5 7.5 0 0 0-3.39.32 14 14 0 0 0-2.9 1.51s.18-.29.63-.68a7.8 7.8 0 0 1 2.15-1.25 7.5 7.5 0 0 1 3.59-.47 7.76 7.76 0 0 1 4.06 1.75l.1.08.24.2-.21.25a7.18 7.18 0 0 1-3.89 2.28 10.7 10.7 0 0 1-3.54.19 20 20 0 0 1-2.33-.37c-.51-.12-.8-.21-.79-.25m-9.2 9.12s-.27 0-.73-.13a6.5 6.5 0 0 1-1.81-1 8.25 8.25 0 0 1-3.17-6.17v-.28h.26a5 5 0 0 1 .81-.09 5.38 5.38 0 0 1 3.82 1.47 5.58 5.58 0 0 1 1.65 3.06 5.9 5.9 0 0 1 0 2.4 1.85 1.85 0 0 1-.3.82 9.4 9.4 0 0 0-.09-3.11 5.36 5.36 0 0 0-1.6-2.73 5.1 5.1 0 0 0-3.47-1.29 6 6 0 0 0-.73.08l.25-.33a8.27 8.27 0 0 0 2.84 5.94 14.5 14.5 0 0 0 2.27 1.36" style="fill:#263238"/><path d="M372 347.52c-.09 0-.18-.36-.44-.89a9.3 9.3 0 0 0-1.31-1.88 11.2 11.2 0 0 1-1.42-1.94c-.3-.56-.36-1-.29-1s.27.29.64.76.91 1.06 1.52 1.77a6.3 6.3 0 0 1 1.24 2.12c.2.63.14 1.05.06 1.06m8.67 1.62c0 .16-1.78.57-3.85-.15a5.54 5.54 0 0 1-3.18-2.24c.12-.15 1.42 1 3.37 1.64s3.65.61 3.66.75m-10.48.58s.29 0 .76.24a5.9 5.9 0 0 1 1.78 1.32 7 7 0 0 1 1.64 3 7.85 7.85 0 0 1-.13 4.36l-.07.23H374a5.4 5.4 0 0 1-1-.12 6 6 0 0 1-3.66-2.52 6.36 6.36 0 0 1-1-3.66 6.7 6.7 0 0 1 .54-2.53c.26-.55.47-.81.5-.79a9.2 9.2 0 0 0-.63 3.31 6.14 6.14 0 0 0 1.06 3.32 5.62 5.62 0 0 0 3.35 2.26 5.3 5.3 0 0 0 .87.11l-.3.22a7.6 7.6 0 0 0 .17-4 7 7 0 0 0-1.42-2.86 11 11 0 0 0-2.29-1.89" style="fill:#263238"/><path d="M372.28 356.39c-.1.12-1.36-1.16-2-3.3a6.4 6.4 0 0 1-.16-4c.17 0 .11 1.77.72 3.76s1.57 3.42 1.44 3.54m-6.17-4.23a2.6 2.6 0 0 1-2.14-.35 4.1 4.1 0 0 1-1.72-1.79 4.87 4.87 0 0 1-.4-3.15 3 3 0 0 1 .1-.41l.06-.26h.26a4.71 4.71 0 0 1 3.8 3.3 3.45 3.45 0 0 1 .1 2.2 15 15 0 0 0-.48-2 4.48 4.48 0 0 0-3.51-2.84l.32-.23a4 4 0 0 0-.08.35 4.45 4.45 0 0 0 .31 2.76 3.9 3.9 0 0 0 1.44 1.68 8 8 0 0 0 1.94.74m11.78-.04c0-.06.45-.08 1 .36a1.54 1.54 0 0 1 .56 1.24 1.36 1.36 0 0 1-1.18 1.25 1.28 1.28 0 0 1-1.34-1 1.56 1.56 0 0 1 .21-1.38c.49-.65 1-.61 1-.54s-.38.24-.66.77a1.11 1.11 0 0 0 0 .93.8.8 0 0 0 .79.55.79.79 0 0 0 .69-.66 1.17 1.17 0 0 0-.3-.88c-.41-.38-.82-.55-.77-.64m-11.46-5.05c0-.07.25-.2.73-.13a.89.89 0 0 1 .69.62.81.81 0 0 1-.07.7.76.76 0 0 1-.64.36 1 1 0 0 1-.9-.73 1.16 1.16 0 0 1 .05-1 .63.63 0 0 1 .56-.33c.15 0 .2.1.19.13s-.29.1-.38.4a.75.75 0 0 0 .07.53c.1.2.27.36.42.35.32 0 .21-.52-.12-.64s-.61-.16-.6-.26m1.72-12.01c-.07-.06.28-.37.74 0a.84.84 0 0 1 .23 1 1 1 0 0 1-1 .61 1 1 0 0 1-.76-.88 1 1 0 0 1 .35-.9c.42-.34.75-.19.73-.12s-.25.15-.44.43a.6.6 0 0 0-.11.48.47.47 0 0 0 .35.37.42.42 0 0 0 .41-.23.35.35 0 0 0 0-.4c-.22-.32-.47-.29-.5-.36m14.96-5.89c0 .09-.18.25-.21.6s.18.75.63.59a.53.53 0 0 0 .22-.88c-.2-.27-.45-.28-.46-.37s.31-.28.74 0a1 1 0 0 1 .4.85 1.1 1.1 0 0 1-.74 1 .94.94 0 0 1-1.09-.34 1.12 1.12 0 0 1-.1-1c.21-.49.61-.53.61-.45m7.59 10.52c0-.07.26-.24.65 0a.86.86 0 0 1 .36.75 1 1 0 0 1-.63.88.8.8 0 0 1-.94-.45.76.76 0 0 1 .19-.89c.42-.32.73 0 .66 0s-.24.07-.37.29a.25.25 0 0 0 0 .3.3.3 0 0 0 .31.13.41.41 0 0 0 .24-.32.45.45 0 0 0-.09-.37c-.16-.19-.38-.24-.38-.32m-8.86-23.84c0 .09-.27 0-.51.27s-.33.64.07.82.63-.17.62-.52-.2-.48-.17-.56.4-.07.57.46a1.05 1.05 0 0 1-.16.94.91.91 0 0 1-1.1.26 1 1 0 0 1-.58-1 1 1 0 0 1 .55-.76c.48-.25.77.04.71.09m-5.73-1.32a17 17 0 0 0 2.13-2 8.54 8.54 0 0 0 1.76-6.65l.36.24-.31.1a6.2 6.2 0 0 0-3 2.36 6.7 6.7 0 0 0-1.07 3.06 11 11 0 0 0 .3 3s-.2-.23-.38-.74a6.3 6.3 0 0 1-.33-2.32 6.83 6.83 0 0 1 1-3.36 6.55 6.55 0 0 1 3.26-2.63l.34-.11.3-.1.06.34a8.76 8.76 0 0 1-.36 4.15 8 8 0 0 1-1.69 2.91 7 7 0 0 1-1.69 1.39c-.4.31-.67.39-.68.36" style="fill:#263238"/><path d="M378.67 308.08a29 29 0 0 0-1.46 2.9c-.58 1.68-.43 3.16-.61 3.19s-.58-1.52.07-3.39 1.92-2.84 2-2.7m4.15 46.98s.18-.36.78-.56a2.84 2.84 0 0 1 2.45.51 9.3 9.3 0 0 1 2.61 2.73 10 10 0 0 1 1 2.07A10 10 0 0 1 390 361a2.9 2.9 0 0 1 0 1.38 1.36 1.36 0 0 1-.41.71 1.06 1.06 0 0 1-.74.25 4.7 4.7 0 0 1-1.18-.34 7.6 7.6 0 0 1-1.9-1.18 8.45 8.45 0 0 1-2.3-3 8 8 0 0 1-.69-2.54 2.4 2.4 0 0 1 0-1 14.2 14.2 0 0 0 1 3.31 8.6 8.6 0 0 0 2.27 2.79 7.5 7.5 0 0 0 1.78 1.07 4 4 0 0 0 1 .29c.28 0 .46-.15.55-.48a4.8 4.8 0 0 0-.36-2.2 11 11 0 0 0-.93-2 9.6 9.6 0 0 0-2.4-2.69 2.74 2.74 0 0 0-2.16-.65 4 4 0 0 0-.71.34" style="fill:#263238"/><path d="M388.2 360.3c-.1.13-1.44-.89-2.85-2.44a9.8 9.8 0 0 1-2.22-3.1c.13-.11 1.25 1.14 2.64 2.66s2.54 2.74 2.43 2.88" style="fill:#263238"/><path d="M370.82 390.16a2 2 0 0 1-.08-.23c-.06-.19-.13-.42-.21-.7-.19-.67-.44-1.57-.77-2.72-.66-2.4-1.61-5.81-2.77-10-2.36-8.43-5.79-20-9.63-32.83s-7.22-24.43-9.49-32.89c-1.14-4.23-2-7.66-2.62-10-.28-1.15-.5-2.07-.66-2.74l-.16-.71a.7.7 0 0 1 0-.25 1 1 0 0 1 .09.24c0 .18.12.41.21.7.18.66.44 1.57.76 2.71l2.77 10c2.36 8.44 5.79 20 9.64 32.84s7.21 24.42 9.49 32.88c1.13 4.23 2 7.66 2.61 10 .28 1.16.5 2.07.67 2.74.06.29.11.52.16.72a.7.7 0 0 1-.01.24" style="fill:#7c5142"/><path d="M461.18 467.85c0 .15-95.9.26-214.17.26s-214.19-.11-214.19-.26 95.88-.26 214.19-.26 214.17.12 214.17.26m-40.56-36.39a6 6 0 0 1 .26-.61l.83-1.77a45 45 0 0 0 2.44-7.08c1.61-6.29 2.17-15.9-.21-27.32a147 147 0 0 0-5.07-18.35c-2.14-6.51-4.64-13.42-6.67-20.89s-3.6-15.54-3.29-24 2.82-17 5.59-25.42 5.61-16.72 6.47-25a38.15 38.15 0 0 0-4.59-23.12c-3.66-6.75-8.27-12.52-11.72-18.49a64.4 64.4 0 0 1-7-17.78 66.2 66.2 0 0 1-.45-27.54 51 51 0 0 1 2.88-9.73 7 7 0 0 1-.17.65c-.15.46-.34 1.07-.59 1.86a73 73 0 0 0-1.78 7.28 67 67 0 0 0 .71 27.34 64.2 64.2 0 0 0 7.03 17.51c3.44 5.91 8.07 11.65 11.8 18.48a38.88 38.88 0 0 1 4.73 23.59c-.86 8.45-3.73 16.77-6.49 25.22s-5.25 16.83-5.57 25.18 1.24 16.34 3.24 23.76 4.46 14.34 6.58 20.87a147 147 0 0 1 5 18.47c2.32 11.5 1.65 21.21-.07 27.52a41 41 0 0 1-2.61 7.06c-.38.74-.69 1.31-.91 1.74a2.7 2.7 0 0 1-.37.57" style="fill:#263238"/><path d="M409.34 245.24s-7-22.38 5.56-35.49a.77.77 0 0 1 1.33.38c.67 3.7 1.51 14.96-6.89 35.11" style="fill:#ff725e"/><path d="M413.54 217.21a20.4 20.4 0 0 1-.47 4.13c-.46 2.84-1 6.18-1.6 9.87s-1.12 7-1.57 9.88a22 22 0 0 1-.74 4.08 17.6 17.6 0 0 1 .13-4.16c.23-2.56.68-6.08 1.31-9.94s1.31-7.34 1.86-9.85a18 18 0 0 1 1.08-4.01" style="fill:#263238"/><path d="M417.57 298.05s4.28-23.07 21.51-28.78a.78.78 0 0 1 1 1c-1.14 3.54-5.66 13.89-22.51 27.78" style="fill:#ff725e"/><path d="M434.39 275.23a21.5 21.5 0 0 1-2.35 3.43l-6 8-6 8a23 23 0 0 1-2.57 3.27 17 17 0 0 1 2.06-3.62c1.4-2.15 3.44-5 5.81-8.17s4.59-5.88 6.24-7.84a18 18 0 0 1 2.81-3.07" style="fill:#263238"/><path d="M412.91 355.9s-2.6-23.31 12.23-33.78a.77.77 0 0 1 1.23.63c-.04 3.76-1.37 14.97-13.46 33.15" style="fill:#ff725e"/><path d="M422.38 329.18a21 21 0 0 1-1.25 4c-1 2.7-2.16 5.88-3.45 9.39l-3.43 9.39a23.7 23.7 0 0 1-1.5 3.87 17 17 0 0 1 .91-4.06c.72-2.47 1.83-5.84 3.19-9.51s2.68-7 3.7-9.31a19.3 19.3 0 0 1 1.83-3.77" style="fill:#263238"/><path d="M425.89 414.1s-1.76-23.39 13.43-33.32a.77.77 0 0 1 1.21.67c-.18 3.75-1.91 14.91-14.64 32.65" style="fill:#ff725e"/><path d="M436.31 387.74a21 21 0 0 1-1.39 3.91l-3.79 9.26-3.75 9.27a23 23 0 0 1-1.65 3.81 17.3 17.3 0 0 1 1.06-4c.81-2.44 2-5.76 3.53-9.38s2.93-6.86 4-9.18a18.8 18.8 0 0 1 1.99-3.69" style="fill:#263238"/><path d="M399.28 225.57s-20.79-10.86-21.2-29a.78.78 0 0 1 1.22-.67c3.09 2.1 11.7 9.49 19.98 29.67" style="fill:#ff725e"/><path d="M382.4 202.8a21 21 0 0 1 2.59 3.25l5.86 8.11 5.88 8.08a22.7 22.7 0 0 1 2.37 3.41 17.4 17.4 0 0 1-2.85-3c-1.65-2-3.82-4.77-6.11-8s-4.27-6.11-5.66-8.27a18.3 18.3 0 0 1-2.08-3.58" style="fill:#263238"/><path d="M421.61 273.65s-21.41-9.57-22.92-27.65a.78.78 0 0 1 1.17-.75c3.21 1.94 12.21 8.75 21.75 28.4" style="fill:#ff725e"/><path d="M403.38 252a21 21 0 0 1 2.78 3.09c1.83 2.22 4 4.84 6.34 7.73l6.36 7.71a22.4 22.4 0 0 1 2.58 3.26 16.8 16.8 0 0 1-3-2.85c-1.76-1.86-4.1-4.53-6.58-7.56s-4.63-5.84-6.15-7.91a18.2 18.2 0 0 1-2.33-3.47" style="fill:#263238"/><path d="M409.29 327.28s-14.7-18.27-7.81-35.07a.77.77 0 0 1 1.38-.12c1.98 3.19 6.88 13.37 6.43 35.19" style="fill:#ff725e"/><path d="M402.94 299.66a20 20 0 0 1 1.07 4c.61 2.82 1.33 6.12 2.13 9.78s1.53 6.95 2.15 9.76a21.3 21.3 0 0 1 .8 4.07 17 17 0 0 1-1.4-3.91c-.72-2.47-1.59-5.91-2.41-9.74s-1.47-7.31-1.88-9.84a19 19 0 0 1-.46-4.12" style="fill:#263238"/><path d="M423.85 390.4s-21.25-9.94-22.45-28a.77.77 0 0 1 1.18-.72c3.18 1.94 12.06 8.92 21.27 28.72" style="fill:#ff725e"/><path d="M406 368.39a22 22 0 0 1 2.73 3.13l6.21 7.84 6.23 7.82a23.7 23.7 0 0 1 2.52 3.3 16.8 16.8 0 0 1-3-2.9c-1.73-1.89-4-4.6-6.45-7.67s-4.54-5.92-6-8a18.6 18.6 0 0 1-2.24-3.52m60.18-70.22a1.8 1.8 0 0 1 0 .52v1.5c-.06 1.41-.15 3.31-.25 5.69-.28 5-.66 12-1.12 20.31v.05c-1.52 8.48-5.84 17.89-11.65 27-4.26 6.72-8.72 12.84-12.57 18.53a130 130 0 0 0-9.43 15.59 65.4 65.4 0 0 0-4.41 11.43c-.38 1.4-.66 2.5-.82 3.24a5.3 5.3 0 0 1-.31 1.13 6 6 0 0 1 .14-1.16c.1-.76.33-1.87.66-3.29a60.4 60.4 0 0 1 4.18-11.63 124 124 0 0 1 9.32-15.76c3.82-5.73 8.26-11.86 12.5-18.55 5.77-9.09 10.07-18.36 11.65-26.71v.05c.59-8.33 1.08-15.3 1.43-20.29.19-2.37.34-4.27.46-5.68.06-.59.11-1.08.15-1.49a1.7 1.7 0 0 1 .07-.48" style="fill:#263238"/><path d="M453.53 351.52s9-21.66-2.33-35.85a.77.77 0 0 0-1.36.26c-1 3.62-2.84 14.76 3.69 35.59" style="fill:#ff725e"/><path d="M451.89 323.22a19 19 0 0 1 .71 4.1c.32 2.54.67 6.07.95 10s.42 7.45.42 10a17 17 0 0 1-.26 4.16 24 24 0 0 1-.36-4.14c-.2-2.88-.42-6.25-.67-10s-.5-7.1-.7-10a20.2 20.2 0 0 1-.09-4.12" style="fill:#263238"/><path d="M453.53 351.52s9-21.66-2.33-35.85a.77.77 0 0 0-1.36.26c-1 3.62-2.84 14.76 3.69 35.59" style="opacity:.30000000000000004"/><path d="M425.65 403.72s7.21-22.32-5.22-35.55a.77.77 0 0 0-1.33.38c-.71 3.69-1.65 14.94 6.55 35.17" style="fill:#ff725e"/><path d="M421.72 375.65a18.5 18.5 0 0 1 1 4c.52 2.51 1.16 6 1.76 9.87s1 7.39 1.22 9.95a18 18 0 0 1 .09 4.16 22 22 0 0 1-.71-4.09c-.42-2.85-.92-6.2-1.47-9.89s-1.07-7-1.5-9.89a20.6 20.6 0 0 1-.39-4.11" style="fill:#263238"/><path d="M425.65 403.72s7.21-22.32-5.22-35.55a.77.77 0 0 0-1.33.38c-.71 3.69-1.65 14.94 6.55 35.17" style="opacity:.30000000000000004"/><path d="M465 325.05s19.21-13.46 17.27-31.51A.77.77 0 0 0 481 293c-2.81 2.55-10.35 11-16 32.05" style="fill:#ff725e"/><path d="M465 325.05s19.21-13.46 17.27-31.51A.77.77 0 0 0 481 293c-2.81 2.55-10.35 11-16 32.05" style="opacity:.30000000000000004"/><path d="M478.79 300.28a18.4 18.4 0 0 1-1.6 3.85c-1.1 2.31-2.69 5.48-4.55 8.92s-3.64 6.51-5 8.68a18 18 0 0 1-2.44 3.37 22 22 0 0 1 1.9-3.69l4.79-8.77c1.78-3.29 3.4-6.26 4.77-8.8a21 21 0 0 1 2.13-3.56" style="fill:#263238"/><path d="M433.4 381.59s23.18-3.61 29.39-20.67a.78.78 0 0 0-.94-1c-3.61 1.01-14.08 5.23-28.45 21.67" style="fill:#ff725e"/><path d="M433.4 381.59s23.18-3.61 29.39-20.67a.78.78 0 0 0-.94-1c-3.61 1.01-14.08 5.23-28.45 21.67" style="opacity:.30000000000000004"/><path d="M456.7 365.44a18.4 18.4 0 0 1-3.13 2.74c-2 1.6-4.83 3.75-8 6s-6.15 4.24-8.34 5.57a16.6 16.6 0 0 1-3.68 2 24 24 0 0 1 3.34-2.47l8.17-5.77 8.15-5.79a20 20 0 0 1 3.49-2.28" style="fill:#263238"/><path style="fill:#455a64" d="m405.98 424.25 6.64 43.6 26.55-.04 8.95-43.56z"/><path d="m444.23 441.07-.22.16a8 8 0 0 1-.7.4 9.7 9.7 0 0 1-3 .88 10.9 10.9 0 0 1-4.88-.45 10.23 10.23 0 0 1-5.25-3.82 7.3 7.3 0 0 1-1.18-3.64 4 4 0 0 1 1.8-3.75 4.29 4.29 0 0 1 4.45.36 6.53 6.53 0 0 1 2.54 4 17.2 17.2 0 0 1 .33 4.92 16.3 16.3 0 0 1-1.08 5 11.1 11.1 0 0 1-3.07 4.39 8.6 8.6 0 0 1-5.11 2.13 9.36 9.36 0 0 1-5.32-1.54 15.8 15.8 0 0 1-4-3.58 8.7 8.7 0 0 1-2-4.79 5.56 5.56 0 0 1 1.88-4.62 4.33 4.33 0 0 1 4.71-.29 5 5 0 0 1 2.71 3.55 6.82 6.82 0 0 1-3.35 6.91 9.4 9.4 0 0 1-6.41.92 14.8 14.8 0 0 1-4.57-1.78 26 26 0 0 1-2.56-1.73 7 7 0 0 1-.82-.7 5.6 5.6 0 0 1 .91.58c.58.38 1.44 1 2.61 1.6a14.6 14.6 0 0 0 4.5 1.63 8.93 8.93 0 0 0 6.07-1 6.29 6.29 0 0 0 3-6.34 4.43 4.43 0 0 0-2.41-3.1 3.68 3.68 0 0 0-4 .24 4.9 4.9 0 0 0-1.61 4.06 8 8 0 0 0 1.88 4.39 15.4 15.4 0 0 0 3.78 3.41 8.7 8.7 0 0 0 4.9 1.43 7.87 7.87 0 0 0 4.68-2 10.35 10.35 0 0 0 2.88-4.11 15.6 15.6 0 0 0 1.05-4.81 16.4 16.4 0 0 0-.29-4.72 5.83 5.83 0 0 0-2.25-3.63 3.67 3.67 0 0 0-3.79-.38 3.4 3.4 0 0 0-1.54 3.2 6.85 6.85 0 0 0 1.1 3.39 9.8 9.8 0 0 0 4.95 3.71 10.8 10.8 0 0 0 4.72.56 12.6 12.6 0 0 0 3.96-1.04" style="fill:#263238"/></svg>