<svg xmlns="http://www.w3.org/2000/svg" viewBox="0 0 500 500"><path d="M475.08 285.76c-15.05 40.32-45.82 84-89.11 96.89-65.41 19.53-73.22 72.26-190.38 67.37a236.3 236.3 0 0 1-50.66-7.43 197 197 0 0 1-23.82-7.92C52.67 407 17 345.93 14 282.09c-3.91-84 54.67-124 92.74-147.42s84-114.23 199.18-110.33A228.5 228.5 0 0 1 358 32c38.77 10.49 78.18 33.7 101.08 67.62q2.58 3.83 4.93 7.82c30.63 51.94 31.6 123.34 11.07 178.32" style="fill:#92e3a9"/><path d="M475.08 285.76c-15.05 40.32-45.82 84-89.11 96.89-65.41 19.53-73.22 72.26-190.38 67.37a236.3 236.3 0 0 1-50.66-7.43 197 197 0 0 1-23.82-7.92C52.67 407 17 345.93 14 282.09c-3.91-84 54.67-124 92.74-147.42s84-114.23 199.18-110.33A228.5 228.5 0 0 1 358 32c38.77 10.49 78.18 33.7 101.08 67.62q2.58 3.83 4.93 7.82c30.63 51.94 31.6 123.34 11.07 178.32" style="fill:#fff;opacity:.7000000000000001"/><path style="fill:none;stroke:#263238;stroke-linecap:round;stroke-linejoin:round" d="m40.63 138.35 24.81 237.79m-4.88-46.49-10.36-10.9"/><path d="M53.61 322.31a12.7 12.7 0 0 0-4.47-9.54c-2.89-2.58-18.09-9-19.53-3.62-1.61 5.85 13.99 17.26 24 13.16Z" style="fill:#92e3a9;stroke:#263238;stroke-miterlimit:10"/><path style="fill:none;stroke:#263238;stroke-linecap:round;stroke-linejoin:round" d="m53.61 322.31-14.47-9.01m23.99 40.91-10.11-8.41"/><path d="M56.44 349.36a12.73 12.73 0 0 0-4.44-9.54c-2.89-2.58-18.09-9-19.53-3.62-1.61 5.8 13.95 17.25 23.97 13.16Z" style="fill:#92e3a9;stroke:#263238;stroke-miterlimit:10"/><path style="fill:none;stroke:#263238;stroke-linecap:round;stroke-linejoin:round" d="m56.44 349.36-14.47-9.02m11.55-78.39-10.21-9.19"/><path d="M46.73 256.32a12.74 12.74 0 0 0-4.48-9.54c-2.89-2.58-18.09-9-19.53-3.62-1.57 5.84 13.99 17.25 24.01 13.16Z" style="fill:#92e3a9;stroke:#263238;stroke-miterlimit:10"/><path style="fill:none;stroke:#263238;stroke-linecap:round;stroke-linejoin:round" d="m46.73 256.32-14.47-9.01m24.11 43.4-10.24-10.9"/><path d="M49.55 283.37a12.76 12.76 0 0 0-4.48-9.55c-2.89-2.58-18.08-9-19.53-3.62-1.54 5.8 13.99 17.26 24.01 13.17Z" style="fill:#92e3a9;stroke:#263238;stroke-miterlimit:10"/><path style="fill:none;stroke:#263238;stroke-linecap:round;stroke-linejoin:round" d="m49.55 283.37-14.47-9.02m13.89-55.07-10.25-10.45"/><path d="M42.14 212.39a12.74 12.74 0 0 0-4.48-9.54c-2.88-2.58-18.08-9-19.52-3.62-1.57 5.82 13.98 17.25 24 13.16Z" style="fill:#92e3a9;stroke:#263238;stroke-miterlimit:10"/><path style="fill:none;stroke:#263238;stroke-linecap:round;stroke-linejoin:round" d="m42.14 212.39-14.47-9.01m16.37-31.08-9.92-7.59"/><path d="M37.54 168.27a12.73 12.73 0 0 0-4.48-9.54c-2.89-2.58-18.09-9-19.53-3.62-1.53 5.82 13.99 17.25 24.01 13.16Z" style="fill:#92e3a9;stroke:#263238;stroke-miterlimit:10"/><path style="fill:none;stroke:#263238;stroke-linecap:round;stroke-linejoin:round" d="m37.54 168.27-14.47-9.02m36.48 155.39 8.56-13.95"/><path d="M65.5 304.88a12.76 12.76 0 0 1 2.41-10.27c2.29-3.12 15.84-12.51 18.36-7.57 2.73 5.37-10.12 19.77-20.77 17.84Z" style="fill:#92e3a9;stroke:#263238;stroke-miterlimit:10"/><path style="fill:none;stroke:#263238;stroke-linecap:round;stroke-linejoin:round" d="m65.5 304.88 10.18-9.56m-23.55-51.85 8.55-13.95"/><path d="M58.07 233.71a12.74 12.74 0 0 1 2.41-10.26c2.3-3.12 12.9-10.94 15.41-6 2.74 5.38-7.17 18.2-17.82 16.26Z" style="fill:#92e3a9;stroke:#263238;stroke-miterlimit:10"/><path style="fill:none;stroke:#263238;stroke-linecap:round;stroke-linejoin:round" d="m58.07 233.71 13.03-12.45m-22.24-9.06 8.56-13.95"/><path d="M54.81 202.44a12.76 12.76 0 0 1 2.41-10.27c2.29-3.12 15.84-12.51 18.36-7.57 2.74 5.4-10.12 19.77-20.77 17.84Z" style="fill:#92e3a9;stroke:#263238;stroke-miterlimit:10"/><path style="fill:none;stroke:#263238;stroke-linecap:round;stroke-linejoin:round" d="m54.81 202.44 13.03-12.46m-23.76-23.63 8.55-13.95"/><path d="M50 156.59a12.76 12.76 0 0 1 2.41-10.27c2.3-3.12 15.85-12.51 18.36-7.57 2.76 5.37-10.1 19.77-20.77 17.84Z" style="fill:#92e3a9;stroke:#263238;stroke-miterlimit:10"/><path style="fill:none;stroke:#263238;stroke-linecap:round;stroke-linejoin:round" d="m50.02 156.59 13.03-12.46"/><path d="M40.42 137a12.74 12.74 0 0 1 2.41-10.26c2.29-3.12 15.84-12.51 18.36-7.57 2.74 5.4-10.12 19.83-20.77 17.83Z" style="fill:#92e3a9;stroke:#263238;stroke-miterlimit:10"/><path style="fill:none;stroke:#263238;stroke-linecap:round;stroke-linejoin:round" d="m40.42 137.03 13.03-12.45"/><path d="M41.17 137.57a12.74 12.74 0 0 1-10-3.47c-2.81-2.61-10.73-17.1-5.55-19.1 5.63-2.11 18.6 12.18 15.55 22.57Z" style="fill:#92e3a9;stroke:#263238;stroke-miterlimit:10"/><path style="fill:none;stroke:#263238;stroke-linecap:round;stroke-linejoin:round" d="m41.17 137.57-11.01-14.26M77.8 74.27v300.72m28.28-203.89L81.41 408.91m5.21-48.59-5.71-6.53"/><path d="M80.91 353.79a12.72 12.72 0 0 0-2.42-10.26C76.2 340.42 62.64 331 60.13 336c-2.73 5.34 10.13 19.74 20.78 17.79Z" style="fill:#92e3a9;stroke:#263238;stroke-miterlimit:10"/><path style="fill:none;stroke:#263238;stroke-linecap:round;stroke-linejoin:round" d="m80.91 353.79-12.3-11.8m24.98-49.56-8.47-7.08"/><path d="M87.76 287.8a12.72 12.72 0 0 0-2.42-10.26C83.05 274.42 69.49 265 67 270c-2.76 5.35 10.11 19.74 20.76 17.8Z" style="fill:#92e3a9;stroke:#263238;stroke-miterlimit:10"/><path style="fill:none;stroke:#263238;stroke-linecap:round;stroke-linejoin:round" d="M87.76 287.8 75.46 276m15.44 48.6-8.56-13.94"/><path d="M85 314.84a12.74 12.74 0 0 0-2.41-10.26c-2.3-3.11-15.85-12.5-18.37-7.56-2.78 5.37 10.09 19.77 20.78 17.82Z" style="fill:#92e3a9;stroke:#263238;stroke-miterlimit:10"/><path style="fill:none;stroke:#263238;stroke-linecap:round;stroke-linejoin:round" d="m84.95 314.84-12.3-11.8m25.23-53.94-8.17-9.42"/><path d="M92.32 243.87a12.74 12.74 0 0 0-2.42-10.27c-2.29-3.11-15.85-12.5-18.36-7.56-2.74 5.38 10.13 19.77 20.78 17.83Z" style="fill:#92e3a9;stroke:#263238;stroke-miterlimit:10"/><path style="fill:none;stroke:#263238;stroke-linecap:round;stroke-linejoin:round" d="m92.32 243.87-12.3-11.81m22.15-24.26-7.89-12.25"/><path d="M96.9 199.74a12.77 12.77 0 0 0-2.42-10.26c-2.3-3.12-15.85-12.5-18.36-7.56-2.74 5.37 10.13 19.76 20.78 17.82Z" style="fill:#92e3a9;stroke:#263238;stroke-miterlimit:10"/><path style="fill:none;stroke:#263238;stroke-linecap:round;stroke-linejoin:round" d="m96.9 199.74-12.31-11.8m3.72 159.56 11.24-11.89"/><path d="M96.13 339.18a12.76 12.76 0 0 1 4.48-9.55c2.88-2.58 18.08-9 19.52-3.63 1.57 5.82-13.98 17.26-24 13.18Z" style="fill:#92e3a9;stroke:#263238;stroke-miterlimit:10"/><path style="fill:none;stroke:#263238;stroke-linecap:round;stroke-linejoin:round" d="m96.13 339.18 15.32-9.51m-15.76-53.34 11.24-11.89"/><path d="M103.52 268a12.73 12.73 0 0 1 4.47-9.55c2.89-2.58 18.08-9 19.53-3.63 1.57 5.83-13.98 17.27-24 13.18Z" style="fill:#92e3a9;stroke:#263238;stroke-miterlimit:10"/><path style="fill:none;stroke:#263238;stroke-linecap:round;stroke-linejoin:round" d="m103.52 268.01 15.31-9.51m-19.89-13.44 11.24-11.89"/><path d="M106.76 236.73a12.76 12.76 0 0 1 4.48-9.55c2.88-2.58 18.08-9 19.52-3.63 1.57 5.82-13.98 17.27-24 13.18Z" style="fill:#92e3a9;stroke:#263238;stroke-miterlimit:10"/><path style="fill:none;stroke:#263238;stroke-linecap:round;stroke-linejoin:round" d="m106.76 236.73 15.32-9.5m-18.51-30.37 11.37-9.54"/><path d="M111.52 190.88a12.77 12.77 0 0 1 4.47-9.55c2.89-2.58 18.08-9 19.53-3.63 1.57 5.82-13.98 17.3-24 13.18Zm0 0 15.31-9.51m-20.68-11.6a12.73 12.73 0 0 1 4.47-9.55c2.89-2.58 18.08-9 19.53-3.63 1.57 5.82-13.98 17.26-24 13.18Z" style="fill:#92e3a9;stroke:#263238;stroke-miterlimit:10"/><path style="fill:none;stroke:#263238;stroke-linecap:round;stroke-linejoin:round" d="m106.15 169.77 15.31-9.51"/><path d="M106.78 170.45a12.77 12.77 0 0 1-9-5.45c-2.26-3.14-7-18.92-1.56-19.8 5.92-.95 15.67 15.71 10.56 25.25Z" style="fill:#92e3a9;stroke:#263238;stroke-miterlimit:10"/><path style="fill:none;stroke:#263238;stroke-linecap:round;stroke-linejoin:round" d="m106.78 170.45-7.85-16.23m-21.54 175-9.3-12.44"/><path d="M71.12 320.68a12.77 12.77 0 0 0-3.47-10c-2.6-2.86-17.05-10.8-19-5.62-2.21 5.66 12.08 18.65 22.47 15.62Z" style="fill:#92e3a9;stroke:#263238;stroke-miterlimit:10"/><path style="fill:none;stroke:#263238;stroke-linecap:round;stroke-linejoin:round" d="m71.12 320.68-13.46-10.47m20.06-40.97-9.63-8.97"/><path d="M71.12 264.17a12.76 12.76 0 0 0-3.47-10c-2.6-2.86-17.05-10.8-19-5.63-2.21 5.67 12.08 18.66 22.47 15.63Z" style="fill:#92e3a9;stroke:#263238;stroke-miterlimit:10"/><path style="fill:none;stroke:#263238;stroke-linecap:round;stroke-linejoin:round" d="M71.12 264.17 57.66 253.7m20.38-46.79-9.95-12.99"/><path d="M71.12 197.82a12.76 12.76 0 0 0-3.47-10c-2.6-2.86-17.05-10.8-19-5.63-2.21 5.67 12.08 18.66 22.47 15.63Z" style="fill:#92e3a9;stroke:#263238;stroke-miterlimit:10"/><path style="fill:none;stroke:#263238;stroke-linecap:round;stroke-linejoin:round" d="m71.12 197.82-13.46-10.47m19.73-29.21-9.3-8.39"/><path d="M71.12 153.65a12.76 12.76 0 0 0-3.47-10c-2.6-2.86-17.05-10.8-19-5.63-2.21 5.67 12.08 18.66 22.47 15.63Z" style="fill:#92e3a9;stroke:#263238;stroke-miterlimit:10"/><path style="fill:none;stroke:#263238;stroke-linecap:round;stroke-linejoin:round" d="m71.12 153.65-13.46-10.47m20.27-29.23-9.65-7.08"/><path d="M71.12 109.29a12.76 12.76 0 0 0-3.47-10c-2.6-2.87-17.05-10.8-19-5.63-2.21 5.67 12.08 18.66 22.47 15.63Z" style="fill:#92e3a9;stroke:#263238;stroke-miterlimit:10"/><path style="fill:none;stroke:#263238;stroke-linecap:round;stroke-linejoin:round" d="M71.12 109.29 57.66 98.82m22.09 245.41 8.03-10.19"/><path d="M84.75 337.94a12.73 12.73 0 0 1 3.46-10c2.61-2.86 17.06-10.8 19.05-5.63 2.16 5.69-12.12 18.69-22.51 15.63Z" style="fill:#92e3a9;stroke:#263238;stroke-miterlimit:10"/><path style="fill:none;stroke:#263238;stroke-linecap:round;stroke-linejoin:round" d="M84.75 337.94 99 326.9m-21.18-69.75 9.96-12.99"/><path d="M84.75 248.06a12.73 12.73 0 0 1 3.46-10c2.61-2.87 17.06-10.8 19.05-5.63 2.16 5.67-12.12 18.66-22.51 15.63Z" style="fill:#92e3a9;stroke:#263238;stroke-miterlimit:10"/><path style="fill:none;stroke:#263238;stroke-linecap:round;stroke-linejoin:round" d="M84.75 248.06 99 237.02m-21.18-24.24 9.96-12.98"/><path d="M84.75 203.69a12.7 12.7 0 0 1 3.46-9.95c2.61-2.87 17.06-10.8 19.05-5.63 2.16 5.63-12.12 18.61-22.51 15.58Z" style="fill:#92e3a9;stroke:#263238;stroke-miterlimit:10"/><path style="fill:none;stroke:#263238;stroke-linecap:round;stroke-linejoin:round" d="M84.75 203.69 99 192.66m-21.18-38.51 9.96-12.99"/><path d="M84.75 145.06a12.73 12.73 0 0 1 3.46-10c2.61-2.86 17.06-10.8 19.05-5.62 2.16 5.66-12.12 18.65-22.51 15.62Z" style="fill:#92e3a9;stroke:#263238;stroke-miterlimit:10"/><path style="fill:none;stroke:#263238;stroke-linecap:round;stroke-linejoin:round" d="M84.75 145.06 99 134.03m-20.75-30.48 9.76-7.62"/><path d="M84.75 99a12.7 12.7 0 0 1 3.46-10c2.61-2.87 17.06-10.81 19.05-5.63C109.42 89 95.14 102 84.75 99Z" style="fill:#92e3a9;stroke:#263238;stroke-miterlimit:10"/><path style="fill:none;stroke:#263238;stroke-linecap:round;stroke-linejoin:round" d="M84.75 98.96 99 87.93"/><path d="M77.23 78.52a12.73 12.73 0 0 1 3.46-10c2.6-2.86 17.06-10.8 19-5.63 2.21 5.67-12.07 18.66-22.46 15.63Z" style="fill:#92e3a9;stroke:#263238;stroke-miterlimit:10"/><path style="fill:none;stroke:#263238;stroke-linecap:round;stroke-linejoin:round" d="m77.23 78.52 14.25-11.04"/><path d="M77.92 79.13a12.78 12.78 0 0 1-9.54-4.49c-2.57-2.89-8.95-18.09-3.59-19.53 5.82-1.56 17.21 14 13.13 24.02Z" style="fill:#92e3a9;stroke:#263238;stroke-miterlimit:10"/><path style="fill:none;stroke:#263238;stroke-linecap:round;stroke-linejoin:round" d="M77.92 79.13 68.45 63.8"/><path style="fill:#263238;stroke:#263238;stroke-linecap:round;stroke-linejoin:round" d="M90.18 452.98H58.33l-3.98-80.43h39.81z"/><path style="fill:#e8e8e8;stroke:#263238;stroke-linejoin:round" d="M145.58 438.42h12.89v14.56h-12.89z"/><path style="fill:#cfcfcf;stroke:#263238;stroke-linejoin:round" d="M158.66 438.42h12.89v14.56h-12.89z"/><path style="fill:#333;stroke:#263238;stroke-linejoin:round" d="M171.75 438.42h12.89v14.56h-12.89z"/><path style="fill:#7d7d7d;stroke:#263238;stroke-linejoin:round" d="M184.84 438.42h12.89v14.56h-12.89z"/><path style="fill:#d4d4d4;stroke:#263238;stroke-linejoin:round" d="M197.93 438.42h12.89v14.56h-12.89z"/><path style="fill:#cfcfcf;stroke:#263238;stroke-linejoin:round" d="M211.02 438.42h12.89v14.56h-12.89z"/><path style="fill:#e8e8e8;stroke:#263238;stroke-linejoin:round" d="M224.1 438.42h12.89v14.56H224.1z"/><path style="fill:#fff;stroke:#263238;stroke-linejoin:round" d="M237.19 438.42h12.89v14.56h-12.89zm13.09 0h12.89v14.56h-12.89z"/><path style="fill:#263238" d="M263.37 438.42h12.89v14.56h-12.89z"/><path style="fill:#fff;stroke:#263238;stroke-linejoin:round" d="M276.45 438.42h12.89v14.56h-12.89zm13.09 0h12.89v14.56h-12.89z"/><path style="fill:#e8e8e8;stroke:#263238;stroke-linejoin:round" d="M154.88 423.42h12.89v14.56h-12.89z"/><path style="fill:#cfcfcf;stroke:#263238;stroke-linejoin:round" d="M167.97 423.42h12.89v14.56h-12.89z"/><path style="fill:#333;stroke:#263238;stroke-linejoin:round" d="M181.06 423.42h12.89v14.56h-12.89z"/><path style="fill:#7d7d7d;stroke:#263238;stroke-linejoin:round" d="M194.15 423.42h12.89v14.56h-12.89z"/><path style="fill:#d4d4d4;stroke:#263238;stroke-linejoin:round" d="M207.23 423.42h12.89v14.56h-12.89z"/><path style="fill:#cfcfcf;stroke:#263238;stroke-linejoin:round" d="M220.32 423.42h12.89v14.56h-12.89z"/><path style="fill:#e8e8e8;stroke:#263238;stroke-linejoin:round" d="M233.41 423.42h12.89v14.56h-12.89z"/><path style="fill:#fff;stroke:#263238;stroke-linejoin:round" d="M246.5 423.42h12.89v14.56H246.5zm13.08 0h12.89v14.56h-12.89z"/><path style="fill:#263238" d="M272.67 423.42h12.89v14.56h-12.89z"/><path style="fill:#fff;stroke:#263238;stroke-linejoin:round" d="M285.76 423.42h12.89v14.56h-12.89zm13.09 0h12.89v14.56h-12.89z"/><path style="fill:#e8e8e8;stroke:#263238;stroke-linejoin:round" d="M154.22 408.41h12.89v14.56h-12.89z"/><path style="fill:#cfcfcf;stroke:#263238;stroke-linejoin:round" d="M167.31 408.41h12.89v14.56h-12.89z"/><path style="fill:#333;stroke:#263238;stroke-linejoin:round" d="M180.39 408.41h12.89v14.56h-12.89z"/><path style="fill:#7d7d7d;stroke:#263238;stroke-linejoin:round" d="M193.48 408.41h12.89v14.56h-12.89z"/><path style="fill:#d4d4d4;stroke:#263238;stroke-linejoin:round" d="M206.57 408.41h12.89v14.56h-12.89z"/><path style="fill:#cfcfcf;stroke:#263238;stroke-linejoin:round" d="M219.66 408.41h12.89v14.56h-12.89z"/><path style="fill:#e8e8e8;stroke:#263238;stroke-linejoin:round" d="M232.74 408.41h12.89v14.56h-12.89z"/><path style="fill:#fff;stroke:#263238;stroke-linejoin:round" d="M245.83 408.41h12.89v14.56h-12.89zm13.09 0h12.89v14.56h-12.89z"/><path style="fill:#263238" d="M272.01 408.41h12.89v14.56h-12.89z"/><path style="fill:#fff;stroke:#263238;stroke-linejoin:round" d="M285.1 408.41h12.89v14.56H285.1zm13.08 0h12.89v14.56h-12.89z"/><path style="fill:#e8e8e8;stroke:#263238;stroke-linejoin:round" d="M153.55 393.41h12.89v14.56h-12.89z"/><path style="fill:#cfcfcf;stroke:#263238;stroke-linejoin:round" d="M166.64 393.41h12.89v14.56h-12.89z"/><path style="fill:#333;stroke:#263238;stroke-linejoin:round" d="M179.73 393.41h12.89v14.56h-12.89z"/><path style="fill:#7d7d7d;stroke:#263238;stroke-linejoin:round" d="M192.82 393.41h12.89v14.56h-12.89z"/><path style="fill:#d4d4d4;stroke:#263238;stroke-linejoin:round" d="M205.9 393.41h12.89v14.56H205.9z"/><path style="fill:#cfcfcf;stroke:#263238;stroke-linejoin:round" d="M218.99 393.41h12.89v14.56h-12.89z"/><path style="fill:#e8e8e8;stroke:#263238;stroke-linejoin:round" d="M232.08 393.41h12.89v14.56h-12.89z"/><path style="fill:#fff;stroke:#263238;stroke-linejoin:round" d="M245.17 393.41h12.89v14.56h-12.89zm13.09 0h12.89v14.56h-12.89z"/><path style="fill:#263238" d="M271.34 393.41h12.89v14.56h-12.89z"/><path style="fill:#fff;stroke:#263238;stroke-linejoin:round" d="M284.43 393.41h12.89v14.56h-12.89zm13.09 0h12.89v14.56h-12.89z"/><path style="fill:#e8e8e8;stroke:#263238;stroke-linejoin:round" d="M142.25 378.4h12.89v14.56h-12.89z"/><path style="fill:#cfcfcf;stroke:#263238;stroke-linejoin:round" d="M155.34 378.4h12.89v14.56h-12.89z"/><path style="fill:#333;stroke:#263238;stroke-linejoin:round" d="M168.43 378.4h12.89v14.56h-12.89z"/><path style="fill:#7d7d7d;stroke:#263238;stroke-linejoin:round" d="M181.52 378.4h12.89v14.56h-12.89z"/><path style="fill:#d4d4d4;stroke:#263238;stroke-linejoin:round" d="M194.6 378.4h12.89v14.56H194.6z"/><path style="fill:#cfcfcf;stroke:#263238;stroke-linejoin:round" d="M207.69 378.4h12.89v14.56h-12.89z"/><path style="fill:#e8e8e8;stroke:#263238;stroke-linejoin:round" d="M220.78 378.4h12.89v14.56h-12.89z"/><path style="fill:#fff;stroke:#263238;stroke-linejoin:round" d="M233.87 378.4h12.89v14.56h-12.89zm13.08 0h12.89v14.56h-12.89z"/><path style="fill:#263238" d="M260.04 378.4h12.89v14.56h-12.89z"/><path style="fill:#fff;stroke:#263238;stroke-linejoin:round" d="M273.13 378.4h12.89v14.56h-12.89zm13.09 0h12.89v14.56h-12.89z"/><path style="fill:#e8e8e8;stroke:#263238;stroke-linejoin:round" d="M143.58 363.39h12.89v14.56h-12.89z"/><path style="fill:#cfcfcf;stroke:#263238;stroke-linejoin:round" d="M156.67 363.39h12.89v14.56h-12.89z"/><path style="fill:#333;stroke:#263238;stroke-linejoin:round" d="M169.76 363.39h12.89v14.56h-12.89z"/><path style="fill:#7d7d7d;stroke:#263238;stroke-linejoin:round" d="M182.85 363.39h12.89v14.56h-12.89z"/><path style="fill:#d4d4d4;stroke:#263238;stroke-linejoin:round" d="M195.93 363.39h12.89v14.56h-12.89z"/><path style="fill:#cfcfcf;stroke:#263238;stroke-linejoin:round" d="M209.02 363.39h12.89v14.56h-12.89z"/><path style="fill:#e8e8e8;stroke:#263238;stroke-linejoin:round" d="M222.11 363.39H235v14.56h-12.89z"/><path style="fill:#fff;stroke:#263238;stroke-linejoin:round" d="M235.2 363.39h12.89v14.56H235.2zm13.08 0h12.89v14.56h-12.89z"/><path style="fill:#263238" d="M261.37 363.39h12.89v14.56h-12.89z"/><path style="fill:#fff;stroke:#263238;stroke-linejoin:round" d="M274.46 363.39h12.89v14.56h-12.89zm13.09 0h12.89v14.56h-12.89z"/><path style="fill:#e8e8e8;stroke:#263238;stroke-linejoin:round" d="M158.87 348.39h12.89v14.56h-12.89z"/><path style="fill:#cfcfcf;stroke:#263238;stroke-linejoin:round" d="M171.96 348.39h12.89v14.56h-12.89z"/><path style="fill:#333;stroke:#263238;stroke-linejoin:round" d="M185.05 348.39h12.89v14.56h-12.89z"/><path style="fill:#7d7d7d;stroke:#263238;stroke-linejoin:round" d="M198.14 348.39h12.89v14.56h-12.89z"/><path style="fill:#d4d4d4;stroke:#263238;stroke-linejoin:round" d="M211.22 348.39h12.89v14.56h-12.89z"/><path style="fill:#cfcfcf;stroke:#263238;stroke-linejoin:round" d="M224.31 348.39h12.89v14.56h-12.89z"/><path style="fill:#e8e8e8;stroke:#263238;stroke-linejoin:round" d="M237.4 348.39h12.89v14.56H237.4z"/><path style="fill:#fff;stroke:#263238;stroke-linejoin:round" d="M250.49 348.39h12.89v14.56h-12.89zm13.08 0h12.89v14.56h-12.89z"/><path style="fill:#263238" d="M276.66 348.39h12.89v14.56h-12.89z"/><path style="fill:#fff;stroke:#263238;stroke-linejoin:round" d="M289.75 348.39h12.89v14.56h-12.89zm13.09 0h12.89v14.56h-12.89z"/><path style="fill:#e8e8e8;stroke:#263238;stroke-linejoin:round" d="M140.92 333.38h12.89v14.56h-12.89z"/><path style="fill:#cfcfcf;stroke:#263238;stroke-linejoin:round" d="M154.01 333.38h12.89v14.56h-12.89z"/><path style="fill:#333;stroke:#263238;stroke-linejoin:round" d="M167.1 333.38h12.89v14.56H167.1z"/><path style="fill:#7d7d7d;stroke:#263238;stroke-linejoin:round" d="M180.19 333.38h12.89v14.56h-12.89z"/><path style="fill:#d4d4d4;stroke:#263238;stroke-linejoin:round" d="M193.27 333.38h12.89v14.56h-12.89z"/><path style="fill:#cfcfcf;stroke:#263238;stroke-linejoin:round" d="M206.36 333.38h12.89v14.56h-12.89z"/><path style="fill:#e8e8e8;stroke:#263238;stroke-linejoin:round" d="M219.45 333.38h12.89v14.56h-12.89z"/><path style="fill:#fff;stroke:#263238;stroke-linejoin:round" d="M232.54 333.38h12.89v14.56h-12.89zm13.08 0h12.89v14.56h-12.89zm13.09 0h12.89v14.56h-12.89z"/><path style="fill:#263238" d="M271.8 333.38h12.89v14.56H271.8z"/><path style="fill:#fff;stroke:#263238;stroke-linejoin:round" d="M284.89 333.38h12.89v14.56h-12.89z"/><path style="fill:#e8e8e8;stroke:#263238;stroke-linejoin:round" d="M157.54 318.37h12.89v14.56h-12.89z"/><path style="fill:#cfcfcf;stroke:#263238;stroke-linejoin:round" d="M170.63 318.37h12.89v14.56h-12.89z"/><path style="fill:#333;stroke:#263238;stroke-linejoin:round" d="M183.72 318.37h12.89v14.56h-12.89z"/><path style="fill:#7d7d7d;stroke:#263238;stroke-linejoin:round" d="M196.81 318.37h12.89v14.56h-12.89z"/><path style="fill:#d4d4d4;stroke:#263238;stroke-linejoin:round" d="M209.89 318.37h12.89v14.56h-12.89z"/><path style="fill:#cfcfcf;stroke:#263238;stroke-linejoin:round" d="M222.98 318.37h12.89v14.56h-12.89z"/><path style="fill:#e8e8e8;stroke:#263238;stroke-linejoin:round" d="M236.07 318.37h12.89v14.56h-12.89z"/><path style="fill:#fff;stroke:#263238;stroke-linejoin:round" d="M249.16 318.37h12.89v14.56h-12.89zm13.08 0h12.89v14.56h-12.89z"/><path style="fill:#263238" d="M275.33 318.37h12.89v14.56h-12.89z"/><path style="fill:#fff;stroke:#263238;stroke-linejoin:round" d="M288.42 318.37h12.89v14.56h-12.89zm13.09 0h12.89v14.56h-12.89z"/><path style="fill:#e8e8e8;stroke:#263238;stroke-linejoin:round" d="M158.87 303.37h12.89v14.56h-12.89z"/><path style="fill:#cfcfcf;stroke:#263238;stroke-linejoin:round" d="M171.96 303.37h12.89v14.56h-12.89z"/><path style="fill:#333;stroke:#263238;stroke-linejoin:round" d="M185.05 303.37h12.89v14.56h-12.89z"/><path style="fill:#7d7d7d;stroke:#263238;stroke-linejoin:round" d="M198.14 303.37h12.89v14.56h-12.89z"/><path style="fill:#d4d4d4;stroke:#263238;stroke-linejoin:round" d="M211.22 303.37h12.89v14.56h-12.89z"/><path style="fill:#cfcfcf;stroke:#263238;stroke-linejoin:round" d="M224.31 303.37h12.89v14.56h-12.89z"/><path style="fill:#e8e8e8;stroke:#263238;stroke-linejoin:round" d="M237.4 303.37h12.89v14.56H237.4z"/><path style="fill:#fff;stroke:#263238;stroke-linejoin:round" d="M250.49 303.37h12.89v14.56h-12.89zm13.08 0h12.89v14.56h-12.89z"/><path style="fill:#263238" d="M276.66 303.37h12.89v14.56h-12.89z"/><path style="fill:#fff;stroke:#263238;stroke-linejoin:round" d="M289.75 303.37h12.89v14.56h-12.89zm13.09 0h12.89v14.56h-12.89z"/><path style="fill:#e8e8e8;stroke:#263238;stroke-linejoin:round" d="M145.58 288.36h12.89v14.56h-12.89z"/><path style="fill:#cfcfcf;stroke:#263238;stroke-linejoin:round" d="M158.66 288.36h12.89v14.56h-12.89z"/><path style="fill:#333;stroke:#263238;stroke-linejoin:round" d="M171.75 288.36h12.89v14.56h-12.89z"/><path style="fill:#7d7d7d;stroke:#263238;stroke-linejoin:round" d="M184.84 288.36h12.89v14.56h-12.89z"/><path style="fill:#d4d4d4;stroke:#263238;stroke-linejoin:round" d="M197.93 288.36h12.89v14.56h-12.89z"/><path style="fill:#cfcfcf;stroke:#263238;stroke-linejoin:round" d="M211.02 288.36h12.89v14.56h-12.89z"/><path style="fill:#e8e8e8;stroke:#263238;stroke-linejoin:round" d="M224.1 288.36h12.89v14.56H224.1z"/><path style="fill:#fff;stroke:#263238;stroke-linejoin:round" d="M237.19 288.36h12.89v14.56h-12.89zm13.09 0h12.89v14.56h-12.89z"/><path style="fill:#263238" d="M263.37 288.36h12.89v14.56h-12.89z"/><path style="fill:#fff;stroke:#263238;stroke-linejoin:round" d="M276.45 288.36h12.89v14.56h-12.89zm13.09 0h12.89v14.56h-12.89z"/><path style="fill:#e8e8e8;stroke:#263238;stroke-linejoin:round" d="M160.2 273.35h12.89v14.56H160.2z"/><path style="fill:#cfcfcf;stroke:#263238;stroke-linejoin:round" d="M173.29 273.35h12.89v14.56h-12.89z"/><path style="fill:#333;stroke:#263238;stroke-linejoin:round" d="M186.38 273.35h12.89v14.56h-12.89z"/><path style="fill:#7d7d7d;stroke:#263238;stroke-linejoin:round" d="M199.47 273.35h12.89v14.56h-12.89z"/><path style="fill:#d4d4d4;stroke:#263238;stroke-linejoin:round" d="M212.55 273.35h12.89v14.56h-12.89z"/><path style="fill:#cfcfcf;stroke:#263238;stroke-linejoin:round" d="M225.64 273.35h12.89v14.56h-12.89z"/><path style="fill:#e8e8e8;stroke:#263238;stroke-linejoin:round" d="M238.73 273.35h12.89v14.56h-12.89z"/><path style="fill:#fff;stroke:#263238;stroke-linejoin:round" d="M251.82 273.35h12.89v14.56h-12.89zm13.08 0h12.89v14.56H264.9z"/><path style="fill:#263238" d="M277.99 273.35h12.89v14.56h-12.89z"/><path style="fill:#fff;stroke:#263238;stroke-linejoin:round" d="M291.08 273.35h12.89v14.56h-12.89zm13.09 0h12.89v14.56h-12.89z"/><path style="fill:#e8e8e8;stroke:#263238;stroke-linejoin:round" d="M157.1 258.35h12.89v14.56H157.1z"/><path style="fill:#cfcfcf;stroke:#263238;stroke-linejoin:round" d="M170.19 258.35h12.89v14.56h-12.89z"/><path style="fill:#333;stroke:#263238;stroke-linejoin:round" d="M183.28 258.35h12.89v14.56h-12.89z"/><path style="fill:#7d7d7d;stroke:#263238;stroke-linejoin:round" d="M196.37 258.35h12.89v14.56h-12.89z"/><path style="fill:#d4d4d4;stroke:#263238;stroke-linejoin:round" d="M209.45 258.35h12.89v14.56h-12.89z"/><path style="fill:#cfcfcf;stroke:#263238;stroke-linejoin:round" d="M222.54 258.35h12.89v14.56h-12.89z"/><path style="fill:#e8e8e8;stroke:#263238;stroke-linejoin:round" d="M235.63 258.35h12.89v14.56h-12.89z"/><path style="fill:#fff;stroke:#263238;stroke-linejoin:round" d="M248.72 258.35h12.89v14.56h-12.89zm13.08 0h12.89v14.56H261.8z"/><path style="fill:#263238" d="M274.89 258.35h12.89v14.56h-12.89z"/><path style="fill:#fff;stroke:#263238;stroke-linejoin:round" d="M287.98 258.35h12.89v14.56h-12.89zm13.09 0h12.89v14.56h-12.89z"/><path style="fill:#e8e8e8;stroke:#263238;stroke-linejoin:round" d="M156.21 243.34h12.89v14.56h-12.89z"/><path style="fill:#cfcfcf;stroke:#263238;stroke-linejoin:round" d="M169.3 243.34h12.89v14.56H169.3z"/><path style="fill:#333;stroke:#263238;stroke-linejoin:round" d="M182.39 243.34h12.89v14.56h-12.89z"/><path style="fill:#7d7d7d;stroke:#263238;stroke-linejoin:round" d="M195.48 243.34h12.89v14.56h-12.89z"/><path style="fill:#d4d4d4;stroke:#263238;stroke-linejoin:round" d="M208.56 243.34h12.89v14.56h-12.89z"/><path style="fill:#cfcfcf;stroke:#263238;stroke-linejoin:round" d="M221.65 243.34h12.89v14.56h-12.89z"/><path style="fill:#e8e8e8;stroke:#263238;stroke-linejoin:round" d="M234.74 243.34h12.89v14.56h-12.89z"/><path style="fill:#fff;stroke:#263238;stroke-linejoin:round" d="M247.83 243.34h12.89v14.56h-12.89zm13.08 0h12.89v14.56h-12.89z"/><path style="fill:#263238" d="M274 243.34h12.89v14.56H274z"/><path style="fill:#fff;stroke:#263238;stroke-linejoin:round" d="M287.09 243.34h12.89v14.56h-12.89zm13.09 0h12.89v14.56h-12.89z"/><path style="fill:#e8e8e8;stroke:#263238;stroke-linejoin:round" d="M158.06 228.34h12.89v14.56h-12.89z"/><path style="fill:#cfcfcf;stroke:#263238;stroke-linejoin:round" d="M171.14 228.34h12.89v14.56h-12.89z"/><path style="fill:#333;stroke:#263238;stroke-linejoin:round" d="M184.23 228.34h12.89v14.56h-12.89z"/><path style="fill:#7d7d7d;stroke:#263238;stroke-linejoin:round" d="M197.32 228.34h12.89v14.56h-12.89z"/><path style="fill:#d4d4d4;stroke:#263238;stroke-linejoin:round" d="M210.41 228.34h12.89v14.56h-12.89z"/><path style="fill:#cfcfcf;stroke:#263238;stroke-linejoin:round" d="M223.49 228.34h12.89v14.56h-12.89z"/><path style="fill:#e8e8e8;stroke:#263238;stroke-linejoin:round" d="M236.58 228.34h12.89v14.56h-12.89z"/><path style="fill:#fff;stroke:#263238;stroke-linejoin:round" d="M249.67 228.34h12.89v14.56h-12.89zm13.09 0h12.89v14.56h-12.89z"/><path style="fill:#263238" d="M275.84 228.34h12.89v14.56h-12.89z"/><path style="fill:#fff;stroke:#263238;stroke-linejoin:round" d="M288.93 228.34h12.89v14.56h-12.89zm13.09 0h12.89v14.56h-12.89z"/><path style="fill:#e8e8e8;stroke:#263238;stroke-linejoin:round" d="M156.21 213.33h12.89v14.56h-12.89z"/><path style="fill:#cfcfcf;stroke:#263238;stroke-linejoin:round" d="M169.3 213.33h12.89v14.56H169.3z"/><path style="fill:#333;stroke:#263238;stroke-linejoin:round" d="M182.39 213.33h12.89v14.56h-12.89z"/><path style="fill:#7d7d7d;stroke:#263238;stroke-linejoin:round" d="M195.48 213.33h12.89v14.56h-12.89z"/><path style="fill:#d4d4d4;stroke:#263238;stroke-linejoin:round" d="M208.56 213.33h12.89v14.56h-12.89z"/><path style="fill:#cfcfcf;stroke:#263238;stroke-linejoin:round" d="M221.65 213.33h12.89v14.56h-12.89z"/><path style="fill:#e8e8e8;stroke:#263238;stroke-linejoin:round" d="M234.74 213.33h12.89v14.56h-12.89z"/><path style="fill:#fff;stroke:#263238;stroke-linejoin:round" d="M247.83 213.33h12.89v14.56h-12.89zm13.08 0h12.89v14.56h-12.89z"/><path style="fill:#263238" d="M274 213.33h12.89v14.56H274z"/><path style="fill:#fff;stroke:#263238;stroke-linejoin:round" d="M287.09 213.33h12.89v14.56h-12.89zm13.09 0h12.89v14.56h-12.89z"/><path style="fill:#e8e8e8;stroke:#263238;stroke-linejoin:round" d="M158.4 198.32h12.89v14.56H158.4z"/><path style="fill:#cfcfcf;stroke:#263238;stroke-linejoin:round" d="M171.49 198.32h12.89v14.56h-12.89z"/><path style="fill:#333;stroke:#263238;stroke-linejoin:round" d="M184.58 198.32h12.89v14.56h-12.89z"/><path style="fill:#7d7d7d;stroke:#263238;stroke-linejoin:round" d="M197.66 198.32h12.89v14.56h-12.89z"/><path style="fill:#d4d4d4;stroke:#263238;stroke-linejoin:round" d="M210.75 198.32h12.89v14.56h-12.89z"/><path style="fill:#cfcfcf;stroke:#263238;stroke-linejoin:round" d="M223.84 198.32h12.89v14.56h-12.89z"/><path style="fill:#e8e8e8;stroke:#263238;stroke-linejoin:round" d="M236.93 198.32h12.89v14.56h-12.89z"/><path style="fill:#fff;stroke:#263238;stroke-linejoin:round" d="M250.01 198.32h12.89v14.56h-12.89zm13.09 0h12.89v14.56H263.1z"/><path style="fill:#263238" d="M276.19 198.32h12.89v14.56h-12.89z"/><path style="fill:#fff;stroke:#263238;stroke-linejoin:round" d="M289.28 198.32h12.89v14.56h-12.89zm13.08 0h12.89v14.56h-12.89z"/><path style="fill:#e8e8e8;stroke:#263238;stroke-linejoin:round" d="M150.9 183.32h12.89v14.56H150.9z"/><path style="fill:#cfcfcf;stroke:#263238;stroke-linejoin:round" d="M163.98 183.32h12.89v14.56h-12.89z"/><path style="fill:#333;stroke:#263238;stroke-linejoin:round" d="M177.07 183.32h12.89v14.56h-12.89z"/><path style="fill:#7d7d7d;stroke:#263238;stroke-linejoin:round" d="M190.16 183.32h12.89v14.56h-12.89z"/><path style="fill:#d4d4d4;stroke:#263238;stroke-linejoin:round" d="M203.25 183.32h12.89v14.56h-12.89z"/><path style="fill:#cfcfcf;stroke:#263238;stroke-linejoin:round" d="M216.33 183.32h12.89v14.56h-12.89z"/><path style="fill:#e8e8e8;stroke:#263238;stroke-linejoin:round" d="M229.42 183.32h12.89v14.56h-12.89z"/><path style="fill:#fff;stroke:#263238;stroke-linejoin:round" d="M242.51 183.32h12.89v14.56h-12.89zm13.09 0h12.89v14.56H255.6z"/><path style="fill:#263238" d="M268.68 183.32h12.89v14.56h-12.89z"/><path style="fill:#fff;stroke:#263238;stroke-linejoin:round" d="M281.77 183.32h12.89v14.56h-12.89zm13.09 0h12.89v14.56h-12.89z"/><path style="fill:#e8e8e8;stroke:#263238;stroke-linejoin:round" d="M157.1 168.03h12.89v14.56H157.1z"/><path style="fill:#cfcfcf;stroke:#263238;stroke-linejoin:round" d="M170.19 168.03h12.89v14.56h-12.89z"/><path style="fill:#333;stroke:#263238;stroke-linejoin:round" d="M183.28 168.03h12.89v14.56h-12.89z"/><path style="fill:#7d7d7d;stroke:#263238;stroke-linejoin:round" d="M196.37 168.03h12.89v14.56h-12.89z"/><path style="fill:#d4d4d4;stroke:#263238;stroke-linejoin:round" d="M209.45 168.03h12.89v14.56h-12.89z"/><path style="fill:#cfcfcf;stroke:#263238;stroke-linejoin:round" d="M222.54 168.03h12.89v14.56h-12.89z"/><path style="fill:#e8e8e8;stroke:#263238;stroke-linejoin:round" d="M235.63 168.03h12.89v14.56h-12.89z"/><path style="fill:#fff;stroke:#263238;stroke-linejoin:round" d="M248.72 168.03h12.89v14.56h-12.89zm13.08 0h12.89v14.56H261.8z"/><path style="fill:#263238" d="M274.89 168.03h12.89v14.56h-12.89z"/><path style="fill:#fff;stroke:#263238;stroke-linejoin:round" d="M287.98 168.03h12.89v14.56h-12.89zm13.09 0h12.89v14.56h-12.89z"/><path style="fill:#e8e8e8;stroke:#263238;stroke-linejoin:round" d="M156.21 153.03h12.89v14.56h-12.89z"/><path style="fill:#cfcfcf;stroke:#263238;stroke-linejoin:round" d="M169.3 153.03h12.89v14.56H169.3z"/><path style="fill:#333;stroke:#263238;stroke-linejoin:round" d="M182.39 153.03h12.89v14.56h-12.89z"/><path style="fill:#7d7d7d;stroke:#263238;stroke-linejoin:round" d="M195.48 153.03h12.89v14.56h-12.89z"/><path style="fill:#d4d4d4;stroke:#263238;stroke-linejoin:round" d="M208.56 153.03h12.89v14.56h-12.89z"/><path style="fill:#cfcfcf;stroke:#263238;stroke-linejoin:round" d="M221.65 153.03h12.89v14.56h-12.89z"/><path style="fill:#e8e8e8;stroke:#263238;stroke-linejoin:round" d="M234.74 153.03h12.89v14.56h-12.89z"/><path style="fill:#fff;stroke:#263238;stroke-linejoin:round" d="M247.83 153.03h12.89v14.56h-12.89zm13.08 0h12.89v14.56h-12.89z"/><path style="fill:#263238" d="M274 153.03h12.89v14.56H274z"/><path style="fill:#fff;stroke:#263238;stroke-linejoin:round" d="M287.09 153.03h12.89v14.56h-12.89zm13.09 0h12.89v14.56h-12.89z"/><path style="fill:#e8e8e8;stroke:#263238;stroke-linejoin:round" d="M158.06 138.02h12.89v14.56h-12.89z"/><path style="fill:#cfcfcf;stroke:#263238;stroke-linejoin:round" d="M171.14 138.02h12.89v14.56h-12.89z"/><path style="fill:#333;stroke:#263238;stroke-linejoin:round" d="M184.23 138.02h12.89v14.56h-12.89z"/><path style="fill:#7d7d7d;stroke:#263238;stroke-linejoin:round" d="M197.32 138.02h12.89v14.56h-12.89z"/><path style="fill:#d4d4d4;stroke:#263238;stroke-linejoin:round" d="M210.41 138.02h12.89v14.56h-12.89z"/><path style="fill:#cfcfcf;stroke:#263238;stroke-linejoin:round" d="M223.49 138.02h12.89v14.56h-12.89z"/><path style="fill:#e8e8e8;stroke:#263238;stroke-linejoin:round" d="M236.58 138.02h12.89v14.56h-12.89z"/><path style="fill:#fff;stroke:#263238;stroke-linejoin:round" d="M249.67 138.02h12.89v14.56h-12.89zm13.09 0h12.89v14.56h-12.89z"/><path style="fill:#263238" d="M275.84 138.02h12.89v14.56h-12.89z"/><path style="fill:#fff;stroke:#263238;stroke-linejoin:round" d="M288.93 138.02h12.89v14.56h-12.89zm13.09 0h12.89v14.56h-12.89z"/><path style="fill:#e8e8e8;stroke:#263238;stroke-linejoin:round" d="M156.21 123.01h12.89v14.56h-12.89z"/><path style="fill:#cfcfcf;stroke:#263238;stroke-linejoin:round" d="M169.3 123.01h12.89v14.56H169.3z"/><path style="fill:#333;stroke:#263238;stroke-linejoin:round" d="M182.39 123.01h12.89v14.56h-12.89z"/><path style="fill:#7d7d7d;stroke:#263238;stroke-linejoin:round" d="M195.48 123.01h12.89v14.56h-12.89z"/><path style="fill:#d4d4d4;stroke:#263238;stroke-linejoin:round" d="M208.56 123.01h12.89v14.56h-12.89z"/><path style="fill:#cfcfcf;stroke:#263238;stroke-linejoin:round" d="M221.65 123.01h12.89v14.56h-12.89z"/><path style="fill:#e8e8e8;stroke:#263238;stroke-linejoin:round" d="M234.74 123.01h12.89v14.56h-12.89z"/><path style="fill:#fff;stroke:#263238;stroke-linejoin:round" d="M247.83 123.01h12.89v14.56h-12.89zm13.08 0h12.89v14.56h-12.89z"/><path style="fill:#263238" d="M274 123.01h12.89v14.56H274z"/><path style="fill:#fff;stroke:#263238;stroke-linejoin:round" d="M287.09 123.01h12.89v14.56h-12.89zm13.09 0h12.89v14.56h-12.89z"/><path style="fill:#e8e8e8;stroke:#263238;stroke-linejoin:round" d="M158.4 108.01h12.89v14.56H158.4z"/><path style="fill:#cfcfcf;stroke:#263238;stroke-linejoin:round" d="M171.49 108.01h12.89v14.56h-12.89z"/><path style="fill:#333;stroke:#263238;stroke-linejoin:round" d="M184.58 108.01h12.89v14.56h-12.89z"/><path style="fill:#7d7d7d;stroke:#263238;stroke-linejoin:round" d="M197.66 108.01h12.89v14.56h-12.89z"/><path style="fill:#d4d4d4;stroke:#263238;stroke-linejoin:round" d="M210.75 108.01h12.89v14.56h-12.89z"/><path style="fill:#cfcfcf;stroke:#263238;stroke-linejoin:round" d="M223.84 108.01h12.89v14.56h-12.89z"/><path style="fill:#e8e8e8;stroke:#263238;stroke-linejoin:round" d="M236.93 108.01h12.89v14.56h-12.89z"/><path style="fill:#fff;stroke:#263238;stroke-linejoin:round" d="M250.01 108.01h12.89v14.56h-12.89zm13.09 0h12.89v14.56H263.1z"/><path style="fill:#263238" d="M276.19 108.01h12.89v14.56h-12.89z"/><path style="fill:#fff;stroke:#263238;stroke-linejoin:round" d="M289.28 108.01h12.89v14.56h-12.89zm13.08 0h12.89v14.56h-12.89z"/><path style="fill:#e8e8e8;stroke:#263238;stroke-linejoin:round" d="M150.9 93h12.89v14.56H150.9z"/><path style="fill:#cfcfcf;stroke:#263238;stroke-linejoin:round" d="M163.98 93h12.89v14.56h-12.89z"/><path style="fill:#333;stroke:#263238;stroke-linejoin:round" d="M177.07 93h12.89v14.56h-12.89z"/><path style="fill:#7d7d7d;stroke:#263238;stroke-linejoin:round" d="M190.16 93h12.89v14.56h-12.89z"/><path style="fill:#d4d4d4;stroke:#263238;stroke-linejoin:round" d="M203.25 93h12.89v14.56h-12.89z"/><path style="fill:#cfcfcf;stroke:#263238;stroke-linejoin:round" d="M216.33 93h12.89v14.56h-12.89z"/><path style="fill:#e8e8e8;stroke:#263238;stroke-linejoin:round" d="M229.42 93h12.89v14.56h-12.89z"/><path style="fill:#fff;stroke:#263238;stroke-linejoin:round" d="M242.51 93h12.89v14.56h-12.89zm13.09 0h12.89v14.56H255.6z"/><path style="fill:#263238" d="M268.68 93h12.89v14.56h-12.89z"/><path style="fill:#fff;stroke:#263238;stroke-linejoin:round" d="M281.77 93h12.89v14.56h-12.89zm13.09 0h12.89v14.56h-12.89z"/><path style="fill:#e8e8e8;stroke:#263238;stroke-linejoin:round" d="M256.49 438.42h12.89v14.56h-12.89z"/><path style="fill:#cfcfcf;stroke:#263238;stroke-linejoin:round" d="M269.58 438.42h12.89v14.56h-12.89z"/><path style="fill:#333;stroke:#263238;stroke-linejoin:round" d="M282.66 438.42h12.89v14.56h-12.89z"/><path style="fill:#7d7d7d;stroke:#263238;stroke-linejoin:round" d="M295.75 438.42h12.89v14.56h-12.89z"/><path style="fill:#d4d4d4;stroke:#263238;stroke-linejoin:round" d="M308.84 438.42h12.89v14.56h-12.89z"/><path style="fill:#cfcfcf;stroke:#263238;stroke-linejoin:round" d="M321.93 438.42h12.89v14.56h-12.89z"/><path style="fill:#e8e8e8;stroke:#263238;stroke-linejoin:round" d="M335.01 438.42h12.89v14.56h-12.89z"/><path style="fill:#fff;stroke:#263238;stroke-linejoin:round" d="M348.1 438.42h12.89v14.56H348.1zm13.09 0h12.89v14.56h-12.89z"/><path style="fill:#263238" d="M374.28 438.42h12.89v14.56h-12.89z"/><path style="fill:#fff;stroke:#263238;stroke-linejoin:round" d="M387.36 438.42h12.89v14.56h-12.89zm13.09 0h12.89v14.56h-12.89z"/><path style="fill:#e8e8e8;stroke:#263238;stroke-linejoin:round" d="M265.8 423.42h12.89v14.56H265.8z"/><path style="fill:#cfcfcf;stroke:#263238;stroke-linejoin:round" d="M278.88 423.42h12.89v14.56h-12.89z"/><path style="fill:#333;stroke:#263238;stroke-linejoin:round" d="M291.97 423.42h12.89v14.56h-12.89z"/><path style="fill:#7d7d7d;stroke:#263238;stroke-linejoin:round" d="M305.06 423.42h12.89v14.56h-12.89z"/><path style="fill:#d4d4d4;stroke:#263238;stroke-linejoin:round" d="M318.15 423.42h12.89v14.56h-12.89z"/><path style="fill:#cfcfcf;stroke:#263238;stroke-linejoin:round" d="M331.23 423.42h12.89v14.56h-12.89z"/><path style="fill:#e8e8e8;stroke:#263238;stroke-linejoin:round" d="M344.32 423.42h12.89v14.56h-12.89z"/><path style="fill:#fff;stroke:#263238;stroke-linejoin:round" d="M357.41 423.42h12.89v14.56h-12.89zm13.09 0h12.89v14.56H370.5z"/><path style="fill:#263238" d="M383.58 423.42h12.89v14.56h-12.89z"/><path style="fill:#fff;stroke:#263238;stroke-linejoin:round" d="M396.67 423.42h12.89v14.56h-12.89zm13.09 0h12.89v14.56h-12.89z"/><path style="fill:#e8e8e8;stroke:#263238;stroke-linejoin:round" d="M265.13 408.41h12.89v14.56h-12.89z"/><path style="fill:#cfcfcf;stroke:#263238;stroke-linejoin:round" d="M278.22 408.41h12.89v14.56h-12.89z"/><path style="fill:#333;stroke:#263238;stroke-linejoin:round" d="M291.31 408.41h12.89v14.56h-12.89z"/><path style="fill:#7d7d7d;stroke:#263238;stroke-linejoin:round" d="M304.39 408.41h12.89v14.56h-12.89z"/><path style="fill:#d4d4d4;stroke:#263238;stroke-linejoin:round" d="M317.48 408.41h12.89v14.56h-12.89z"/><path style="fill:#cfcfcf;stroke:#263238;stroke-linejoin:round" d="M330.57 408.41h12.89v14.56h-12.89z"/><path style="fill:#e8e8e8;stroke:#263238;stroke-linejoin:round" d="M343.66 408.41h12.89v14.56h-12.89z"/><path style="fill:#fff;stroke:#263238;stroke-linejoin:round" d="M356.74 408.41h12.89v14.56h-12.89zm13.09 0h12.89v14.56h-12.89z"/><path style="fill:#263238" d="M382.92 408.41h12.89v14.56h-12.89z"/><path style="fill:#fff;stroke:#263238;stroke-linejoin:round" d="M396.01 408.41h12.89v14.56h-12.89zm13.08 0h12.89v14.56h-12.89z"/><path style="fill:#e8e8e8;stroke:#263238;stroke-linejoin:round" d="M264.47 393.41h12.89v14.56h-12.89z"/><path style="fill:#cfcfcf;stroke:#263238;stroke-linejoin:round" d="M277.55 393.41h12.89v14.56h-12.89z"/><path style="fill:#333;stroke:#263238;stroke-linejoin:round" d="M290.64 393.41h12.89v14.56h-12.89z"/><path style="fill:#7d7d7d;stroke:#263238;stroke-linejoin:round" d="M303.73 393.41h12.89v14.56h-12.89z"/><path style="fill:#d4d4d4;stroke:#263238;stroke-linejoin:round" d="M316.82 393.41h12.89v14.56h-12.89z"/><path style="fill:#cfcfcf;stroke:#263238;stroke-linejoin:round" d="M329.9 393.41h12.89v14.56H329.9z"/><path style="fill:#e8e8e8;stroke:#263238;stroke-linejoin:round" d="M342.99 393.41h12.89v14.56h-12.89z"/><path style="fill:#fff;stroke:#263238;stroke-linejoin:round" d="M356.08 393.41h12.89v14.56h-12.89zm13.09 0h12.89v14.56h-12.89z"/><path style="fill:#263238" d="M382.25 393.41h12.89v14.56h-12.89z"/><path style="fill:#fff;stroke:#263238;stroke-linejoin:round" d="M395.34 393.41h12.89v14.56h-12.89zm13.09 0h12.89v14.56h-12.89z"/><path style="fill:#e8e8e8;stroke:#263238;stroke-linejoin:round" d="M253.17 378.4h12.89v14.56h-12.89z"/><path style="fill:#cfcfcf;stroke:#263238;stroke-linejoin:round" d="M266.25 378.4h12.89v14.56h-12.89z"/><path style="fill:#333;stroke:#263238;stroke-linejoin:round" d="M279.34 378.4h12.89v14.56h-12.89z"/><path style="fill:#7d7d7d;stroke:#263238;stroke-linejoin:round" d="M292.43 378.4h12.89v14.56h-12.89z"/><path style="fill:#d4d4d4;stroke:#263238;stroke-linejoin:round" d="M305.52 378.4h12.89v14.56h-12.89z"/><path style="fill:#cfcfcf;stroke:#263238;stroke-linejoin:round" d="M318.6 378.4h12.89v14.56H318.6z"/><path style="fill:#e8e8e8;stroke:#263238;stroke-linejoin:round" d="M331.69 378.4h12.89v14.56h-12.89z"/><path style="fill:#fff;stroke:#263238;stroke-linejoin:round" d="M344.78 378.4h12.89v14.56h-12.89zm13.09 0h12.89v14.56h-12.89z"/><path style="fill:#263238" d="M370.95 378.4h12.89v14.56h-12.89z"/><path style="fill:#fff;stroke:#263238;stroke-linejoin:round" d="M384.04 378.4h12.89v14.56h-12.89zm13.09 0h12.89v14.56h-12.89z"/><path style="fill:#e8e8e8;stroke:#263238;stroke-linejoin:round" d="M254.49 363.39h12.89v14.56h-12.89z"/><path style="fill:#cfcfcf;stroke:#263238;stroke-linejoin:round" d="M267.58 363.39h12.89v14.56h-12.89z"/><path style="fill:#333;stroke:#263238;stroke-linejoin:round" d="M280.67 363.39h12.89v14.56h-12.89z"/><path style="fill:#7d7d7d;stroke:#263238;stroke-linejoin:round" d="M293.76 363.39h12.89v14.56h-12.89z"/><path style="fill:#d4d4d4;stroke:#263238;stroke-linejoin:round" d="M306.84 363.39h12.89v14.56h-12.89z"/><path style="fill:#cfcfcf;stroke:#263238;stroke-linejoin:round" d="M319.93 363.39h12.89v14.56h-12.89z"/><path style="fill:#e8e8e8;stroke:#263238;stroke-linejoin:round" d="M333.02 363.39h12.89v14.56h-12.89z"/><path style="fill:#fff;stroke:#263238;stroke-linejoin:round" d="M346.11 363.39H359v14.56h-12.89zm13.09 0h12.89v14.56H359.2z"/><path style="fill:#263238" d="M372.28 363.39h12.89v14.56h-12.89z"/><path style="fill:#fff;stroke:#263238;stroke-linejoin:round" d="M385.37 363.39h12.89v14.56h-12.89zm13.09 0h12.89v14.56h-12.89z"/><path style="fill:#e8e8e8;stroke:#263238;stroke-linejoin:round" d="M269.78 348.39h12.89v14.56h-12.89z"/><path style="fill:#cfcfcf;stroke:#263238;stroke-linejoin:round" d="M282.87 348.39h12.89v14.56h-12.89z"/><path style="fill:#333;stroke:#263238;stroke-linejoin:round" d="M295.96 348.39h12.89v14.56h-12.89z"/><path style="fill:#7d7d7d;stroke:#263238;stroke-linejoin:round" d="M309.05 348.39h12.89v14.56h-12.89z"/><path style="fill:#d4d4d4;stroke:#263238;stroke-linejoin:round" d="M322.14 348.39h12.89v14.56h-12.89z"/><path style="fill:#cfcfcf;stroke:#263238;stroke-linejoin:round" d="M335.22 348.39h12.89v14.56h-12.89z"/><path style="fill:#e8e8e8;stroke:#263238;stroke-linejoin:round" d="M348.31 348.39h12.89v14.56h-12.89z"/><path style="fill:#fff;stroke:#263238;stroke-linejoin:round" d="M361.4 348.39h12.89v14.56H361.4zm13.09 0h12.89v14.56h-12.89z"/><path style="fill:#263238" d="M387.57 348.39h12.89v14.56h-12.89z"/><path style="fill:#fff;stroke:#263238;stroke-linejoin:round" d="M400.66 348.39h12.89v14.56h-12.89zm13.09 0h12.89v14.56h-12.89z"/><path style="fill:#e8e8e8;stroke:#263238;stroke-linejoin:round" d="M251.84 333.38h12.89v14.56h-12.89z"/><path style="fill:#cfcfcf;stroke:#263238;stroke-linejoin:round" d="M264.92 333.38h12.89v14.56h-12.89z"/><path style="fill:#333;stroke:#263238;stroke-linejoin:round" d="M278.01 333.38h12.89v14.56h-12.89z"/><path style="fill:#7d7d7d;stroke:#263238;stroke-linejoin:round" d="M291.1 333.38h12.89v14.56H291.1z"/><path style="fill:#d4d4d4;stroke:#263238;stroke-linejoin:round" d="M304.19 333.38h12.89v14.56h-12.89z"/><path style="fill:#cfcfcf;stroke:#263238;stroke-linejoin:round" d="M317.27 333.38h12.89v14.56h-12.89z"/><path style="fill:#e8e8e8;stroke:#263238;stroke-linejoin:round" d="M330.36 333.38h12.89v14.56h-12.89z"/><path style="fill:#fff;stroke:#263238;stroke-linejoin:round" d="M343.45 333.38h12.89v14.56h-12.89zm13.09 0h12.89v14.56h-12.89zm13.08 0h12.89v14.56h-12.89z"/><path style="fill:#263238" d="M382.71 333.38h12.89v14.56h-12.89z"/><path style="fill:#fff;stroke:#263238;stroke-linejoin:round" d="M395.8 333.38h12.89v14.56H395.8z"/><path style="fill:#e8e8e8;stroke:#263238;stroke-linejoin:round" d="M268.46 318.37h12.89v14.56h-12.89z"/><path style="fill:#cfcfcf;stroke:#263238;stroke-linejoin:round" d="M281.54 318.37h12.89v14.56h-12.89z"/><path style="fill:#333;stroke:#263238;stroke-linejoin:round" d="M294.63 318.37h12.89v14.56h-12.89z"/><path style="fill:#7d7d7d;stroke:#263238;stroke-linejoin:round" d="M307.72 318.37h12.89v14.56h-12.89z"/><path style="fill:#d4d4d4;stroke:#263238;stroke-linejoin:round" d="M320.81 318.37h12.89v14.56h-12.89z"/><path style="fill:#cfcfcf;stroke:#263238;stroke-linejoin:round" d="M333.89 318.37h12.89v14.56h-12.89z"/><path style="fill:#e8e8e8;stroke:#263238;stroke-linejoin:round" d="M346.98 318.37h12.89v14.56h-12.89z"/><path style="fill:#fff;stroke:#263238;stroke-linejoin:round" d="M360.07 318.37h12.89v14.56h-12.89zm13.09 0h12.89v14.56h-12.89z"/><path style="fill:#263238" d="M386.24 318.37h12.89v14.56h-12.89z"/><path style="fill:#fff;stroke:#263238;stroke-linejoin:round" d="M399.33 318.37h12.89v14.56h-12.89zm13.09 0h12.89v14.56h-12.89z"/><path style="fill:#e8e8e8;stroke:#263238;stroke-linejoin:round" d="M269.78 303.37h12.89v14.56h-12.89z"/><path style="fill:#cfcfcf;stroke:#263238;stroke-linejoin:round" d="M282.87 303.37h12.89v14.56h-12.89z"/><path style="fill:#333;stroke:#263238;stroke-linejoin:round" d="M295.96 303.37h12.89v14.56h-12.89z"/><path style="fill:#7d7d7d;stroke:#263238;stroke-linejoin:round" d="M309.05 303.37h12.89v14.56h-12.89z"/><path style="fill:#d4d4d4;stroke:#263238;stroke-linejoin:round" d="M322.14 303.37h12.89v14.56h-12.89z"/><path style="fill:#cfcfcf;stroke:#263238;stroke-linejoin:round" d="M335.22 303.37h12.89v14.56h-12.89z"/><path style="fill:#e8e8e8;stroke:#263238;stroke-linejoin:round" d="M348.31 303.37h12.89v14.56h-12.89z"/><path style="fill:#fff;stroke:#263238;stroke-linejoin:round" d="M361.4 303.37h12.89v14.56H361.4zm13.09 0h12.89v14.56h-12.89z"/><path style="fill:#263238" d="M387.57 303.37h12.89v14.56h-12.89z"/><path style="fill:#fff;stroke:#263238;stroke-linejoin:round" d="M400.66 303.37h12.89v14.56h-12.89zm13.09 0h12.89v14.56h-12.89z"/><path style="fill:#e8e8e8;stroke:#263238;stroke-linejoin:round" d="M256.49 288.36h12.89v14.56h-12.89z"/><path style="fill:#cfcfcf;stroke:#263238;stroke-linejoin:round" d="M269.58 288.36h12.89v14.56h-12.89z"/><path style="fill:#333;stroke:#263238;stroke-linejoin:round" d="M282.66 288.36h12.89v14.56h-12.89z"/><path style="fill:#7d7d7d;stroke:#263238;stroke-linejoin:round" d="M295.75 288.36h12.89v14.56h-12.89z"/><path style="fill:#d4d4d4;stroke:#263238;stroke-linejoin:round" d="M308.84 288.36h12.89v14.56h-12.89z"/><path style="fill:#cfcfcf;stroke:#263238;stroke-linejoin:round" d="M321.93 288.36h12.89v14.56h-12.89z"/><path style="fill:#e8e8e8;stroke:#263238;stroke-linejoin:round" d="M335.01 288.36h12.89v14.56h-12.89z"/><path style="fill:#fff;stroke:#263238;stroke-linejoin:round" d="M348.1 288.36h12.89v14.56H348.1zm13.09 0h12.89v14.56h-12.89z"/><path style="fill:#263238" d="M374.28 288.36h12.89v14.56h-12.89z"/><path style="fill:#fff;stroke:#263238;stroke-linejoin:round" d="M387.36 288.36h12.89v14.56h-12.89zm13.09 0h12.89v14.56h-12.89z"/><path style="fill:#e8e8e8;stroke:#263238;stroke-linejoin:round" d="M271.11 273.35H284v14.56h-12.89z"/><path style="fill:#cfcfcf;stroke:#263238;stroke-linejoin:round" d="M284.2 273.35h12.89v14.56H284.2z"/><path style="fill:#333;stroke:#263238;stroke-linejoin:round" d="M297.29 273.35h12.89v14.56h-12.89z"/><path style="fill:#7d7d7d;stroke:#263238;stroke-linejoin:round" d="M310.38 273.35h12.89v14.56h-12.89z"/><path style="fill:#d4d4d4;stroke:#263238;stroke-linejoin:round" d="M323.46 273.35h12.89v14.56h-12.89z"/><path style="fill:#cfcfcf;stroke:#263238;stroke-linejoin:round" d="M336.55 273.35h12.89v14.56h-12.89z"/><path style="fill:#e8e8e8;stroke:#263238;stroke-linejoin:round" d="M349.64 273.35h12.89v14.56h-12.89z"/><path style="fill:#fff;stroke:#263238;stroke-linejoin:round" d="M362.73 273.35h12.89v14.56h-12.89zm13.09 0h12.89v14.56h-12.89z"/><path style="fill:#263238" d="M388.9 273.35h12.89v14.56H388.9z"/><path style="fill:#fff;stroke:#263238;stroke-linejoin:round" d="M401.99 273.35h12.89v14.56h-12.89zm13.09 0h12.89v14.56h-12.89z"/><path style="fill:#e8e8e8;stroke:#263238;stroke-linejoin:round" d="M268.02 258.35h12.89v14.56h-12.89z"/><path style="fill:#cfcfcf;stroke:#263238;stroke-linejoin:round" d="M281.1 258.35h12.89v14.56H281.1z"/><path style="fill:#333;stroke:#263238;stroke-linejoin:round" d="M294.19 258.35h12.89v14.56h-12.89z"/><path style="fill:#7d7d7d;stroke:#263238;stroke-linejoin:round" d="M307.28 258.35h12.89v14.56h-12.89z"/><path style="fill:#d4d4d4;stroke:#263238;stroke-linejoin:round" d="M320.37 258.35h12.89v14.56h-12.89z"/><path style="fill:#cfcfcf;stroke:#263238;stroke-linejoin:round" d="M333.45 258.35h12.89v14.56h-12.89z"/><path style="fill:#e8e8e8;stroke:#263238;stroke-linejoin:round" d="M346.54 258.35h12.89v14.56h-12.89z"/><path style="fill:#fff;stroke:#263238;stroke-linejoin:round" d="M359.63 258.35h12.89v14.56h-12.89zm13.09 0h12.89v14.56h-12.89z"/><path style="fill:#263238" d="M385.8 258.35h12.89v14.56H385.8z"/><path style="fill:#fff;stroke:#263238;stroke-linejoin:round" d="M398.89 258.35h12.89v14.56h-12.89zm13.09 0h12.89v14.56h-12.89z"/><path style="fill:#e8e8e8;stroke:#263238;stroke-linejoin:round" d="M267.13 243.34h12.89v14.56h-12.89z"/><path style="fill:#cfcfcf;stroke:#263238;stroke-linejoin:round" d="M280.21 243.34h12.89v14.56h-12.89z"/><path style="fill:#333;stroke:#263238;stroke-linejoin:round" d="M293.3 243.34h12.89v14.56H293.3z"/><path style="fill:#7d7d7d;stroke:#263238;stroke-linejoin:round" d="M306.39 243.34h12.89v14.56h-12.89z"/><path style="fill:#d4d4d4;stroke:#263238;stroke-linejoin:round" d="M319.48 243.34h12.89v14.56h-12.89z"/><path style="fill:#cfcfcf;stroke:#263238;stroke-linejoin:round" d="M332.56 243.34h12.89v14.56h-12.89z"/><path style="fill:#e8e8e8;stroke:#263238;stroke-linejoin:round" d="M345.65 243.34h12.89v14.56h-12.89z"/><path style="fill:#fff;stroke:#263238;stroke-linejoin:round" d="M358.74 243.34h12.89v14.56h-12.89zm13.09 0h12.89v14.56h-12.89z"/><path style="fill:#263238" d="M384.91 243.34h12.89v14.56h-12.89z"/><path style="fill:#fff;stroke:#263238;stroke-linejoin:round" d="M398 243.34h12.89v14.56H398zm13.09 0h12.89v14.56h-12.89z"/><path style="fill:#e8e8e8;stroke:#263238;stroke-linejoin:round" d="M268.97 228.34h12.89v14.56h-12.89z"/><path style="fill:#cfcfcf;stroke:#263238;stroke-linejoin:round" d="M282.06 228.34h12.89v14.56h-12.89z"/><path style="fill:#333;stroke:#263238;stroke-linejoin:round" d="M295.14 228.34h12.89v14.56h-12.89z"/><path style="fill:#7d7d7d;stroke:#263238;stroke-linejoin:round" d="M308.23 228.34h12.89v14.56h-12.89z"/><path style="fill:#d4d4d4;stroke:#263238;stroke-linejoin:round" d="M321.32 228.34h12.89v14.56h-12.89z"/><path style="fill:#cfcfcf;stroke:#263238;stroke-linejoin:round" d="M334.41 228.34h12.89v14.56h-12.89z"/><path style="fill:#e8e8e8;stroke:#263238;stroke-linejoin:round" d="M347.49 228.34h12.89v14.56h-12.89z"/><path style="fill:#fff;stroke:#263238;stroke-linejoin:round" d="M360.58 228.34h12.89v14.56h-12.89zm13.09 0h12.89v14.56h-12.89z"/><path style="fill:#263238" d="M386.76 228.34h12.89v14.56h-12.89z"/><path style="fill:#fff;stroke:#263238;stroke-linejoin:round" d="M399.84 228.34h12.89v14.56h-12.89zm13.09 0h12.89v14.56h-12.89z"/><path style="fill:#e8e8e8;stroke:#263238;stroke-linejoin:round" d="M267.13 213.33h12.89v14.56h-12.89z"/><path style="fill:#cfcfcf;stroke:#263238;stroke-linejoin:round" d="M280.21 213.33h12.89v14.56h-12.89z"/><path style="fill:#333;stroke:#263238;stroke-linejoin:round" d="M293.3 213.33h12.89v14.56H293.3z"/><path style="fill:#7d7d7d;stroke:#263238;stroke-linejoin:round" d="M306.39 213.33h12.89v14.56h-12.89z"/><path style="fill:#d4d4d4;stroke:#263238;stroke-linejoin:round" d="M319.48 213.33h12.89v14.56h-12.89z"/><path style="fill:#cfcfcf;stroke:#263238;stroke-linejoin:round" d="M332.56 213.33h12.89v14.56h-12.89z"/><path style="fill:#e8e8e8;stroke:#263238;stroke-linejoin:round" d="M345.65 213.33h12.89v14.56h-12.89z"/><path style="fill:#fff;stroke:#263238;stroke-linejoin:round" d="M358.74 213.33h12.89v14.56h-12.89zm13.09 0h12.89v14.56h-12.89z"/><path style="fill:#263238" d="M384.91 213.33h12.89v14.56h-12.89z"/><path style="fill:#fff;stroke:#263238;stroke-linejoin:round" d="M398 213.33h12.89v14.56H398zm13.09 0h12.89v14.56h-12.89z"/><path style="fill:#e8e8e8;stroke:#263238;stroke-linejoin:round" d="M269.31 198.32h12.89v14.56h-12.89z"/><path style="fill:#cfcfcf;stroke:#263238;stroke-linejoin:round" d="M282.4 198.32h12.89v14.56H282.4z"/><path style="fill:#333;stroke:#263238;stroke-linejoin:round" d="M295.49 198.32h12.89v14.56h-12.89z"/><path style="fill:#7d7d7d;stroke:#263238;stroke-linejoin:round" d="M308.57 198.32h12.89v14.56h-12.89z"/><path style="fill:#d4d4d4;stroke:#263238;stroke-linejoin:round" d="M321.66 198.32h12.89v14.56h-12.89z"/><path style="fill:#cfcfcf;stroke:#263238;stroke-linejoin:round" d="M334.75 198.32h12.89v14.56h-12.89z"/><path style="fill:#e8e8e8;stroke:#263238;stroke-linejoin:round" d="M347.84 198.32h12.89v14.56h-12.89z"/><path style="fill:#fff;stroke:#263238;stroke-linejoin:round" d="M360.93 198.32h12.89v14.56h-12.89zm13.08 0h12.89v14.56h-12.89z"/><path style="fill:#263238" d="M387.1 198.32h12.89v14.56H387.1z"/><path style="fill:#fff;stroke:#263238;stroke-linejoin:round" d="M400.19 198.32h12.89v14.56h-12.89zm13.09 0h12.89v14.56h-12.89z"/><path style="fill:#e8e8e8;stroke:#263238;stroke-linejoin:round" d="M261.81 183.32h12.89v14.56h-12.89z"/><path style="fill:#cfcfcf;stroke:#263238;stroke-linejoin:round" d="M274.89 183.32h12.89v14.56h-12.89z"/><path style="fill:#333;stroke:#263238;stroke-linejoin:round" d="M287.98 183.32h12.89v14.56h-12.89z"/><path style="fill:#7d7d7d;stroke:#263238;stroke-linejoin:round" d="M301.07 183.32h12.89v14.56h-12.89z"/><path style="fill:#d4d4d4;stroke:#263238;stroke-linejoin:round" d="M314.16 183.32h12.89v14.56h-12.89z"/><path style="fill:#cfcfcf;stroke:#263238;stroke-linejoin:round" d="M327.25 183.32h12.89v14.56h-12.89z"/><path style="fill:#e8e8e8;stroke:#263238;stroke-linejoin:round" d="M340.33 183.32h12.89v14.56h-12.89z"/><path style="fill:#fff;stroke:#263238;stroke-linejoin:round" d="M353.42 183.32h12.89v14.56h-12.89zm13.09 0h12.89v14.56h-12.89z"/><path style="fill:#263238" d="M379.6 183.32h12.89v14.56H379.6z"/><path style="fill:#fff;stroke:#263238;stroke-linejoin:round" d="M392.68 183.32h12.89v14.56h-12.89zm13.09 0h12.89v14.56h-12.89z"/><path style="fill:#263238;stroke:#263238;stroke-miterlimit:10" d="M336.39 341v97.61h-5.16v14.43h-72.47z"/><path d="M323.74 393c-.23.49-.46 1-.7 1.48-.06.14-.13.27-.2.42q-2.43 5-5.15 9.65c-.08.13-.15.25-.22.39q-2.85 4.83-6 9.27l-.28.38c-2.19 3.11-4.48 6.07-6.85 8.85a4 4 0 0 1-.31.37 111 111 0 0 1-7.89 8.36l-.36.35a97 97 0 0 1-9.24 7.74l-.4.3a78.5 78.5 0 0 1-11.14 6.87l-.52.26a55 55 0 0 1-15.14 5c-.27 0-.55.1-.82.13A35.07 35.07 0 0 1 222 435.67c-.16-.23-.29-.47-.43-.71a55.2 55.2 0 0 1-5.87-14.82c-.06-.19-.1-.38-.14-.57a77.4 77.4 0 0 1-1.92-13 4 4 0 0 1 0-.5 97 97 0 0 1 0-12.05v-.49a113 113 0 0 1 1.36-11.38 4 4 0 0 1 .09-.47c.62-3.6 1.42-7.26 2.4-10.94l.12-.45q1.41-5.24 3.3-10.52a3 3 0 0 0 .15-.42q1.84-5.06 4.13-10.13c.06-.15.12-.28.18-.42l.69-1.49c1.33-2.84 2.74-5.61 4.21-8.28l.22-.41q2.7-4.89 5.69-9.4a4 4 0 0 1 .26-.38c2.09-3.16 4.28-6.15 6.54-9l.29-.36q3.64-4.55 7.54-8.53a4 4 0 0 1 .33-.35 102 102 0 0 1 8.74-8c.14-.1.27-.21.4-.32a86 86 0 0 1 10.44-7.18l.47-.27a63.4 63.4 0 0 1 13.37-5.83l.67-.18c9.54-2.69 18.84-2.38 27 1.47s14.42 10.8 18.47 19.84c.09.21.19.42.27.63a63 63 0 0 1 4.11 14c0 .18.07.37.09.54a85 85 0 0 1 1.17 12.61v.52a104 104 0 0 1-.52 11.82 4 4 0 0 1-.06.48 112 112 0 0 1-1.67 11.27c0 .16-.06.31-.09.46q-1.1 5.34-2.72 10.78a4 4 0 0 1-.12.45q-1.56 5.18-3.58 10.39c-.06.14-.12.28-.17.42q-1.68 4.28-3.67 8.5Z" style="fill:#fff;stroke:#263238;stroke-miterlimit:10"/><path d="M323.74 393c-.23.49-.46 1-.7 1.48-.06.14-.13.27-.2.42q-2.43 5-5.15 9.65c-.08.13-.15.25-.22.39q-2.85 4.83-6 9.27l-.28.38c-2.19 3.11-4.48 6.07-6.85 8.85a4 4 0 0 1-.31.37 111 111 0 0 1-7.89 8.36l-.36.35a97 97 0 0 1-9.24 7.74l-.4.3a78.5 78.5 0 0 1-11.14 6.87l-.52.26a55 55 0 0 1-15.14 5l-.82.13A35.07 35.07 0 0 1 222 435.67c-.16-.23-.29-.47-.43-.71a55.2 55.2 0 0 1-5.87-14.82c-.06-.19-.1-.38-.14-.57a77.4 77.4 0 0 1-1.92-13 4 4 0 0 1 0-.5 97 97 0 0 1 0-12.05v-.49a113 113 0 0 1 1.36-11.38 4 4 0 0 1 .09-.47c.62-3.6 1.42-7.26 2.4-10.94l.12-.45q1.41-5.24 3.3-10.52a3 3 0 0 0 .15-.42q1.84-5.06 4.13-10.13c.06-.15.12-.28.18-.42l.69-1.49c1.33-2.84 2.74-5.61 4.21-8.28l.22-.41q2.7-4.89 5.69-9.4a4 4 0 0 1 .26-.38c2.09-3.16 4.28-6.15 6.54-9l.29-.36q3.64-4.55 7.54-8.53a4 4 0 0 1 .33-.35 102 102 0 0 1 8.74-8c.14-.1.27-.21.4-.32a86 86 0 0 1 10.44-7.18l.47-.27a63.4 63.4 0 0 1 13.37-5.83l.67-.18c9.54-2.69 18.84-2.38 27 1.47s14.42 10.8 18.47 19.84l.27.63a63 63 0 0 1 4.11 14c0 .18.07.37.09.54a85 85 0 0 1 1.17 12.61v.52a104 104 0 0 1-.52 11.82 4 4 0 0 1-.06.48 112 112 0 0 1-1.67 11.27c0 .16-.06.31-.09.46q-1.1 5.34-2.72 10.78a4 4 0 0 1-.12.45q-1.56 5.18-3.58 10.39c-.06.14-.12.28-.17.42q-1.68 4.28-3.67 8.5Z" style="fill:#fff;stroke:#263238;stroke-linejoin:round"/><path d="m284.56 289 .67-.18c9.54-2.69 18.84-2.38 27 1.47s14.42 10.8 18.47 19.84Z" style="fill:#cfcfcf;stroke:#263238;stroke-linejoin:round"/><path d="m335.22 325.32-64.5-30.2.47-.27a63.4 63.4 0 0 1 13.37-5.85l.67-.18L331 310.8a63 63 0 0 1 4.11 14c.05.2.09.35.11.52Z" style="fill:#333;stroke:#263238;stroke-linejoin:round"/><path d="m336.4 338.45-76.52-35.83c.14-.1.27-.21.4-.32a86 86 0 0 1 10.44-7.18l.47-.27 63.94 29.93c0 .18.07.37.09.54a85 85 0 0 1 1.17 12.61c0 .17.01.35.01.52Z" style="fill:#7d7d7d;stroke:#263238;stroke-linejoin:round"/><path d="m335.82 350.75-85-39.8a4 4 0 0 1 .33-.35 102 102 0 0 1 8.74-8c.14-.1.27-.21.4-.32l76.11 35.63v.52a104 104 0 0 1-.52 11.82 4 4 0 0 1-.06.5Z" style="fill:#d4d4d4;stroke:#263238;stroke-linejoin:round"/><path d="m334 362.46-91-42.62.29-.36q3.64-4.55 7.54-8.53a4 4 0 0 1 .33-.35l84.74 39.67a4 4 0 0 1-.06.48 112 112 0 0 1-1.75 11.25c-.02.16-.09.31-.09.46Z" style="fill:#cfcfcf;stroke:#263238;stroke-linejoin:round"/><path d="m331.16 373.69-95-44.47a4 4 0 0 1 .26-.38c2.09-3.16 4.28-6.15 6.54-9l.29-.36L334.09 362c0 .16-.06.31-.09.46q-1.1 5.34-2.72 10.78a4 4 0 0 1-.12.45Z" style="fill:#cfcfcf;stroke:#263238;stroke-linejoin:round"/><path d="M327.41 384.5 230.27 339l.22-.41q2.7-4.89 5.69-9.4a4 4 0 0 1 .26-.38l94.84 44.4a4 4 0 0 1-.12.45q-1.56 5.18-3.58 10.39c-.06.17-.12.31-.17.45Z" style="fill:#e8e8e8;stroke:#263238;stroke-linejoin:round"/><path d="M323.74 393c-.23.49-.46 1-.7 1.48-.06.14-.13.27-.2.42l-97.65-45.72c.06-.15.12-.28.18-.42l.69-1.49c1.33-2.84 2.74-5.61 4.21-8.28l.22-.41 97.09 45.46c-.06.14-.12.28-.17.42q-1.68 4.32-3.67 8.54Z" style="fill:#f7f7f7;stroke:#263238;stroke-linejoin:round"/><path d="M323 394.52c-.06.14-.13.27-.2.42q-2.43 5-5.15 9.65c-.08.13-.15.25-.22.39l-96.56-45.21a3 3 0 0 0 .15-.42q1.84-5.06 4.13-10.13c.06-.15.12-.28.18-.42Z" style="fill:#fff;stroke:#263238;stroke-linejoin:round"/><path d="M317.69 404.59c-.08.13-.15.25-.22.39q-2.85 4.83-6 9.27l-.28.38-93.74-43.89.12-.45q1.41-5.24 3.3-10.52a3 3 0 0 0 .15-.42Z" style="fill:#fff;stroke:#263238;stroke-linejoin:round"/><path d="m311.51 414.25-.28.38c-2.19 3.11-4.48 6.07-6.85 8.85a4 4 0 0 1-.31.37L215 382.15a4 4 0 0 1 .09-.47c.62-3.6 1.42-7.26 2.4-10.94l.12-.45Z" style="fill:#fff;stroke:#263238;stroke-linejoin:round"/><path d="M304.38 423.48a4 4 0 0 1-.31.37 111 111 0 0 1-7.89 8.36l-.36.35-82.22-38.5v-.49a113 113 0 0 1 1.4-11.42 4 4 0 0 1 .09-.47Z" style="fill:#cfcfcf;stroke:#263238;stroke-linejoin:round"/><path d="m296.18 432.21-.36.35a97 97 0 0 1-9.24 7.74l-.4.3-72.59-34a4 4 0 0 1 0-.5 97 97 0 0 1 0-12.05v-.49Z" style="fill:#d4d4d4;stroke:#263238;stroke-linejoin:round"/><path d="m286.58 440.3-.4.3a78.5 78.5 0 0 1-11.18 6.83l-.52.26-58.83-27.55c-.06-.19-.1-.38-.14-.57a77.4 77.4 0 0 1-1.92-13 4 4 0 0 1 0-.5Z" style="fill:#7d7d7d;stroke:#263238;stroke-linejoin:round"/><path d="m275 447.43-.52.26a55 55 0 0 1-15.14 5l-37.39-17c-.16-.23-.29-.47-.43-.71a55.2 55.2 0 0 1-5.87-14.82c-.06-.19-.1-.38-.14-.57Z" style="fill:#333;stroke:#263238;stroke-linejoin:round"/><path d="M258.52 452.79A35.07 35.07 0 0 1 222 435.67c-.16-.23-.29-.47-.43-.71Z" style="fill:#cfcfcf;stroke:#263238;stroke-linejoin:round"/><ellipse cx="266.49" cy="366.24" rx="88.16" ry="53.93" transform="rotate(-64.91 266.505 366.244)" style="fill:#fff;stroke:#263238;stroke-miterlimit:10"/><path d="M283.58 420.35c-28.7.22-53.35 1.09-69.9 11.63a36.27 36.27 0 0 0 15.43 14.1c20.12 9.43 46.71-2.38 67.5-27.29a63 63 0 0 1-13.03 1.56Z" style="fill:#263238;stroke:#263238;stroke-miterlimit:10"/><ellipse cx="264.79" cy="365.44" rx="76.66" ry="45.02" transform="rotate(-64.91 264.81 365.453)" style="fill:#fff;stroke:#263238;stroke-linejoin:round"/><path d="M304.75 314.19c2.32-1.47 4.49-2.79 6.55-4-3.28-6.43-8-11.38-14-14.21C274.78 285.47 242 308 224 346.36a126 126 0 0 0-8.5 24.21 87.3 87.3 0 0 0 16.79-1.93c27.56-5.74 38.06-32.58 72.46-54.45Z" style="fill:#263238;stroke:#263238;stroke-miterlimit:10"/><path d="M227.94 348.19c17.42-37.19 48.85-59.55 71.27-51.19-.62-.35-1.26-.69-1.91-1-22.52-10.53-55.3 12-73.3 50.36s-14.25 78 8.27 88.51c.65.31 1.32.59 2 .84-20.78-11.86-23.76-50.29-6.33-87.52Z" style="fill:#263238;stroke:#263238;stroke-miterlimit:10"/><path d="M273 339.5c2.61-5.57 4.77-7.14 6.82-6.18s2.23 3.62-.38 9.19l-1.51 3.24 6.08 2.84 1.15-2.45c5-10.58 5.75-18.37 2-22.28l2.71-5.8-5.27-2.46-2.71 5.79c-5.39-.22-10.81 5.4-15.71 15.88-10.43 22.28 1.78 29-5.73 45-2.61 5.57-4.83 7-6.88 6s-2.4-3.57.21-9.14l2.87-6.13-6.09-2.85-2.5 5.35c-5 10.58-5.8 18.48-2 22.42l-2.66 5.69 5.27 2.46 2.66-5.68c5.4.35 11-5.32 15.93-15.91 10.46-22.26-1.76-28.93 5.74-44.98Z" style="fill:#263238;stroke:#263238;stroke-miterlimit:10"/><path d="M271.51 338.8c2.61-5.57 4.77-7.14 6.82-6.18s2.23 3.62-.38 9.19l-1.51 3.19 6.08 2.85 1.15-2.45c5-10.59 5.75-18.37 2-22.29l2.71-5.79-5.27-2.47-2.71 5.8c-5.39-.22-10.8 5.4-15.71 15.88-10.43 22.28 1.78 28.95-5.73 45-2.61 5.57-4.83 7-6.88 6s-2.4-3.56.21-9.14l2.87-6.12-6.08-2.85-2.51 5.35c-5 10.58-5.8 18.48-2 22.42l-2.66 5.68 5.27 2.47 2.66-5.68c5.4.35 11-5.32 15.93-15.91 10.45-22.24-1.77-28.91 5.74-44.95ZM232 367.61v1.53a84 84 0 0 1-.74 9.84c0 .14 0 .27-.06.4a82 82 0 0 1-1.95 9.84q0 .19-.12.42a81 81 0 0 1-3.26 9.83l-.17.42a85 85 0 0 1-4.79 9.83 4 4 0 0 1-.23.42 85 85 0 0 1-6.61 9.84c-.1.14-.21.27-.32.4a83 83 0 0 1-9.08 9.84l-.45.41a85 85 0 0 1-13.06 9.84l-.69.41a84.3 84.3 0 0 1-26.1 10.25 85.8 85.8 0 0 1-35.44 0 84.3 84.3 0 0 1-26.1-10.25l-.69-.41a85 85 0 0 1-13.06-9.84l-.45-.41a84.6 84.6 0 0 1-9.07-9.84c-.11-.13-.22-.26-.32-.4a85 85 0 0 1-6.61-9.84 4 4 0 0 1-.23-.42 83 83 0 0 1-4.79-9.83l-.17-.42a83 83 0 0 1-3.26-9.83 2.6 2.6 0 0 1-.11-.42 80 80 0 0 1-2-9.84L62 379a84 84 0 0 1-.73-9.84 3 3 0 0 1 0-.41v-1.12a87 87 0 0 1 .44-8.72c0-.14 0-.27.05-.41a82 82 0 0 1 1.63-9.84c0-.14.05-.28.09-.41a86 86 0 0 1 2.92-9.84c.06-.13.1-.27.15-.4a85 85 0 0 1 4.45-9.86c.06-.14.14-.28.21-.42a84 84 0 0 1 6.1-9.83 5 5 0 0 1 .3-.42 84 84 0 0 1 8.35-9.84l.4-.41a85.7 85.7 0 0 1 11.8-9.84l.59-.4a85.4 85.4 0 0 1 19.39-9.84l1.17-.41a85.9 85.9 0 0 1 54.76 0l1.18.41a85 85 0 0 1 19.33 9.85c.2.13.4.26.59.4a85.7 85.7 0 0 1 11.8 9.84c.14.13.27.27.4.41a84.4 84.4 0 0 1 8.36 9.84l.3.42a84 84 0 0 1 6.09 9.83 4 4 0 0 1 .22.42 83 83 0 0 1 4.38 9.84l.15.4a86 86 0 0 1 2.92 9.84c0 .13.07.27.09.41a82 82 0 0 1 1.64 9.84v.41a87 87 0 0 1 .48 8.71Z" style="fill:#fff;stroke:#263238;stroke-linejoin:round"/><path d="M175.2 287.15h-57.11l1.17-.41a85.9 85.9 0 0 1 54.76 0Z" style="fill:#fff;stroke:#263238;stroke-linejoin:round"/><path d="M195.17 297.39H98.11l.59-.4a85.4 85.4 0 0 1 19.39-9.84l1.17-.41H174l1.18.41a85 85 0 0 1 19.4 9.85c.2.12.42.25.59.39Z" style="fill:#cfcfcf;stroke:#263238;stroke-linejoin:round"/><path d="M207.37 307.64H85.91l.4-.41a85.7 85.7 0 0 1 11.8-9.84l.59-.4h95.88c.2.13.4.26.59.4a85.7 85.7 0 0 1 11.8 9.84c.14.13.27.27.4.41Z" style="fill:#333;stroke:#263238;stroke-linejoin:round"/><path d="M216 317.9H77.26a5 5 0 0 1 .3-.42 84 84 0 0 1 8.35-9.84l.4-.41H207c.14.13.27.27.4.41a84.4 84.4 0 0 1 8.36 9.84Z" style="fill:#7d7d7d;stroke:#263238;stroke-linejoin:round"/><path d="M222.34 328.15H71c.06-.14.14-.28.21-.42a84 84 0 0 1 6.1-9.83 5 5 0 0 1 .3-.42h138.12l.3.42a84 84 0 0 1 6.09 9.83 4 4 0 0 1 .22.42Z" style="fill:#d4d4d4;stroke:#263238;stroke-linejoin:round"/><path d="M226.87 338.39H66.42c.06-.13.1-.27.15-.4a85 85 0 0 1 4.43-9.84c.06-.14.14-.28.21-.42h151a4 4 0 0 1 .22.42 83 83 0 0 1 4.38 9.84Z" style="fill:#cfcfcf;stroke:#263238;stroke-linejoin:round"/><path d="M229.88 348.64H63.41c0-.14.05-.28.09-.41a86 86 0 0 1 2.92-9.84c.06-.13.1-.27.15-.4h160.15l.15.4a86 86 0 0 1 2.92 9.84c.03.13.07.27.09.41Z" style="fill:#cfcfcf;stroke:#263238;stroke-linejoin:round"/><path d="M231.56 358.89H61.73c0-.14 0-.27.05-.41a82 82 0 0 1 1.63-9.84c0-.14.05-.28.09-.41h166.29c0 .13.07.27.09.41a82 82 0 0 1 1.64 9.84c.01.14.03.27.04.41Z" style="fill:#e8e8e8;stroke:#263238;stroke-linejoin:round"/><path d="M232 367.61v1.53H61.31a3 3 0 0 1 0-.41v-1.12a87 87 0 0 1 .44-8.72c0-.14 0-.27.05-.41h169.72v.41a87 87 0 0 1 .48 8.72Z" style="fill:#f7f7f7;stroke:#263238;stroke-linejoin:round"/><path d="M232 368.73v.41a84 84 0 0 1-.74 9.84c0 .14 0 .27-.06.4H62.1L62 379a84 84 0 0 1-.73-9.84 3 3 0 0 1 0-.41Z" style="fill:#fff;stroke:#263238;stroke-linejoin:round"/><path d="M231.25 379c0 .14 0 .27-.06.4a82 82 0 0 1-1.95 9.84q0 .19-.12.42H64.17a2.6 2.6 0 0 1-.11-.42 80 80 0 0 1-2-9.84L62 379Z" style="fill:#fff;stroke:#263238;stroke-linejoin:round"/><path d="M229.24 389.22q0 .19-.12.42a81 81 0 0 1-3.26 9.83l-.17.42H67.6l-.17-.42a83 83 0 0 1-3.26-9.83 2.6 2.6 0 0 1-.11-.42Z" style="fill:#fff;stroke:#263238;stroke-linejoin:round"/><path d="m225.86 399.47-.17.42a85 85 0 0 1-4.79 9.83 4 4 0 0 1-.23.42h-148a4 4 0 0 1-.23-.42 83 83 0 0 1-4.79-9.83l-.17-.42Z" style="fill:#cfcfcf;stroke:#263238;stroke-linejoin:round"/><path d="M220.9 409.72a4 4 0 0 1-.23.42 85 85 0 0 1-6.61 9.84c-.1.14-.21.27-.32.4H79.55c-.11-.13-.22-.26-.32-.4a85 85 0 0 1-6.61-9.84 4 4 0 0 1-.23-.42Z" style="fill:#d4d4d4;stroke:#263238;stroke-linejoin:round"/><path d="M214.06 420c-.1.14-.21.27-.32.4a83 83 0 0 1-9.08 9.84l-.45.41H89.07l-.45-.41a84.6 84.6 0 0 1-9.07-9.84c-.11-.13-.22-.26-.32-.4Z" style="fill:#7d7d7d;stroke:#263238;stroke-linejoin:round"/><path d="m204.66 430.22-.45.41a85 85 0 0 1-13.06 9.84l-.69.41h-87.64l-.69-.41a85 85 0 0 1-13.06-9.84l-.45-.41Z" style="fill:#333;stroke:#263238;stroke-linejoin:round"/><path d="m191.15 440.47-.69.41a84.3 84.3 0 0 1-26.1 10.25h-35.44a84.3 84.3 0 0 1-26.1-10.25l-.69-.41Z" style="fill:#cfcfcf;stroke:#263238;stroke-linejoin:round"/><circle cx="139.89" cy="367.62" r="85.36" style="fill:#fff;stroke:#263238;stroke-linejoin:round"/><circle cx="139.89" cy="367.62" r="68.62" style="fill:#fff;stroke:#263238;stroke-linejoin:round"/><path d="M131.32 371.31c-12.71 25.43-35 32.75-48.24 34.81a68.62 68.62 0 1 0 111.14-80.39c-26.37 2.46-49.43 18.64-62.9 45.58" style="fill:#263238"/><path d="M71.26 367.62A68.61 68.61 0 0 0 138 436.19h1.1a68.61 68.61 0 0 1 0-137.1L138 299a68.61 68.61 0 0 0-66.74 68.62Z" style="fill:#263238;stroke:#263238;stroke-miterlimit:10"/><path d="M136.38 344.24c0-6.15 2.46-8.49 6.77-8.49s6.76 2.34 6.76 8.49v3.57h12.8v-2.71c0-11.69-4.92-19.07-14.52-21v-6.4h-11.07v6.4c-9.48 2.09-14.27 9.47-14.27 21 0 24.61 26.45 25.47 26.45 43.19 0 6.15-2.71 8.36-7 8.36s-7-2.21-7-8.36v-6.77h-12.82v5.9c0 11.69 4.92 19.2 14.64 21.17v6.27h11.07v-6.27c9.6-2 14.64-9.48 14.64-21.17 0-24.6-26.45-25.42-26.45-43.18Z" style="fill:#263238;stroke:#fff;stroke-miterlimit:10"/><path d="M133.69 344.24c0-6.15 2.47-8.49 6.77-8.49s6.77 2.34 6.77 8.49v3.57H160v-2.71c0-11.69-4.92-19.07-14.51-21v-6.4h-11.06v6.4c-9.47 2.09-14.27 9.47-14.27 21 0 24.61 26.45 25.47 26.45 43.19 0 6.15-2.7 8.36-7 8.36s-7-2.21-7-8.36v-6.77h-12.8v5.9c0 11.69 4.92 19.2 14.64 21.17v6.27h11.08v-6.27c9.59-2 14.64-9.48 14.64-21.17-.02-24.6-26.48-25.42-26.48-43.18Z" style="fill:#fff;stroke:#263238;stroke-linejoin:round"/><path d="m445.83 133.81-4.29 3a5.44 5.44 0 0 0-6.78-1.66c-4.28 1.94-14 11.9-16.87 21s6.64 19.51 4.84 23.38-6.92 5-6.5 11.49 23.52 15.21 34.58 10.09.42-17 2.91-20.89 9.68-2.76 9.68-14.24-2.19-17.3-6.36-24.35c-3.6-6.02-7.2-9.2-11.21-7.82" style="fill:#263238;stroke:#263238;stroke-linecap:round;stroke-linejoin:round"/><path d="M460.07 434.77a80 80 0 0 1-4.82 10c-2 3.08-7.45 3.38-5.4 5.89s7.25 3.34 11 .84 4.23-7.06 7.14-8.79 3.2-4.25 2.18-7.25-2.72-3.81-2.72-3.81-1.65 3.59-7.38 3.12" style="fill:#fff;stroke:#263238;stroke-linecap:round;stroke-linejoin:round"/><path d="M410.84 251.81s-4 18.83-2.57 33.38 3.73 27.68 5.14 32.81 12 53.65 12.84 54.22S446.28 399 450 409s10.83 26.79 10.83 26.79 3.89 1.87 6.46-.41 1.63-2.91 1.63-2.91-8.42-37.43-13-51.7-11.7-30.25-11.7-30.25 13.69-53.07 10.55-73.91-7.13-23.4-7.13-23.4-23.39 8.59-36.8-1.4" style="fill:#263238;stroke:#263238;stroke-linecap:round;stroke-linejoin:round"/><path d="M449.45 256.06a84.8 84.8 0 0 1 15.89 40c2.57 23.4-11.13 38.81-14 53.65s1.17 20.06-3.11 35.47-5.31 18.71-8.16 27.27-6.86 20.31-6.86 20.31-1.7 1.68-5.41 1.68-4.17-.08-4.17-.08 6.31-44.7 6.59-59 2-29.68 2-29.68-2-52.79 2.28-62.78 7.14-12.84 7.14-12.84" style="fill:#263238;stroke:#263238;stroke-linecap:round;stroke-linejoin:round"/><path d="M430.22 365.39c0-8.39.1-20.42.45-29.42.58-15.32 1.76-51.85 10-61.87m-10.43 101.27v-4.17" style="fill:none;stroke:#fff;stroke-linecap:round;stroke-linejoin:round"/><path d="M417.11 276.45s6.15 15.95 16.11 19.82" style="fill:none;stroke:#fff;stroke-linecap:round;stroke-linejoin:round"/><path d="M413.41 188.74a9.56 9.56 0 0 0-10 5.71c-3.13 6.85-16.41 33.79-16.41 37.22s3.73 12.76 9.89 7.58c3.61-3 14-24.82 14-24.82" style="fill:#92e3a9;stroke:#263238;stroke-linecap:round;stroke-linejoin:round"/><path d="M460.77 196.48c-2.62-8.16-18.67-8.58-19.92-8.85 0 0-.55.83-.55-1s1-8.58 1-8.58-10.93 0-12.73-3.87c0 0-.28 9.4-1.52 13 0 0-1.72 1.25-5.87 1.25s-11-1.67-13.08 4a11 11 0 0 0-.32 1.19c-1 3.76-4.11 15.51-4.47 20.59-.24 3.4 1.68 10 3.43 15.26.12 3.76.31 6.95.52 9 1 9.27.41 21.24 3.45 23.18s25.91 5.22 33.11 2.18 6.75-11.53 6.75-15.54 12.83-43.65 10.2-51.81" style="fill:#92e3a9;stroke:#263238;stroke-linecap:round;stroke-linejoin:round"/><path d="M421.24 215.76s1.76 7.66 11.19 11.79" style="fill:none;stroke:#263238;stroke-linecap:round;stroke-linejoin:round"/><path d="M450.35 189.11a66 66 0 0 0-9.5-1.48s-.55.83-.55-1 1-8.58 1-8.58-10.93 0-12.73-3.87c0 0-.28 9.4-1.52 13 0 0-4 .79-7.82 1.23.66 3.93 3.14 12.18 12.39 13.17 8.05.9 14.97-7.02 18.73-12.47m-.58-20.95s2.23-1.56 2 1.12-1.56 5.13-3.12 5.57a10.7 10.7 0 0 1-2.68.45ZM427 163s-2.23-2.46-2.45 1.56 2 5.13 2 5.13Z" style="fill:#fff;stroke:#263238;stroke-linecap:round;stroke-linejoin:round"/><path d="M439 149s-3.26 3.2-11.42 4c0 0-3.32 12.31-.41 20.61s8 9.55 12 8.44c6.83-1.88 12.18-15.77 13.7-21 .02.01-11.53-4.3-13.87-12.05" style="fill:#fff;stroke:#263238;stroke-linecap:round;stroke-linejoin:round"/><path d="M434.23 161.54c-.24 1-1 1.75-1.62 1.6s-1-1.11-.75-2.15 1-1.74 1.62-1.59.98 1.11.75 2.14m8.86 2.46c-.24 1-1 1.75-1.61 1.6s-1-1.11-.75-2.14 1-1.75 1.61-1.6.99 1.07.75 2.14" style="fill:#263238"/><path d="M435.13 167.86a2.85 2.85 0 0 0 2.54.92m-6.01.7s2.31 4.85 9.25 2.77M431.66 157s1.85-1.16 4.39.69m6.02.92a7.6 7.6 0 0 1 5.31 3" style="fill:none;stroke:#263238;stroke-linecap:round;stroke-linejoin:round"/><path d="M423.66 432.81s-3.42 8.17-10 12.4c-3.14 2-8.27 2.84-6.64 5.39s11.67 2.55 16.41.6 6.72-2.34 8.22-5.19 1.56-13.27 1.56-13.27a15.5 15.5 0 0 1-9.55.07m-8.05-201.9s-7.16-8.2-7.62-9-11.99-4.45-11.99-4.45a3.36 3.36 0 0 0-.06 2.22c.45.78 7.82 2.73 7.82 2.73l.66 1-10.1-1.41s-1.8.31-1.32 1.49 11.24 2.71 11.24 2.71l-11 .5a2.79 2.79 0 0 0 2.35 2.06c1.81.09 6.22-.19 6.22-.19s-5.18.73-4.09 2.07 6.63-.22 6.63-.22l4.39 2.74 4.43 3.14Z" style="fill:#fff;stroke:#263238;stroke-linecap:round;stroke-linejoin:round"/><path d="m452.06 205.66-7.39 30.6s-19.52-2.29-23.74-3.52a29 29 0 0 1-4.75-1.58l-3.05 5.14s13.6 8.23 24.51 11.92 14.77 6.68 17.58 1.93 7.74-33.59 9.15-43.26-.18-12.84-3.34-14.07a45 45 0 0 0-7.21-1.94" style="fill:#92e3a9;stroke:#263238;stroke-linecap:round;stroke-linejoin:round"/><path d="m392 227.58 41.42 5.68-1.42 5.34s-16.92 4-30.89 4.65c-17.9.79-15.54-11.27-12.4-16.69" style="fill:#92e3a9;stroke:#263238;stroke-linecap:round;stroke-linejoin:round"/><path d="M433.38 233.26s10.71-2.47 11.55-2.81 12.17 3.85 12.17 3.85-.49 1.45-1.32 1.78-7.84-2.67-7.84-2.67l-1.12.35 8.84 5.17s1.22 1.36.11 2-10.52-4.79-10.52-4.79l8.39 7.19a2.8 2.8 0 0 1-3.12.18c-1.48-1.05-4.78-4-4.78-4s3.63 3.77 1.94 4.16-5.08-4.26-5.08-4.26l-5.15-.55-5.45-.26Z" style="fill:#fff;stroke:#263238;stroke-linecap:round;stroke-linejoin:round"/><path style="fill:none;stroke:#263238;stroke-linejoin:round" d="M30 452.98h454"/></svg>