<svg xmlns="http://www.w3.org/2000/svg" viewBox="0 0 500 500"><defs><clipPath id="a"><path d="M136.74 252.74c-2.91-5.61-4.13-9.63-4.13-10.56 0-1.84 4-2.94 4-2.94 6.24-3.3 35.59 1.47 48.8 3.67a151 151 0 0 0 22.38 2.2s1.83-1.46 4-3.3 12.47-13.94 16.51-15 7.7 1.47 7.7 1.47 6.61 4 5.5 4.77-17.24 14.67-21.28 17.24-12.47 1.47-19.81 2.94c-6.32 1.26-31.92 2.82-37.79 3.3a21.33 21.33 0 0 1-13.21-1.1" style="fill:#fff;stroke:#263238;stroke-linecap:round;stroke-linejoin:round"/></clipPath><clipPath id="b"><path d="M281.65 285.36a7.81 7.81 0 0 1 6.92-4.17h66.7s4.82 0 3.38 9.16-21.22 65.09-26 82-5.79 52.55-5.79 52.55h-80s6.34-85.23 34.79-139.54" style="fill:#fff;stroke:#263238;stroke-linecap:round;stroke-linejoin:round"/></clipPath><clipPath id="c"><path d="M132.61 242.18a2 2 0 0 0 0 .21 2 2 0 0 1 0-.21m4.13 10.56a48 48 0 0 1-4-9.72 47.5 47.5 0 0 0 4 9.72m-4.11-10.29v.22c.02-.09.01-.16 0-.22m.05.28a2 2 0 0 0 .06.29 2 2 0 0 1-.06-.29m4.06 10a91.6 91.6 0 0 0 13.84 19.52c13.21 14.31 51.37 51.74 55 54.31s2.57 9.9 0 17.24-12.11 18-11.74 29.72 4 29.72 3.67 33.39-9.51 16.15-9.51 16.15h94.66s-11.8-15-11.8-20.13 16.2-70.86 16.93-75.63-2.2-8.07-8.07-8.44-28.25-5.14-29.35-8.81 5.87-17.61 5.87-17.61l-22 1.1s-1.1 9.54-2.57 11.38-3.67-1.84-8.81-4.4-15-4.77-18.71-7.71-38.89-36-38.89-36" style="fill:#fff;stroke:#263238;stroke-linecap:round;stroke-linejoin:round"/></clipPath><clipPath id="d"><path d="M250.38 310.05c-1.1-3.66 5.87-17.61 5.87-17.61l-22 1.1s-1.1 9.54-2.57 11.38-3.67-1.84-8.81-4.4c-.39-.2-.82-.39-1.26-.58l-1.33 20.91s1.93 20.25 25.07 16.4c9.37-1.56 19.37-9.92 28-19.32-8.88-1.63-22.13-5.07-22.97-7.88" style="fill:#fff;stroke:#263238;stroke-linecap:round;stroke-linejoin:round"/></clipPath><clipPath id="e"><path d="M231.67 304.92c-1.47 1.83-3.67-1.84-8.81-4.4-3.24-1.63-8.4-3.11-12.67-4.71-1.21-2.87-2.81-6.61-3.84-8.87-1.83-4-4.77-1.47-4.77-1.47a21.4 21.4 0 0 1-3.67-5.87c-1.83-4-4.77-3.67-8.8-4.4s-12.48-8.44-12.48-8.44-3.95-3-5.58-4.49c-1.9 3.74-6.45 10.32-16.29 14.43 15.69 16.39 47.52 47.53 50.86 49.87 3.67 2.56 2.57 9.9 0 17.24s-12.11 18-11.74 29.72 4 29.72 3.67 33.39c-.33 3.27-7.65 13.52-9.24 15.72l3.73.42h19.42c-.11-9.84-.1-50 6.63-66 7.71-18.39 13.58-52.14 13.58-52.14" style="fill:#92e3a9;stroke:#263238;stroke-linecap:round;stroke-linejoin:round"/></clipPath><clipPath id="f"><path d="M231.93 303.64s-4.56-1.4-7.37 1.06-7 15.08-9.47 28.77a38.26 38.26 0 0 0 3 23.55s5.77-15.13 7.52-22.5 6.32-30.88 6.32-30.88" style="fill:#92e3a9;stroke:#263238;stroke-linecap:round;stroke-linejoin:round"/></clipPath><clipPath id="g"><path d="M239.89 423.06h42.78s-11.8-15-11.8-20.13 16.2-70.86 16.93-75.63-2.2-8.07-8.07-8.44-28.25-5.14-29.35-8.81c0 0-8.44 29.72-11.37 49.9-2.52 17.31.09 53.23.88 63.11" style="fill:#92e3a9;stroke:#263238;stroke-linecap:round;stroke-linejoin:round"/></clipPath><clipPath id="h"><path d="M250.38 310.05s-11.32 36-11.37 49.9c0 0 16.08-19.47 18.18-33.15s-6.81-16.75-6.81-16.75" style="fill:#92e3a9;stroke:#263238;stroke-linecap:round;stroke-linejoin:round"/></clipPath><clipPath id="i"><path d="M371.23 416.29s8.29.34 13.72 1.12a99 99 0 0 0 10.92.87s-3-6.06-6.2-7.77-9-4.77-13.86-4.09-11.81 5.58-11.23 7.14 3.17 2.26 6.65 2.73" style="fill:#fff;stroke:#263238;stroke-linecap:round;stroke-linejoin:round"/></clipPath><clipPath id="j"><path d="M385 413.81s6.57-3.41 8.21-3.36 12.54 7.42 12 8.6a3.14 3.14 0 0 1-3.44 1.28c-1.21-.57-8.55-3.69-8.55-3.69l-4.8 1.13Z" style="fill:#fff;stroke:#263238;stroke-linecap:round;stroke-linejoin:round"/></clipPath><clipPath id="k"><path d="M380.31 408.2s8.76-.28 10.5.6 9.6 14.36 8.42 15.34-4.44.69-4.34-.4-7.24-8.31-7.24-8.31l-5.71-1.25Z" style="fill:#fff;stroke:#263238;stroke-linecap:round;stroke-linejoin:round"/></clipPath><clipPath id="l"><path d="M375.12 406.39s8.87-.29 10.63.61 9.72 14.53 8.52 15.53-4.48.69-4.38-.41-7.33-8.41-7.33-8.41l-5.78-1.27Z" style="fill:#fff;stroke:#263238;stroke-linecap:round;stroke-linejoin:round"/></clipPath><clipPath id="m"><path d="M274.27 355.57c6.42 9.89 19.31 34.95 23.07 37.77 5.87 4.4 45.11 15.08 48.89 18s3.52 5.85 7.1 6.92 17 4.14 22.12 4.62 2.83-2.69 2.83-2.69l-8.73-6 7.61-1.88s7.63 9.18 9.06 9.68 3.95 0 3.79-1.13c-.28-1.81-8.42-16.62-11.31-17.25s-20.43 1.8-20.43 1.8-36.79-24.81-37.45-25.69c0 0-2.2-6.24-4-8.81s-2.94-1.83-2.94-1.83.74-3.31-.36-4.41l-5.87-5.87-.21.28c-1-2-2-4.28-3.1-6.88-3.07-7.23-13.94-27.52-15.77-30.45-1.37-2.19-12.85-3.76-18.67-4.42" style="fill:#92e3a9;stroke:#263238;stroke-linecap:round;stroke-linejoin:round"/></clipPath><clipPath id="n"><path d="M346.23 411.35c3.79 2.93 3.52 5.85 7.1 6.92s17 4.14 22.12 4.62 2.83-2.69 2.83-2.69l-8.73-6 7.61-1.88s7.63 9.18 9.06 9.68 4.15.68 3.79-1.13c-.7-3.5-8.42-16.62-11.31-17.25s-20.43 1.8-20.43 1.8-33.51-23-37.18-25.49c-14.23 1.37-21 8.82-23.85 13.29l.1.08c5.87 4.44 45.11 15.12 48.89 18.05" style="fill:#fff;stroke:#263238;stroke-linecap:round;stroke-linejoin:round"/></clipPath><clipPath id="o"><path d="m257.85 236.73-30.12 12.57a44.4 44.4 0 0 1-3.87 15.31c-3.56 7.53-1.48 21.78 1.94 29.47s18.49 4.68 24 3.72a59.4 59.4 0 0 0 10.93-3.19 10.16 10.16 0 0 0 9.76-1.36s-16.12-45.25-12.64-56.52" style="fill:#fff;stroke:#263238;stroke-linecap:round;stroke-linejoin:round"/></clipPath><clipPath id="p"><path d="M158 417.38a17.7 17.7 0 0 1-6.3-1.5 2.18 2.18 0 1 1 1.72-4c2 .85 4.59 1.38 5.28 1.08 1.27-1.42 3.22-10 .7-14.14-.57-.92-1.1-1.09-1.45-1.13-1.43-.2-3.55 1.27-4.3 2a2.18 2.18 0 1 1-3-3.18c.39-.38 4-3.63 7.85-3.11a6.28 6.28 0 0 1 4.58 3.16c3.71 6.05 1.17 17.56-1.68 19.84a5.38 5.38 0 0 1-3.4.98" style="fill:#fff;stroke:#263238;stroke-linecap:round;stroke-linejoin:round"/></clipPath><clipPath id="q"><path style="fill:#fff;stroke:#263238;stroke-linecap:round;stroke-linejoin:round" d="M130.13 391.58h24.05v31.92h-24.05z"/></clipPath></defs><path d="M440.71 263.76c2-26.57-4.18-54.31-12.46-79-12.25-36.76-36.17-74.43-76.37-83.13-23.18-5-46.77.36-66.65 12.92-19.11 12.08-34 27.69-57.51 30.71-23.77 3.06-48.16 1.83-72.05 1.83-61.43 0-111.28 64.53-98.82 131.75s71.22 113.83 121.07 113.83c44.8 0 81.66-26.87 124.21-34.09 21.1-3.58 42.29.66 63.17-4.7 24.27-6.24 47.09-21.11 60.54-42.64 9.16-14.68 13.62-30.85 14.87-47.48" style="fill:#92e3a9"/><path d="M440.71 263.76c2-26.57-4.18-54.31-12.46-79-12.25-36.76-36.17-74.43-76.37-83.13-23.18-5-46.77.36-66.65 12.92-19.11 12.08-34 27.69-57.51 30.71-23.77 3.06-48.16 1.83-72.05 1.83-61.43 0-111.28 64.53-98.82 131.75s71.22 113.83 121.07 113.83c44.8 0 81.66-26.87 124.21-34.09 21.1-3.58 42.29.66 63.17-4.7 24.27-6.24 47.09-21.11 60.54-42.64 9.16-14.68 13.62-30.85 14.87-47.48" style="fill:#fff;opacity:.7000000000000001"/><path d="M433.52 254.43s0-5-7-11.93-11.44-10.95-11.44-10.95-3.48 11.44 3 18.41a122.5 122.5 0 0 0 15.42 13.42Zm-10.1 31.06s0-5-7-11.93S405 262.61 405 262.61s-3.49 11.44 3 18.41a122.5 122.5 0 0 0 15.42 13.42Z" style="fill:#92e3a9"/><path d="M433.08 262.9s.53-4.94 8.19-11.13 12.53-9.67 12.53-9.67 2.25 11.74-4.91 18a122.5 122.5 0 0 1-16.75 11.72Zm-12.2 36.68s1-4.86 9.31-10.21 13.47-8.3 13.47-8.3 1 11.92-6.77 17.37a122.7 122.7 0 0 1-17.89 9.9Zm2.29 40s0-5 7-11.94 11.43-10.94 11.43-10.94 3.49 11.44-3 18.4a122 122 0 0 1-15.42 13.43Z" style="fill:#92e3a9"/><path d="M423.06 349.34s.7-4.92-5.2-12.8-9.77-12.46-9.77-12.46-5.07 10.83.34 18.64a122.3 122.3 0 0 0 13.35 15.48Zm-6.87 28.93s0-5 7-11.93 11.44-10.95 11.44-10.95 3.48 11.44-3 18.41a123 123 0 0 1-15.42 13.43Zm4.65 26.23s-1.26-4.81 3.71-13.31 8.3-13.48 8.3-13.48 6.26 10.18 1.77 18.56a122.4 122.4 0 0 1-11.51 16.89Z" style="fill:#92e3a9"/><path d="M434.15 253.16a142 142 0 0 1-1.9 15.44c-2.76 14.22-9.64 23.4-12.39 36.24s5.15 29.39 3 45.89-8.53 25.67-6.7 36.68 11.47 40.83 11.47 40.83m5.39-162.03 7.5-5.76m-7.15-.87-3.15-5.59" style="fill:none;stroke:#263238;stroke-linecap:round;stroke-linejoin:round"/><path d="M420.28 304.25s6.28-4.71 12.74-9.42m-9.6-.39s-5.24-10.26-11.17-17.06m11.17 69.28a77.5 77.5 0 0 1 13.44-18m-14.66 24.98a87.4 87.4 0 0 0-6.81-12.92c-3.66-5.41-4.19-6.11-4.19-6.11m4.99 52.8a84 84 0 0 1 5.66-11.41 73 73 0 0 1 7.33-9.6m-6.07 46.76a21.25 21.25 0 0 1 1.88-11c2.62-5.06 5.58-11.69 6.8-14.31" style="fill:none;stroke:#263238;stroke-linecap:round;stroke-linejoin:round"/><path d="M376.7 320.88s-.54-3.12 3.07-8.25 6-8.1 6-8.1 3.42 6.8.12 11.86a78 78 0 0 1-8.21 10.1Zm9.71 18.38s-.54-3.12 3.07-8.25 6-8.1 6-8.1 3.42 6.8.12 11.87a78.5 78.5 0 0 1-8.21 10.09Z" style="fill:#92e3a9"/><path d="M377.89 326.14s-.86-3-6.34-6.09-8.9-4.71-8.9-4.71-.14 7.61 5 10.75a78.3 78.3 0 0 0 11.77 5.53Zm11.64 21.68s-1.18-2.94-6.94-5.4-9.36-3.74-9.36-3.74.66 7.58 6.14 10.16a78 78 0 0 0 12.29 4.26Zm2.9 25.33s-.53-3.12-5.66-6.73-8.36-5.62-8.36-5.62-.94 7.55 3.87 11.21a77.4 77.4 0 0 0 11.13 6.75Z" style="fill:#92e3a9"/><path d="M393.57 379.26s-1-3 1.87-8.6 4.77-8.87 4.77-8.87 4.35 6.24 1.81 11.73a77.5 77.5 0 0 1-6.69 11.15Zm8.74 25.15s.36-3.14 5.27-7 8-6.09 8-6.09 1.37 7.49-3.22 11.42a78 78 0 0 1-10.72 7.37Zm-1.31-7.76s-.54-3.12-5.66-6.73-8.34-5.62-8.34-5.62-.94 7.55 3.87 11.22a78.4 78.4 0 0 0 11.13 6.75Zm0 16.96s.26-3.16-3.78-7.95-6.66-7.55-6.66-7.55-2.83 7.06.9 11.83a77.6 77.6 0 0 0 9 9.34Z" style="fill:#92e3a9"/><path d="M376.17 320.14a90 90 0 0 0 2.87 9.48c3.27 8.62 8.58 13.63 11.7 21.38s0 19 3.08 29.11 8.18 15.17 8.18 22.27-2.76 26.85-2.76 26.85M378.3 328.2l-5.33-2.79m4.39-1.33 1.36-3.84" style="fill:none;stroke:#263238;stroke-linecap:round;stroke-linejoin:round"/><path d="M390.41 350.68s-4.45-2.27-9-4.53m5.97-1.28a64 64 0 0 1 5.15-11.87m.52 44.61a49.5 49.5 0 0 0-10.38-9.81m11.9 14.05a56 56 0 0 1 2.87-8.83c1.71-3.79 2-4.29 2-4.29m2.32 39.04a47 47 0 0 1 5.74-5.95 30 30 0 0 0 3.72-3.24m-9.22 3.8a54 54 0 0 0-4.79-6.56 46.7 46.7 0 0 0-5.64-5.22m8.89 28.68a13.53 13.53 0 0 0-2.37-6.7c-2.19-2.89-4.77-6.73-5.82-8.24" style="fill:none;stroke:#263238;stroke-linecap:round;stroke-linejoin:round"/><path style="fill:#92e3a9" d="m92.67 277.32-4.38-12.51 4.38 5.31-3.44-18.77 5.32 13.46 1.88-26.29 3.13 25.03 3.44-5v6.26l4.07-8.45-2.19 14.7 3.75-2.5-5.94 8.13z"/><path style="fill:#263238;stroke:#263238;stroke-linecap:round;stroke-linejoin:round" d="M106.44 274.19H90.17l2.93 32.85h10.41z"/><path style="fill:#fff;stroke:#263238;stroke-linecap:round;stroke-linejoin:round" d="M81.53 306.67h55.43v117.4H81.53z"/><path style="fill:#fff;stroke:#263238;stroke-linecap:round;stroke-linejoin:round" d="M109.24 306.67h30.75v117.4h-30.75z"/><path style="fill:#263238;stroke:#263238;stroke-linecap:round;stroke-linejoin:round" d="M109.24 306.67h27.29v117.4h-27.29z"/><path style="fill:#92e3a9;stroke:#263238;stroke-linecap:round;stroke-linejoin:round" d="M109.24 396.77h24.22v24.04h-24.22z"/><path style="fill:#fff;stroke:#263238;stroke-linecap:round;stroke-linejoin:round" d="M109.24 398.07h24.22v3.08h-24.22zm0 17.7h24.22v3.08h-24.22z"/><path style="fill:none;stroke:#263238;stroke-linecap:round;stroke-linejoin:round" d="M113.83 397.27v30.4m8.45-30.4v30.4m7.42-30.4v30.4"/><path style="fill:#92e3a9;stroke:#263238;stroke-linecap:round;stroke-linejoin:round" d="M109.24 311.03h24.22v35.35h-24.22z"/><path style="fill:#fff;stroke:#263238;stroke-linecap:round;stroke-linejoin:round" d="M109.24 312.51h24.22v3.5h-24.22zm0 22.66h24.22v3.5h-24.22z"/><path style="fill:none;stroke:#263238;stroke-linecap:round;stroke-linejoin:round" d="M113.83 311.59v34.55m8.45-34.55v34.55m7.42-34.55v34.55"/><path style="fill:#92e3a9;stroke:#263238;stroke-linecap:round;stroke-linejoin:round" d="M109.24 353.63h24.22v35.35h-24.22z"/><path style="fill:#fff;stroke:#263238;stroke-linecap:round;stroke-linejoin:round" d="M109.24 355.11h24.22v3.5h-24.22zm0 22.66h24.22v3.5h-24.22z"/><path style="fill:none;stroke:#263238;stroke-linecap:round;stroke-linejoin:round" d="M113.83 354.2v34.54m8.45-34.54v34.54m7.42-34.54v34.54"/><path style="fill:#fff;stroke:#263238;stroke-linecap:round;stroke-linejoin:round" d="M109.24 345.89h27.71v4.02h-27.71zm0 42.87h27.71v4.02h-27.71z"/><path style="fill:none;stroke:#263238;stroke-linecap:round;stroke-linejoin:round" d="M136.95 306.67v117.39"/><path style="fill:#fff;stroke:#263238;stroke-linecap:round;stroke-linejoin:round" d="M105.33 306.67v117.39h3.91V311.03h27.23v-4.41z"/><path style="fill:none;stroke:#263238;stroke-linecap:round;stroke-linejoin:round" d="M109.24 311.03v-4.36"/><path d="M136.74 252.74c-2.91-5.61-4.13-9.63-4.13-10.56 0-1.84 4-2.94 4-2.94 6.24-3.3 35.59 1.47 48.8 3.67a151 151 0 0 0 22.38 2.2s1.83-1.46 4-3.3 12.47-13.94 16.51-15 7.7 1.47 7.7 1.47 6.61 4 5.5 4.77-17.24 14.67-21.28 17.24-12.47 1.47-19.81 2.94c-6.32 1.26-31.92 2.82-37.79 3.3a21.33 21.33 0 0 1-13.21-1.1" style="fill:#fff"/><g style="clip-path:url(#a)"><path d="M236.07 228.24s-3.67-2.57-7.7-1.47-14.31 13.21-16.51 15-4 3.3-4 3.3a151 151 0 0 1-22.38-2.2c-13.21-2.2-42.56-7-48.8-3.67 0 0-4 1.1-4 2.94a12.6 12.6 0 0 0 .79 3l.55.2s7.33-.77 23.15-.39 52.41 2.55 54.76 3.4c1 .38 8.09-1.22 15.95-4 6-4.89 13.05-11 13.76-11.43 1.04-.65-5.57-4.68-5.57-4.68" style="fill:#92e3a9"/><path d="M236.07 228.24s-3.67-2.57-7.7-1.47-14.31 13.21-16.51 15-4 3.3-4 3.3a151 151 0 0 1-22.38-2.2c-13.21-2.2-42.56-7-48.8-3.67 0 0-4 1.1-4 2.94a12.6 12.6 0 0 0 .79 3l.55.2s7.33-.77 23.15-.39 52.41 2.55 54.76 3.4c1 .38 8.09-1.22 15.95-4 6-4.89 13.05-11 13.76-11.43 1.04-.65-5.57-4.68-5.57-4.68" style="fill:#fff;opacity:.5"/></g><path d="M136.74 252.74c-2.91-5.61-4.13-9.63-4.13-10.56 0-1.84 4-2.94 4-2.94 6.24-3.3 35.59 1.47 48.8 3.67a151 151 0 0 0 22.38 2.2s1.83-1.46 4-3.3 12.47-13.94 16.51-15 7.7 1.47 7.7 1.47 6.61 4 5.5 4.77-17.24 14.67-21.28 17.24-12.47 1.47-19.81 2.94c-6.32 1.26-31.92 2.82-37.79 3.3a21.33 21.33 0 0 1-13.21-1.1" style="fill:none;stroke:#263238;stroke-linecap:round;stroke-linejoin:round"/><path d="M281.65 285.36a7.81 7.81 0 0 1 6.92-4.17h66.7s4.82 0 3.38 9.16-21.22 65.09-26 82-5.79 52.55-5.79 52.55h-80s6.34-85.23 34.79-139.54" style="fill:#fff"/><g style="clip-path:url(#b)"><path d="M311.69 281.19h-23.12a7.81 7.81 0 0 0-6.92 4.17c-28.45 54.31-34.86 139.51-34.86 139.51h35.88l8.85-33.61 36.9 7.61c.26-2.82.56-5.69.91-8.52l-.81-9s-7.56-7.95-9.94-9.94-.8-5.58-1.2-21.09-14.32-26.66-19.5-36.21 2.79-15.52 9.95-25.07c2.55-3.45 3.59-5.99 3.86-7.85" style="opacity:.16"/></g><path d="M281.65 285.36a7.81 7.81 0 0 1 6.92-4.17h66.7s4.82 0 3.38 9.16-21.22 65.09-26 82-5.79 52.55-5.79 52.55h-80s6.34-85.23 34.79-139.54" style="fill:none;stroke:#263238;stroke-linecap:round;stroke-linejoin:round"/><path d="M343.7 297.1c-6.74 15.73-21 78-23.32 127.77h6.44s1-35.68 5.79-52.55 24.59-72.81 26-82-3.38-9.16-3.38-9.16-6.12 3.33-11.53 15.94m-117.17-31.44s-10.64-6.24-14.67-17.24 31.55-28.62 47-29.72 19.81 2.93 29 18.71 15.41 37.42 10.64 48.06-12.84 13.21-7 22 22.38 33.75 21.28 45.49-12.47 22-29 23.12-38.53-8.81-56.87-25-13.58-40-7-47.7 16.51-10.64 17.24-18.34-10.62-19.38-10.62-19.38" style="fill:#263238;stroke:#263238;stroke-linecap:round;stroke-linejoin:round"/><path d="M271.88 248.25c5.65 10.52 12.72 24.61 14.93 33.12 3.86 14.9-16 24.28-10.49 31.45m-12.14-78.35s2.2 3.75 5.24 9.27m24.4 17.2a27 27 0 0 1 1.26 6.08M268 229s17.38 12.84 24.32 28.21m-48.44-18.58c-12.41 3.48-30.26 9.13-28.81 12.39m40.28-15.45s-2.65.66-6.6 1.72m-8.75-8.2a64 64 0 0 1 22-2.9m-27.06 4.97a28 28 0 0 1 3.48-1.52" style="fill:none;stroke:#fff;stroke-linecap:round;stroke-linejoin:round"/><path d="M132.61 242.18a2 2 0 0 0 0 .21 2 2 0 0 1 0-.21m4.13 10.56a48 48 0 0 1-4-9.72 47.5 47.5 0 0 0 4 9.72m-4.11-10.29v.22c.02-.09.01-.16 0-.22m.05.28a2 2 0 0 0 .06.29 2 2 0 0 1-.06-.29m4.06 10a91.6 91.6 0 0 0 13.84 19.52c13.21 14.31 51.37 51.74 55 54.31s2.57 9.9 0 17.24-12.11 18-11.74 29.72 4 29.72 3.67 33.39-9.51 16.15-9.51 16.15h94.66s-11.8-15-11.8-20.13 16.2-70.86 16.93-75.63-2.2-8.07-8.07-8.44-28.25-5.14-29.35-8.81 5.87-17.61 5.87-17.61l-22 1.1s-1.1 9.54-2.57 11.38-3.67-1.84-8.81-4.4-15-4.77-18.71-7.71-38.89-36-38.89-36" style="fill:#fff"/><g style="clip-path:url(#c)"><path d="M209.77 295.64c1.83 3.2 3.66 6.09 3.66 6.09s6.17 3.47 7.71 3.47 10.8 5 10.8 5 7.72-1.93 5-8.49a20.7 20.7 0 0 0-3.22-4.62c-.46 2.91-1.2 6.72-2.07 7.81-1.47 1.83-3.67-1.84-8.81-4.4-3.33-1.66-8.72-3.18-13.07-4.86m-18.84-14.85c-11.33-10.49-25.67-23.94-25.67-23.94l-8.34-1.2-1 .56s23.54 20.83 28.55 23.15a15.65 15.65 0 0 0 6.46 1.43m11.87 10.86-.9-.8c.46.76.72 1.24.72 1.24Z" style="fill:#92e3a9"/><g style="opacity:.5"><path d="M209.77 295.64c1.83 3.2 3.66 6.09 3.66 6.09s6.17 3.47 7.71 3.47 10.8 5 10.8 5 7.72-1.93 5-8.49a20.7 20.7 0 0 0-3.22-4.62c-.46 2.91-1.2 6.72-2.07 7.81-1.47 1.83-3.67-1.84-8.81-4.4-3.33-1.66-8.72-3.18-13.07-4.86m-18.84-14.85c-11.33-10.49-25.67-23.94-25.67-23.94l-8.34-1.2-1 .56s23.54 20.83 28.55 23.15a15.65 15.65 0 0 0 6.46 1.43m11.87 10.86-.9-.8c.46.76.72 1.24.72 1.24Z" style="fill:#fff"/></g></g><path d="M132.61 242.18a2 2 0 0 0 0 .21 2 2 0 0 1 0-.21m4.13 10.56a48 48 0 0 1-4-9.72 47.5 47.5 0 0 0 4 9.72m-4.11-10.29v.22c.02-.09.01-.16 0-.22m.05.28a2 2 0 0 0 .06.29 2 2 0 0 1-.06-.29m4.06 10a91.6 91.6 0 0 0 13.84 19.52c13.21 14.31 51.37 51.74 55 54.31s2.57 9.9 0 17.24-12.11 18-11.74 29.72 4 29.72 3.67 33.39-9.51 16.15-9.51 16.15h94.66s-11.8-15-11.8-20.13 16.2-70.86 16.93-75.63-2.2-8.07-8.07-8.44-28.25-5.14-29.35-8.81 5.87-17.61 5.87-17.61l-22 1.1s-1.1 9.54-2.57 11.38-3.67-1.84-8.81-4.4-15-4.77-18.71-7.71-38.89-36-38.89-36" style="fill:none;stroke:#263238;stroke-linecap:round;stroke-linejoin:round"/><path d="M165.26 256.85s-11.72.22-18.26-5.17" style="fill:none;stroke:#263238;stroke-linecap:round;stroke-linejoin:round"/><path d="M250.38 310.05c-1.1-3.66 5.87-17.61 5.87-17.61l-22 1.1s-1.1 9.54-2.57 11.38-3.67-1.84-8.81-4.4c-.39-.2-.82-.39-1.26-.58l-1.33 20.91s1.93 20.25 25.07 16.4c9.37-1.56 19.37-9.92 28-19.32-8.88-1.63-22.13-5.07-22.97-7.88" style="fill:#fff"/><g style="clip-path:url(#d)"><path d="M249.76 295.21s-1.33 7.46-2.4 15.71-1.86 14.39-1.86 14.39l4.88-15.26 5.5-16.17s-5.32 0-6.12 1.33" style="fill:#92e3a9"/><path d="M249.76 295.21s-1.33 7.46-2.4 15.71-1.86 14.39-1.86 14.39l4.88-15.26 5.5-16.17s-5.32 0-6.12 1.33" style="fill:#fff;opacity:.5"/></g><path d="M250.38 310.05c-1.1-3.66 5.87-17.61 5.87-17.61l-22 1.1s-1.1 9.54-2.57 11.38-3.67-1.84-8.81-4.4c-.39-.2-.82-.39-1.26-.58l-1.33 20.91s1.93 20.25 25.07 16.4c9.37-1.56 19.37-9.92 28-19.32-8.88-1.63-22.13-5.07-22.97-7.88" style="fill:none;stroke:#263238;stroke-linecap:round;stroke-linejoin:round"/><path d="M231.67 304.92c-1.47 1.83-3.67-1.84-8.81-4.4-3.24-1.63-8.4-3.11-12.67-4.71-1.21-2.87-2.81-6.61-3.84-8.87-1.83-4-4.77-1.47-4.77-1.47a21.4 21.4 0 0 1-3.67-5.87c-1.83-4-4.77-3.67-8.8-4.4s-12.48-8.44-12.48-8.44-3.95-3-5.58-4.49c-1.9 3.74-6.45 10.32-16.29 14.43 15.69 16.39 47.52 47.53 50.86 49.87 3.67 2.56 2.57 9.9 0 17.24s-12.11 18-11.74 29.72 4 29.72 3.67 33.39c-.33 3.27-7.65 13.52-9.24 15.72l3.73.42h19.42c-.11-9.84-.1-50 6.63-66 7.71-18.39 13.58-52.14 13.58-52.14" style="fill:#92e3a9"/><g style="clip-path:url(#e)"><path d="M222.86 300.52c-3.24-1.63-8.4-3.11-12.67-4.71-1.21-2.87-2.81-6.61-3.84-8.87-1.83-4-4.77-1.47-4.77-1.47a21.4 21.4 0 0 1-3.67-5.87c-1.83-4-4.77-3.67-8.8-4.4s-12.48-8.44-12.48-8.44-3.95-3-5.58-4.49a27 27 0 0 1-2.89 4.49c6.56 5.55 13.8 11.43 16.33 12.6 5 2.31 6.17.38 10 2.7s8.1 10 8.1 10 2.32-6.18 4.25-1.93 6.56 11.57 6.56 11.57 6.17 3.47 7.71 3.47c1.21 0 7.14 3.08 9.66 4.41.56-2.93.87-4.69.87-4.69-1.44 1.86-3.64-1.81-8.78-4.37" style="opacity:.16"/></g><path d="M231.67 304.92c-1.47 1.83-3.67-1.84-8.81-4.4-3.24-1.63-8.4-3.11-12.67-4.71-1.21-2.87-2.81-6.61-3.84-8.87-1.83-4-4.77-1.47-4.77-1.47a21.4 21.4 0 0 1-3.67-5.87c-1.83-4-4.77-3.67-8.8-4.4s-12.48-8.44-12.48-8.44-3.95-3-5.58-4.49c-1.9 3.74-6.45 10.32-16.29 14.43 15.69 16.39 47.52 47.53 50.86 49.87 3.67 2.56 2.57 9.9 0 17.24s-12.11 18-11.74 29.72 4 29.72 3.67 33.39c-.33 3.27-7.65 13.52-9.24 15.72l3.73.42h19.42c-.11-9.84-.1-50 6.63-66 7.71-18.39 13.58-52.14 13.58-52.14" style="fill:none;stroke:#263238;stroke-linecap:round;stroke-linejoin:round"/><path d="M231.93 303.64s-4.56-1.4-7.37 1.06-7 15.08-9.47 28.77a38.26 38.26 0 0 0 3 23.55s5.77-15.13 7.52-22.5 6.32-30.88 6.32-30.88" style="fill:#92e3a9"/><g style="clip-path:url(#f)"><path d="M223.18 305.87s3.3-.8 4.66-.34a13.3 13.3 0 0 1 3.18 1.93l.91-3.82a7.4 7.4 0 0 0-4.43-.73c-2.27.46-4.32 2.96-4.32 2.96" style="opacity:.16"/></g><path d="M231.93 303.64s-4.56-1.4-7.37 1.06-7 15.08-9.47 28.77a38.26 38.26 0 0 0 3 23.55s5.77-15.13 7.52-22.5 6.32-30.88 6.32-30.88m-30.71 1.2 5.87 23.85-13.21-30.09" style="fill:none;stroke:#263238;stroke-linecap:round;stroke-linejoin:round"/><path d="M239.89 423.06h42.78s-11.8-15-11.8-20.13 16.2-70.86 16.93-75.63-2.2-8.07-8.07-8.44-28.25-5.14-29.35-8.81c0 0-8.44 29.72-11.37 49.9-2.52 17.31.09 53.23.88 63.11" style="fill:#92e3a9"/><g style="clip-path:url(#g)"><path d="M279.73 318.86c-4.81-.3-20.7-3.56-26.89-6.74l2.25 5.2a45.1 45.1 0 0 0 13 4.52c7.45 1.33 14.38 1.07 18.91 7.73l.22.33c.28-1.28.47-2.18.53-2.6.79-4.77-2.15-8.07-8.02-8.44" style="opacity:.16"/></g><path d="M239.89 423.06h42.78s-11.8-15-11.8-20.13 16.2-70.86 16.93-75.63-2.2-8.07-8.07-8.44-28.25-5.14-29.35-8.81c0 0-8.44 29.72-11.37 49.9-2.52 17.31.09 53.23.88 63.11" style="fill:none;stroke:#263238;stroke-linecap:round;stroke-linejoin:round"/><path d="M250.38 310.05s-11.32 36-11.37 49.9c0 0 16.08-19.47 18.18-33.15s-6.81-16.75-6.81-16.75" style="fill:#92e3a9"/><g style="clip-path:url(#h)"><path d="M248.43 314.65a10.48 10.48 0 0 1 8.79 4.26s-2.22-6.53-6.84-8.86Z" style="opacity:.16"/></g><path d="M250.38 310.05s-11.32 36-11.37 49.9c0 0 16.08-19.47 18.18-33.15s-6.81-16.75-6.81-16.75" style="fill:none;stroke:#263238;stroke-linecap:round;stroke-linejoin:round"/><path d="M371.23 416.29s8.29.34 13.72 1.12a99 99 0 0 0 10.92.87s-3-6.06-6.2-7.77-9-4.77-13.86-4.09-11.81 5.58-11.23 7.14 3.17 2.26 6.65 2.73" style="fill:#fff"/><g style="clip-path:url(#i)"><path d="M371.23 416.29s8.29.34 13.72 1.12a99 99 0 0 0 10.92.87s-3-6.06-6.2-7.77-9-4.77-13.86-4.09-11.81 5.58-11.23 7.14 3.17 2.26 6.65 2.73" style="fill:#92e3a9"/><path d="M371.23 416.29s8.29.34 13.72 1.12a99 99 0 0 0 10.92.87s-3-6.06-6.2-7.77-9-4.77-13.86-4.09-11.81 5.58-11.23 7.14 3.17 2.26 6.65 2.73" style="fill:#fff;opacity:.5"/></g><path d="M371.23 416.29s8.29.34 13.72 1.12a99 99 0 0 0 10.92.87s-3-6.06-6.2-7.77-9-4.77-13.86-4.09-11.81 5.58-11.23 7.14 3.17 2.26 6.65 2.73" style="fill:none;stroke:#263238;stroke-linecap:round;stroke-linejoin:round"/><path d="M385 413.81s6.57-3.41 8.21-3.36 12.54 7.42 12 8.6a3.14 3.14 0 0 1-3.44 1.28c-1.21-.57-8.55-3.69-8.55-3.69l-4.8 1.13Z" style="fill:#fff"/><g style="clip-path:url(#j)"><path d="M385 413.81s6.57-3.41 8.21-3.36 12.54 7.42 12 8.6-3.12 2.14-3.44 1.28-8.55-3.69-8.55-3.69l-4.8 1.13Z" style="fill:#92e3a9"/><path d="M385 413.81s6.57-3.41 8.21-3.36 12.54 7.42 12 8.6-3.12 2.14-3.44 1.28-8.55-3.69-8.55-3.69l-4.8 1.13Z" style="fill:#fff;opacity:.5"/></g><path d="M385 413.81s6.57-3.41 8.21-3.36 12.54 7.42 12 8.6a3.14 3.14 0 0 1-3.44 1.28c-1.21-.57-8.55-3.69-8.55-3.69l-4.8 1.13Z" style="fill:none;stroke:#263238;stroke-linecap:round;stroke-linejoin:round"/><path d="M380.31 408.2s8.76-.28 10.5.6 9.6 14.36 8.42 15.34-4.44.69-4.34-.4-7.24-8.31-7.24-8.31l-5.71-1.25Z" style="fill:#fff"/><g style="clip-path:url(#k)"><path d="M380.31 408.2s8.76-.28 10.5.6 9.6 14.36 8.42 15.34-4.44.69-4.34-.4-7.24-8.31-7.24-8.31l-5.71-1.25Z" style="fill:#92e3a9"/><path d="M380.31 408.2s8.76-.28 10.5.6 9.6 14.36 8.42 15.34-4.44.69-4.34-.4-7.24-8.31-7.24-8.31l-5.71-1.25Z" style="fill:#fff;opacity:.5"/></g><path d="M380.31 408.2s8.76-.28 10.5.6 9.6 14.36 8.42 15.34-4.44.69-4.34-.4-7.24-8.31-7.24-8.31l-5.71-1.25Z" style="fill:none;stroke:#263238;stroke-linecap:round;stroke-linejoin:round"/><path d="M375.12 406.39s8.87-.29 10.63.61 9.72 14.53 8.52 15.53-4.48.69-4.38-.41-7.33-8.41-7.33-8.41l-5.78-1.27Z" style="fill:#fff"/><g style="clip-path:url(#l)"><path d="M375.12 406.39s8.87-.29 10.63.61 9.72 14.53 8.52 15.53-4.48.69-4.38-.41-7.33-8.41-7.33-8.41l-5.78-1.27Z" style="fill:#92e3a9"/><path d="M375.12 406.39s8.87-.29 10.63.61 9.72 14.53 8.52 15.53-4.48.69-4.38-.41-7.33-8.41-7.33-8.41l-5.78-1.27Z" style="fill:#fff;opacity:.5"/></g><path d="M375.12 406.39s8.87-.29 10.63.61 9.72 14.53 8.52 15.53-4.48.69-4.38-.41-7.33-8.41-7.33-8.41l-5.78-1.27Z" style="fill:none;stroke:#263238;stroke-linecap:round;stroke-linejoin:round"/><path d="M274.27 355.57c6.42 9.89 19.31 34.95 23.07 37.77 5.87 4.4 45.11 15.08 48.89 18s3.52 5.85 7.1 6.92 17 4.14 22.12 4.62 2.83-2.69 2.83-2.69l-8.73-6 7.61-1.88s7.63 9.18 9.06 9.68 3.95 0 3.79-1.13c-.28-1.81-8.42-16.62-11.31-17.25s-20.43 1.8-20.43 1.8-36.79-24.81-37.45-25.69c0 0-2.2-6.24-4-8.81s-2.94-1.83-2.94-1.83.74-3.31-.36-4.41l-5.87-5.87-.21.28c-1-2-2-4.28-3.1-6.88-3.07-7.23-13.94-27.52-15.77-30.45-1.37-2.19-12.85-3.76-18.67-4.42" style="fill:#92e3a9"/><g style="clip-path:url(#m)"><path d="M299.83 356.2c4.8 4.26 3.2 4.26 2.13 8s.8-1.33 5.33-1.06 3.2 6.12 2.66 7.19 5.6 2.4 4.53 4.79-7.19 5.86-10.65 9.33 9.05-5.6 13.31-5.86c1.3-.09 2.37.08 3.27.06a42 42 0 0 0-3.62-7.68c-1.84-2.57-2.94-1.83-2.94-1.83s.74-3.31-.36-4.41l-5.87-5.87-.21.28c-1-2-2-4.28-3.1-6.88-3.07-7.23-13.94-27.52-15.77-30.45-1.37-2.19-12.85-3.76-18.67-4.42l.53 4.63.13.1s7.19 1.33 9.59 1.6 5.33 2.39 5.06 4-7.19 8.79-5.06 9.33 4.53-5.33 6.93-4.53 7.95 19.42 12.78 23.68" style="opacity:.16"/></g><path d="M274.27 355.57c6.42 9.89 19.31 34.95 23.07 37.77 5.87 4.4 45.11 15.08 48.89 18s3.52 5.85 7.1 6.92 17 4.14 22.12 4.62 2.83-2.69 2.83-2.69l-8.73-6 7.61-1.88s7.63 9.18 9.06 9.68 3.95 0 3.79-1.13c-.28-1.81-8.42-16.62-11.31-17.25s-20.43 1.8-20.43 1.8-36.79-24.81-37.45-25.69c0 0-2.2-6.24-4-8.81s-2.94-1.83-2.94-1.83.74-3.31-.36-4.41l-5.87-5.87-.21.28c-1-2-2-4.28-3.1-6.88-3.07-7.23-13.94-27.52-15.77-30.45-1.37-2.19-12.85-3.76-18.67-4.42" style="fill:none;stroke:#263238;stroke-linecap:round;stroke-linejoin:round"/><path d="M274.37 342c-.27.9-.5 1.8-.68 2.72m10.4-19.27a53.5 53.5 0 0 0-7.88 11.85m22.57 44.93c2.7-4 7-9.07 11.74-10.52m-14.73 15.44s.48-.94 1.34-2.36m-1.34-3.96s4.91-12.28 9.82-15.44 2.1 3.16 2.1 3.16" style="fill:none;stroke:#263238;stroke-linecap:round;stroke-linejoin:round"/><path d="M346.23 411.35c3.79 2.93 3.52 5.85 7.1 6.92s17 4.14 22.12 4.62 2.83-2.69 2.83-2.69l-8.73-6 7.61-1.88s7.63 9.18 9.06 9.68 4.15.68 3.79-1.13c-.7-3.5-8.42-16.62-11.31-17.25s-20.43 1.8-20.43 1.8-33.51-23-37.18-25.49c-14.23 1.37-21 8.82-23.85 13.29l.1.08c5.87 4.44 45.11 15.12 48.89 18.05" style="fill:#fff"/><g style="clip-path:url(#n)"><path d="M390 420.91c-1.82-4.45-8.42-16.62-11.31-17.25s-20.43 1.8-20.43 1.8-33.51-23-37.18-25.49a37.3 37.3 0 0 0-10.87 2.63c5.29 3 40.55 23 45 23.89 4.72 1 20.47-1.59 23.24.27 1.76 1.18 7 9.49 10.54 15.39 1.01-.15 1.38-.34 1.01-1.24" style="fill:#92e3a9"/><path d="M390 420.91c-2.84-6.37-8.42-16.62-11.31-17.25s-20.43 1.8-20.43 1.8-33.51-23-37.18-25.49a37.3 37.3 0 0 0-10.87 2.63c5.29 3 40.55 23 45 23.89 4.72 1 20.47-1.59 23.24.27 1.76 1.18 7 9.49 10.54 15.39 1.01-.15 1.41-.35 1.01-1.24" style="fill:#fff;opacity:.5"/></g><path d="M346.23 411.35c3.79 2.93 3.52 5.85 7.1 6.92s17 4.14 22.12 4.62 2.83-2.69 2.83-2.69l-8.73-6 7.61-1.88s7.63 9.18 9.06 9.68 4.15.68 3.79-1.13c-.7-3.5-8.42-16.62-11.31-17.25s-20.43 1.8-20.43 1.8-33.51-23-37.18-25.49c-14.23 1.37-21 8.82-23.85 13.29l.1.08c5.87 4.44 45.11 15.12 48.89 18.05" style="fill:none;stroke:#263238;stroke-linecap:round;stroke-linejoin:round"/><path d="m257.85 236.73-30.12 12.57a44.4 44.4 0 0 1-3.87 15.31c-3.56 7.53-1.48 21.78 1.94 29.47s18.49 4.68 24 3.72a59.4 59.4 0 0 0 10.93-3.19 10.16 10.16 0 0 0 9.76-1.36s-16.12-45.25-12.64-56.52" style="fill:#fff"/><g style="clip-path:url(#o)"><path d="m257.85 236.73-30.12 12.57a44.4 44.4 0 0 1-3.87 15.31c-3.56 7.53-1.48 21.78 1.94 29.47a7 7 0 0 0 2.65 3v-.58s-5.59-13.85-4.53-21.84 5.6-12 6.13-17.05.26-7.45 10.39-11.18 14.38-7.19 15.44-3.47 5.33 28.24 8.26 34.1 2.66 12-1.86 14.65a63.6 63.6 0 0 1-14.57 6.42l2.13-.37a59.4 59.4 0 0 0 10.93-3.19 10.16 10.16 0 0 0 9.76-1.36s-16.16-45.21-12.68-56.48" style="fill:#92e3a9"/><path d="m257.85 236.73-30.12 12.57a44.4 44.4 0 0 1-3.87 15.31c-3.56 7.53-1.48 21.78 1.94 29.47a7 7 0 0 0 2.65 3v-.58s-5.59-13.85-4.53-21.84 5.6-12 6.13-17.05.26-7.45 10.39-11.18 14.38-7.19 15.44-3.47 5.33 28.24 8.26 34.1 2.66 12-1.86 14.65a63.6 63.6 0 0 1-14.57 6.42l2.13-.37a59.4 59.4 0 0 0 10.93-3.19 10.16 10.16 0 0 0 9.76-1.36s-16.16-45.21-12.68-56.48" style="fill:#fff;opacity:.5"/></g><path d="m257.85 236.73-30.12 12.57a44.4 44.4 0 0 1-3.87 15.31c-3.56 7.53-1.48 21.78 1.94 29.47s18.49 4.68 24 3.72a59.4 59.4 0 0 0 10.93-3.19 10.16 10.16 0 0 0 9.76-1.36s-16.12-45.25-12.64-56.52" style="fill:none;stroke:#263238;stroke-linecap:round;stroke-linejoin:round"/><path d="M242.63 256.44a15.7 15.7 0 0 1-.65 5.24c-.8 2-8.35 9.86-8.12 10.71s.91 3.58 2.25 3.84M251 263.47c1.05-2.1 4.5-.05 4.45 4.68m-21.55-10.86s2.94-1.29 5.57 3.47" style="fill:none;stroke:#263238;stroke-linecap:round;stroke-linejoin:round"/><path d="M246.82 270.4a14.56 14.56 0 0 1 9.13 3.83m-25.6-10.08a19.4 19.4 0 0 1 5.1 1.41" style="fill:none;stroke:#263238;stroke-linecap:round;stroke-linejoin:round;stroke-width:.5px"/><path d="M242.3 252a5.67 5.67 0 0 0-5.06-.12c-2.69 1.29-4.34 2.71-4.16 1.06s3.34-3.47 4.29-3.71 5.2-.9 4.93 2.77m7.54-3.73a22.9 22.9 0 0 1 6.5 8.46c2 5 3.58-.46 2-3.73s-6.15-6.75-8.5-4.73" style="fill:#263238"/><path d="M270.93 301.8c0 2.33-1.32 4.22-2.94 4.22s-2.93-1.89-2.93-4.22 1.31-8.26 2.93-8.26 2.94 5.93 2.94 8.26" style="fill:#92e3a9;stroke:#263238;stroke-linecap:round;stroke-linejoin:round"/><path d="M251.26 262.56a6 6 0 0 0-.27.94c-.29 1.48-.58 4.57 0 4.7s2-2.76 2.25-4.24a6 6 0 0 0 .1-.88 18 18 0 0 0-2.08-.52M234.2 257a6 6 0 0 0-.21.8c-.3 1.48-.29 4.73.34 4.85s1.66-2.92 1.95-4.4a6 6 0 0 0 .12-1.09 5.7 5.7 0 0 0-2.2-.16" style="fill:#263238"/><path d="m251 263.52 1-1.86a7.23 7.23 0 0 1 4.08 2.36M234.2 257l1-1.17s.43-.21 2.79.86" style="fill:none;stroke:#263238;stroke-linecap:round;stroke-linejoin:round;stroke-width:.75px"/><path d="M230.41 284.12s1.68-3.09 3.93-3.09 3.93 5.05 3.93 5.05" style="fill:none;stroke:#263238;stroke-linecap:round;stroke-linejoin:round"/><path d="M158 417.38a17.7 17.7 0 0 1-6.3-1.5 2.18 2.18 0 1 1 1.72-4c2 .85 4.59 1.38 5.28 1.08 1.27-1.42 3.22-10 .7-14.14-.57-.92-1.1-1.09-1.45-1.13-1.43-.2-3.55 1.27-4.3 2a2.18 2.18 0 1 1-3-3.18c.39-.38 4-3.63 7.85-3.11a6.28 6.28 0 0 1 4.58 3.16c3.71 6.05 1.17 17.56-1.68 19.84a5.38 5.38 0 0 1-3.4.98" style="fill:#fff"/><g style="clip-path:url(#p)"><path d="M160.93 398.16a4.12 4.12 0 0 0-3-2.44c-2.5-.4-4.85 2.11-5.11 2.39a1.88 1.88 0 0 0-.21 2.09 2.16 2.16 0 0 0 1.05-.54c.75-.7 2.87-2.17 4.3-2 .35 0 .88.21 1.45 1.13 2.52 4.1.57 12.72-.7 14.14-.69.3-3.27-.23-5.28-1.08a2.2 2.2 0 0 0-.78-.17 1.65 1.65 0 0 0 .84 1.33 10 10 0 0 0 4.09 1.16 3.15 3.15 0 0 0 2.23-.78c1.88-1.73 3.54-10.58 1.12-15.23" style="fill:#92e3a9"/><path d="M160.93 398.16a4.12 4.12 0 0 0-3-2.44c-2.5-.4-4.85 2.11-5.11 2.39a1.88 1.88 0 0 0-.21 2.09 2.16 2.16 0 0 0 1.05-.54c.75-.7 2.87-2.17 4.3-2 .35 0 .88.21 1.45 1.13 2.52 4.1.57 12.72-.7 14.14-.69.3-3.27-.23-5.28-1.08a2.2 2.2 0 0 0-.78-.17 1.65 1.65 0 0 0 .84 1.33 10 10 0 0 0 4.09 1.16 3.15 3.15 0 0 0 2.23-.78c1.88-1.73 3.54-10.58 1.12-15.23" style="fill:#fff;opacity:.5"/></g><path d="M158 417.38a17.7 17.7 0 0 1-6.3-1.5 2.18 2.18 0 1 1 1.72-4c2 .85 4.59 1.38 5.28 1.08 1.27-1.42 3.22-10 .7-14.14-.57-.92-1.1-1.09-1.45-1.13-1.43-.2-3.55 1.27-4.3 2a2.18 2.18 0 1 1-3-3.18c.39-.38 4-3.63 7.85-3.11a6.28 6.28 0 0 1 4.58 3.16c3.71 6.05 1.17 17.56-1.68 19.84a5.38 5.38 0 0 1-3.4.98" style="fill:none;stroke:#263238;stroke-linecap:round;stroke-linejoin:round"/><path style="fill:#fff" d="M130.13 391.58h24.05v31.92h-24.05z"/><g style="clip-path:url(#q)"><path style="fill:#92e3a9" d="M130.13 391.58h9.85v31.92h-9.85z"/><path style="fill:#fff;opacity:.5" d="M130.13 391.58h9.85v31.92h-9.85z"/></g><path style="fill:none;stroke:#263238;stroke-linecap:round;stroke-linejoin:round" d="M130.13 391.58h24.05v31.92h-24.05z"/><path d="M286.34 423.06H183.6l-3.35-56.48a3.84 3.84 0 0 1 3.75-4.48h101.9a3.84 3.84 0 0 1 3.79 4.48Z" style="fill:#263238;stroke:#263238;stroke-linecap:round;stroke-linejoin:round"/><path d="M188.66 363.45h96.5a3.74 3.74 0 0 1 3.73 4.34M181 366.9a3.77 3.77 0 0 1 3.78-3.45" style="fill:none;stroke:#fff;stroke-linecap:round;stroke-linejoin:round"/><path style="fill:#fff;stroke:#263238;stroke-linecap:round;stroke-linejoin:round" d="M183.17 417.56h103.6v5.5h-103.6z"/><ellipse cx="234.6" cy="392.8" rx="7.34" ry="4.4" style="fill:#fff;stroke:#263238;stroke-linecap:round;stroke-linejoin:round"/><path style="fill:#263238" d="M57.17 422.41h385.86v9.37H57.17z"/><rect x="146.02" y="75" width="208.29" height="129.17" rx="11.33" style="fill:#92e3a9"/><circle cx="250.16" cy="118.75" r="30.88" transform="rotate(-9.13 250.108 118.725)" style="fill:#263238"/><path d="m249.93 124.45-10.29 13.21a3.93 3.93 0 0 1-3.26 1.82 3.4 3.4 0 0 1-2.4-.95 3.1 3.1 0 0 1-1-2.37 4.64 4.64 0 0 1 1-2.73l11.73-14.51-11-14.52a4 4 0 0 1-.8-2.36 3.68 3.68 0 0 1 1.17-2.71 3.73 3.73 0 0 1 2.7-1.15A3.87 3.87 0 0 1 241 100l9.94 13.09 10-12.87a4.25 4.25 0 0 1 3.43-2.07 3.15 3.15 0 0 1 2.31 1 3.18 3.18 0 0 1 1 2.31 3.5 3.5 0 0 1-.76 2.13l-11.77 15.06 11.37 15a3.87 3.87 0 0 1 .85 2.36 3.43 3.43 0 0 1-1.19 2.62 3.94 3.94 0 0 1-2.73 1.1 3.88 3.88 0 0 1-3.24-1.82ZM309 181.8H191.29a9 9 0 0 1-9-9 9 9 0 0 1 9-9H309a9 9 0 0 1 9 9 9 9 0 0 1-9 9" style="fill:#fff"/><path d="M207.42 175.7a.58.58 0 0 1-.42-.18.6.6 0 0 1-.18-.45.8.8 0 0 1 .11-.4l.9-1.4h-1.84a.6.6 0 0 1-.46-.18.66.66 0 0 1 0-.86.6.6 0 0 1 .46-.18l1.81.05-.8-1.3a.9.9 0 0 1-.13-.44.6.6 0 0 1 .18-.45.6.6 0 0 1 .43-.18.57.57 0 0 1 .53.34l.88 1.57.84-1.5a.7.7 0 0 1 .6-.41.58.58 0 0 1 .42.18.57.57 0 0 1 .18.43.75.75 0 0 1-.12.4l-.88 1.41 1.83-.05a.6.6 0 0 1 .46.18.66.66 0 0 1 0 .86.6.6 0 0 1-.46.18h-1.85l.82 1.28a1.06 1.06 0 0 1 .15.51.6.6 0 0 1-.17.44.57.57 0 0 1-.41.18.65.65 0 0 1-.58-.39l-.83-1.47-.83 1.47a.67.67 0 0 1-.64.36m9.18 0a.58.58 0 0 1-.42-.18.6.6 0 0 1-.18-.45.8.8 0 0 1 .11-.4l.9-1.4h-1.84a.6.6 0 0 1-.46-.18.66.66 0 0 1 0-.86.6.6 0 0 1 .46-.18l1.81.05-.85-1.35a.9.9 0 0 1-.13-.44.6.6 0 0 1 .18-.45.6.6 0 0 1 .43-.18.57.57 0 0 1 .53.34l.88 1.57.84-1.5a.7.7 0 0 1 .6-.41.58.58 0 0 1 .42.18.57.57 0 0 1 .18.43.75.75 0 0 1-.12.4l-.88 1.41 1.83-.05a.6.6 0 0 1 .46.18.66.66 0 0 1 0 .86.6.6 0 0 1-.46.18h-1.85l.82 1.28a1.06 1.06 0 0 1 .15.51.6.6 0 0 1-.17.44.57.57 0 0 1-.41.18.64.64 0 0 1-.58-.39l-.83-1.47-.83 1.47a.67.67 0 0 1-.59.41m9.18 0a.58.58 0 0 1-.42-.18.6.6 0 0 1-.18-.45.8.8 0 0 1 .11-.4l.9-1.4h-1.84a.6.6 0 0 1-.46-.18.66.66 0 0 1 0-.86.6.6 0 0 1 .46-.18l1.81.05-.85-1.35a.9.9 0 0 1-.13-.44.6.6 0 0 1 .18-.45.6.6 0 0 1 .43-.18.57.57 0 0 1 .53.34l.88 1.57.84-1.5a.7.7 0 0 1 .6-.41.58.58 0 0 1 .42.18.57.57 0 0 1 .18.43.75.75 0 0 1-.12.4l-.88 1.41 1.83-.05a.6.6 0 0 1 .46.18.66.66 0 0 1 0 .86.6.6 0 0 1-.46.18h-1.85l.82 1.28a1.06 1.06 0 0 1 .15.51.6.6 0 0 1-.17.44.57.57 0 0 1-.41.18.64.64 0 0 1-.58-.39l-.83-1.47-.83 1.47a.67.67 0 0 1-.59.41m9.22 0a.58.58 0 0 1-.42-.18.6.6 0 0 1-.18-.45.8.8 0 0 1 .11-.4l.9-1.4h-1.84a.6.6 0 0 1-.46-.18.66.66 0 0 1 0-.86.6.6 0 0 1 .46-.18l1.81.05-.85-1.35a.9.9 0 0 1-.13-.44.6.6 0 0 1 .18-.45.6.6 0 0 1 .43-.18.57.57 0 0 1 .53.34l.88 1.57.84-1.5a.7.7 0 0 1 .6-.41.58.58 0 0 1 .42.18.57.57 0 0 1 .18.43.75.75 0 0 1-.12.4l-.88 1.41 1.83-.05a.6.6 0 0 1 .46.18.66.66 0 0 1 0 .86.6.6 0 0 1-.46.18h-1.85l.82 1.28a1.06 1.06 0 0 1 .15.51.6.6 0 0 1-.17.44.57.57 0 0 1-.41.18.65.65 0 0 1-.58-.39l-.83-1.47-.83 1.47a.67.67 0 0 1-.59.41m9.14 0a.58.58 0 0 1-.42-.18.6.6 0 0 1-.18-.45.9.9 0 0 1 .11-.4l.9-1.4h-1.84a.6.6 0 0 1-.46-.18.66.66 0 0 1 0-.86.6.6 0 0 1 .46-.18l1.81.05-.85-1.35a.9.9 0 0 1-.13-.44.6.6 0 0 1 .18-.45.6.6 0 0 1 .43-.18.57.57 0 0 1 .53.34l.88 1.57.84-1.5a.7.7 0 0 1 .6-.41.56.56 0 0 1 .42.18.57.57 0 0 1 .18.43.75.75 0 0 1-.12.4l-.88 1.41 1.83-.05a.6.6 0 0 1 .46.18.66.66 0 0 1 0 .86.6.6 0 0 1-.46.18h-1.85l.82 1.28a1.06 1.06 0 0 1 .15.51.6.6 0 0 1-.17.44.57.57 0 0 1-.41.18.65.65 0 0 1-.58-.39l-.83-1.47-.83 1.47a.67.67 0 0 1-.59.41m9.18 0a.58.58 0 0 1-.42-.18.6.6 0 0 1-.18-.45.9.9 0 0 1 .11-.4l.9-1.4h-1.83a.6.6 0 0 1-.47-.18.66.66 0 0 1 0-.86.6.6 0 0 1 .47-.18l1.8.05-.85-1.35a.9.9 0 0 1-.13-.44.6.6 0 0 1 .18-.45.6.6 0 0 1 .43-.18.57.57 0 0 1 .53.34l.88 1.57.84-1.5a.7.7 0 0 1 .6-.41.56.56 0 0 1 .42.18.57.57 0 0 1 .18.43.75.75 0 0 1-.12.4l-.88 1.41 1.83-.05a.6.6 0 0 1 .46.18.66.66 0 0 1 0 .86.6.6 0 0 1-.46.18h-1.85l.82 1.28a1.06 1.06 0 0 1 .15.51.6.6 0 0 1-.17.44.57.57 0 0 1-.41.18.65.65 0 0 1-.58-.39l-.83-1.47-.83 1.47a.67.67 0 0 1-.59.41m9.18 0a.58.58 0 0 1-.42-.18.6.6 0 0 1-.18-.45.8.8 0 0 1 .11-.4l.9-1.4h-1.84a.6.6 0 0 1-.46-.18.66.66 0 0 1 0-.86.6.6 0 0 1 .46-.18l1.81.05-.88-1.3a.9.9 0 0 1-.13-.44.6.6 0 0 1 .18-.45.6.6 0 0 1 .43-.18.57.57 0 0 1 .53.34l.88 1.57.84-1.5a.7.7 0 0 1 .6-.41.56.56 0 0 1 .42.18.57.57 0 0 1 .18.43.75.75 0 0 1-.12.4l-.88 1.41 1.83-.05a.6.6 0 0 1 .46.18.66.66 0 0 1 0 .86.6.6 0 0 1-.46.18h-1.85l.82 1.28a1.06 1.06 0 0 1 .15.51.6.6 0 0 1-.17.44.57.57 0 0 1-.41.18.65.65 0 0 1-.58-.39l-.83-1.47-.83 1.47a.67.67 0 0 1-.56.36m9.18 0a.58.58 0 0 1-.42-.18.6.6 0 0 1-.18-.45.9.9 0 0 1 .11-.4l.9-1.4h-1.83a.57.57 0 0 1-.46-.18.63.63 0 0 1 0-.86.57.57 0 0 1 .46-.18l1.8.05-.85-1.35a.9.9 0 0 1-.13-.44.61.61 0 0 1 .61-.63.57.57 0 0 1 .53.34l.88 1.57.84-1.5a.7.7 0 0 1 .6-.41.54.54 0 0 1 .42.18.57.57 0 0 1 .18.43.75.75 0 0 1-.12.4l-.88 1.41 1.83-.05a.6.6 0 0 1 .46.18.66.66 0 0 1 0 .86.6.6 0 0 1-.46.18h-1.85l.82 1.28a1.06 1.06 0 0 1 .15.51.6.6 0 0 1-.58.62.65.65 0 0 1-.58-.39l-.83-1.47-.83 1.47a.67.67 0 0 1-.59.41m9.18 0a.58.58 0 0 1-.42-.18.6.6 0 0 1-.18-.45.9.9 0 0 1 .11-.4l.9-1.4h-1.84a.57.57 0 0 1-.45-.18.63.63 0 0 1 0-.86.57.57 0 0 1 .45-.18l1.81.05-.85-1.35a.9.9 0 0 1-.13-.44.61.61 0 0 1 .61-.63.57.57 0 0 1 .53.34l.88 1.57.84-1.5a.7.7 0 0 1 .6-.41.54.54 0 0 1 .42.18.57.57 0 0 1 .18.43.75.75 0 0 1-.12.4l-.88 1.41 1.83-.05a.6.6 0 0 1 .46.18.66.66 0 0 1 0 .86.6.6 0 0 1-.46.18h-1.85l.82 1.28a1.06 1.06 0 0 1 .15.51.6.6 0 0 1-.58.62.65.65 0 0 1-.58-.39l-.83-1.47-.83 1.47a.67.67 0 0 1-.59.41m9.14 0a.58.58 0 0 1-.42-.18.6.6 0 0 1-.18-.45.9.9 0 0 1 .11-.4l.9-1.4h-1.84a.57.57 0 0 1-.45-.18.63.63 0 0 1 0-.86.57.57 0 0 1 .45-.18l1.81.05-.85-1.35a.9.9 0 0 1-.13-.44.6.6 0 0 1 .18-.45.6.6 0 0 1 .43-.18.57.57 0 0 1 .53.34l.88 1.57.84-1.5a.7.7 0 0 1 .6-.41.54.54 0 0 1 .42.18.57.57 0 0 1 .18.43.75.75 0 0 1-.12.4l-.88 1.41 1.83-.05a.6.6 0 0 1 .46.18.66.66 0 0 1 0 .86.6.6 0 0 1-.46.18h-1.85l.82 1.28a1.06 1.06 0 0 1 .15.51.6.6 0 0 1-.17.44.57.57 0 0 1-.41.18.65.65 0 0 1-.58-.39l-.83-1.47-.83 1.47a.67.67 0 0 1-.59.41"/><path style="fill:none;stroke:#fff;stroke-linecap:round;stroke-linejoin:round;stroke-width:3px" d="M321.46 197.82h12.23m-181.86-90.05V189a8.87 8.87 0 0 0 8.87 8.87h149.15M151.83 86.23v12.18"/></svg>