<svg xmlns="http://www.w3.org/2000/svg" viewBox="0 0 500 500"><path style="fill:#ebebeb" d="M0 382.4h500v.25H0zm131.47 15.42h33.12v.25h-33.12zm118.68-2.71h8.69v.25h-8.69zm-197.69-4.22h19.19v.25H52.46zm337.24-1.68h26.08v.25H389.7zm-32.35 0h23.44v.25h-23.44zm-1.12 12h93.68v.25h-93.68zM237 337.8H43.91a5.71 5.71 0 0 1-5.7-5.71V60.66a5.71 5.71 0 0 1 5.7-5.66H237a5.71 5.71 0 0 1 5.71 5.71v271.38a5.71 5.71 0 0 1-5.71 5.71M43.91 55.2a5.46 5.46 0 0 0-5.45 5.46v271.43a5.46 5.46 0 0 0 5.45 5.46H237a5.47 5.47 0 0 0 5.46-5.46V60.66A5.47 5.47 0 0 0 237 55.2Zm409.4 282.6h-193.1a5.72 5.72 0 0 1-5.71-5.71V60.66a5.72 5.72 0 0 1 5.71-5.66h193.1a5.71 5.71 0 0 1 5.69 5.66v271.43a5.71 5.71 0 0 1-5.69 5.71M260.21 55.2a5.47 5.47 0 0 0-5.46 5.46v271.43a5.47 5.47 0 0 0 5.46 5.46h193.1a5.47 5.47 0 0 0 5.46-5.46V60.66a5.47 5.47 0 0 0-5.46-5.46Z"/><path transform="rotate(180 247.09 102.855)" style="fill:#fafafa" d="M60.48 41.22h373.21v123.26H60.48z"/><path transform="rotate(180 348.2 106.095)" style="fill:#e6e6e6" d="M332.71 59.67h30.99v92.85h-30.99z"/><path style="fill:#e6e6e6" d="M308.22 152.52h27.96V78.31L308.22 96.4z"/><path transform="rotate(180 388.75 121.43)" style="fill:#e6e6e6" d="M373.26 90.34h30.99v62.18h-30.99z"/><path transform="rotate(180 291.4 117.555)" style="fill:#e6e6e6" d="M283.5 82.59h15.8v69.94h-15.8z"/><path transform="rotate(180 268.88 126.485)" style="fill:#e6e6e6" d="M260.98 100.45h15.8v52.07h-15.8z"/><path transform="rotate(180 256.94 135.035)" style="fill:#e6e6e6" d="M249.04 117.55h15.8v34.97h-15.8z"/><path transform="rotate(180 191.375 135.035)" style="fill:#e6e6e6" d="M183.48 117.55h15.8v34.97h-15.8z"/><path transform="rotate(180 206.49 140.555)" style="fill:#e6e6e6" d="M198.59 128.59h15.8v23.93h-15.8z"/><path transform="rotate(180 416.49 135.035)" style="fill:#e6e6e6" d="M408.59 117.55h15.8v34.97h-15.8z"/><path transform="rotate(180 343.815 132.13)" style="fill:#e6e6e6" d="M272.32 111.74h143v40.78h-143z"/><path transform="rotate(180 254.975 144.345)" style="fill:#e6e6e6" d="M183.48 136.17h143v16.35h-143z"/><path style="fill:#f0f0f0" d="M154.51 71.63h48.01v92.85h-48.01z"/><path style="fill:#f0f0f0" d="M240.45 164.49h-43.32V90.27l43.32 18.1zM91.69 102.3h48.01v62.18H91.69zm162.58-7.75h24.47v69.93h-24.47zm34.89 23.27h24.47v46.67h-24.47z"/><path style="fill:#f0f0f0" d="M307.66 129.52h24.47v34.97h-24.47zm101.57 0h24.47v34.97h-24.47z"/><path style="fill:#f0f0f0" d="M385.81 140.56h24.47v23.93h-24.47zM60.48 129.52h24.47v34.97H60.48z"/><path style="fill:#f0f0f0" d="M74.54 123.7h221.53v40.78H74.54z"/><path style="fill:#f0f0f0" d="M212.17 148.14H433.7v16.35H212.17z"/><path style="fill:#e0e0e0" d="M432.21 41.22h2.97v123.26h-2.97zM308.3 42.71h2.97V163h-2.97zm-123.91 0h2.97V163h-2.97z"/><path transform="rotate(90 247.835 129.375)" style="fill:#e0e0e0" d="M246.35-56.49h2.97v371.73h-2.97z"/><path transform="rotate(90 247.835 76.335)" style="fill:#e0e0e0" d="M246.35-109.53h2.97V262.2h-2.97z"/><path transform="rotate(90 247.835 42.705)" style="fill:#e0e0e0" d="M246.35-144.64h2.97v374.7h-2.97z"/><path transform="rotate(180 61.97 102.855)" style="fill:#e0e0e0" d="M60.48 41.22h2.97v123.26h-2.97z"/><path transform="rotate(-90 247.83 163)" style="fill:#e0e0e0" d="M246.35-24.35h2.97v374.7h-2.97z"/><path style="fill:#f5f5f5" d="M54.28 188.33h391.43V382.4H54.28z"/><path d="M448 185.67H52a2.67 2.67 0 0 0-2.67 2.66A2.67 2.67 0 0 0 52 191h396a2.67 2.67 0 0 0 2.67-2.67 2.67 2.67 0 0 0-2.67-2.66m-306.44 34.11v129.55a11.34 11.34 0 0 0-11.33 11.34H84.08a11.34 11.34 0 0 0-11.33-11.34V219.78a11.33 11.33 0 0 0 11.33-11.33h46.15a11.33 11.33 0 0 0 11.33 11.33" style="fill:#ebebeb"/><path d="M125.64 355.17h-37l-.12-.33a16.85 16.85 0 0 0-10-10l-.32-.12V224.36l.32-.12a16.85 16.85 0 0 0 10-10l.12-.32h37l.12.32a16.87 16.87 0 0 0 10 10l.33.12v120.39l-.33.12a16.87 16.87 0 0 0-10 10Zm-36.29-1H125a17.86 17.86 0 0 1 10.11-10.11v-119A17.85 17.85 0 0 1 125 215H89.35a17.86 17.86 0 0 1-10.1 10.1v119a17.85 17.85 0 0 1 10.1 10.07" style="fill:#f5f5f5"/><path d="M236.79 219.78v129.55a11.34 11.34 0 0 0-11.33 11.34h-46.15A11.34 11.34 0 0 0 168 349.33V219.78a11.33 11.33 0 0 0 11.33-11.33h46.15a11.33 11.33 0 0 0 11.31 11.33" style="fill:#ebebeb"/><path d="M220.88 355.17h-37l-.12-.33a16.86 16.86 0 0 0-10-10l-.33-.12V224.36l.33-.12a16.83 16.83 0 0 0 10-10l.12-.32h37l.12.32a16.83 16.83 0 0 0 10 10l.33.12v120.39l-.33.12a16.86 16.86 0 0 0-10 10Zm-36.29-1h35.59a17.9 17.9 0 0 1 10.11-10.11v-119A17.88 17.88 0 0 1 220.18 215h-35.6a17.83 17.83 0 0 1-10.1 10.1v119a17.9 17.9 0 0 1 10.11 10.07" style="fill:#f5f5f5"/><path d="M332 219.78v129.55a11.34 11.34 0 0 0-11.33 11.34h-46.13a11.34 11.34 0 0 0-11.33-11.34V219.78a11.33 11.33 0 0 0 11.33-11.33h46.15A11.33 11.33 0 0 0 332 219.78" style="fill:#ebebeb"/><path d="M316.11 355.17h-37l-.12-.33a16.86 16.86 0 0 0-10-10l-.33-.12V224.36l.33-.12a16.83 16.83 0 0 0 10-10l.12-.32h37l.12.32a16.82 16.82 0 0 0 10 10l.32.12v120.39l-.32.12a16.85 16.85 0 0 0-10 10Zm-36.29-1h35.6a17.85 17.85 0 0 1 10.1-10.11v-119a17.86 17.86 0 0 1-10.1-10.1h-35.6a17.88 17.88 0 0 1-10.11 10.1v119a17.9 17.9 0 0 1 10.11 10.11" style="fill:#f5f5f5"/><path d="M427.25 219.78v129.55a11.34 11.34 0 0 0-11.33 11.34h-46.15a11.34 11.34 0 0 0-11.33-11.34V219.78a11.33 11.33 0 0 0 11.33-11.33h46.15a11.33 11.33 0 0 0 11.33 11.33" style="fill:#ebebeb"/><path d="M411.34 355.17h-37l-.12-.33a16.87 16.87 0 0 0-10-10l-.33-.12V224.36l.33-.12a16.87 16.87 0 0 0 10-10l.12-.32h37l.12.32a16.85 16.85 0 0 0 10 10l.32.12v120.39l-.32.12a16.85 16.85 0 0 0-10 10Zm-36.29-1h35.6a17.85 17.85 0 0 1 10.1-10.11v-119a17.86 17.86 0 0 1-10.1-10.1h-35.6a17.85 17.85 0 0 1-10.11 10.1v119a17.86 17.86 0 0 1 10.11 10.11" style="fill:#f5f5f5"/><ellipse cx="250" cy="416.24" rx="193.89" ry="11.32" style="fill:#f5f5f5"/><path d="M404.14 191.41H95.86a3.64 3.64 0 0 1-3.64-3.63 3.65 3.65 0 0 1 3.64-3.64h308.28a3.65 3.65 0 0 1 3.64 3.64 3.64 3.64 0 0 1-3.64 3.63" style="fill:#407bff"/><path d="M404.14 191.41H95.86a3.64 3.64 0 0 1-3.64-3.63 3.65 3.65 0 0 1 3.64-3.64h308.28a3.65 3.65 0 0 1 3.64 3.64 3.64 3.64 0 0 1-3.64 3.63" style="fill:#fff;opacity:.7000000000000001"/><path d="M262.61 159.78h-11.33a.84.84 0 0 0-.83.87l1.23 21.77h10.53l1.23-21.77a.82.82 0 0 0-.83-.87" style="fill:#407bff;opacity:.4"/><path style="fill:#407bff" d="m257.07 175.73-.98-.18 3.64-19.84 8.86-3.02.32.95-8.3 2.82z"/><path d="m261.86 171-.52 9.12a1.43 1.43 0 0 1-1.42 1.35H254a1.43 1.43 0 0 1-1.43-1.35l-.5-8.86a2.5 2.5 0 0 0 .63.08c1 0 1-.48 2-.48s1 .48 2 .48 1-.48 2-.48 1 .48 2 .48a2.4 2.4 0 0 0 1.16-.34" style="fill:#407bff;opacity:.4"/><path style="fill:#407bff;opacity:.6000000000000001" d="M251.68 182.42h10.53v1.73h-10.53zm129.67-1.45h16.98v3.17h-16.98z"/><path style="fill:#407bff;opacity:.6000000000000001" d="M381.35 180.97h2.04v3.17h-2.04z"/><path style="fill:#ffc3bd" d="m332.99 398.48-7.07 4.07-8.48-15.38 7.07-4.07z"/><path d="m325.06 401.64 7.86-5a.67.67 0 0 1 .85.07l4.74 4.93a1.18 1.18 0 0 1-.33 1.8c-2.74 1.68-4.23 2.44-7.65 4.61-2.1 1.33-11 6.12-14.29 6.35s-3.66-2.88-2.32-3.38c6.76-2.52 9.39-5.74 10.25-8.27a2.2 2.2 0 0 1 .89-1.11" style="fill:#263238"/><path style="opacity:.2" d="m324.51 383.1-7.07 4.07 4.38 7.93 7.07-4.07z"/><path d="M302.58 226.4s-20.95 68.36-19.68 91.16c1.39 25 35 77.59 35 77.59l12.67-8s-23.74-51.82-24.63-71c1.31-27.76 27-87.59 27-87.59Z" style="fill:#263238"/><path d="M323.14 245c-7 4.28-9.77 22.54-8.29 31.81 3.78-11.74 8.1-23.31 11.56-32.18a3.27 3.27 0 0 0-3.27.37" style="opacity:.2"/><path style="fill:#407bff" d="m316.5 396.37 14.93-9.46-2.45-4.21-15.66 9.55zm6.94 7.86a2.6 2.6 0 0 1-1.53.51 1 1 0 0 1-.81-.6.61.61 0 0 1 0-.61c.56-.86 3.54-1 3.88-1a.15.15 0 0 1 .16.1.19.19 0 0 1-.05.21 10.7 10.7 0 0 1-1.65 1.39m-1.82-.7a.7.7 0 0 0-.19.18.21.21 0 0 0 0 .24.64.64 0 0 0 .55.42 4.2 4.2 0 0 0 2.52-1.44 8.2 8.2 0 0 0-2.88.6"/><path d="M325.08 402.88h-.09c-.93.09-3.15-.47-3.43-1.29a.63.63 0 0 1 .29-.73 1.1 1.1 0 0 1 .81-.25c1.17.11 2.43 1.89 2.48 2a.16.16 0 0 1 0 .19.2.2 0 0 1-.06.08m-2.94-1.76-.07.05c-.2.16-.16.26-.15.31.16.48 1.68 1 2.68 1.06-.4-.5-1.26-1.46-2-1.53a.72.72 0 0 0-.46.11" style="fill:#407bff"/><path style="fill:#ffc3bd" d="M348.4 407.73h-7.86l-.65-18.21h7.87z"/><path d="M339.45 406.82H349a.69.69 0 0 1 .67.54l1.55 7a1.16 1.16 0 0 1-1.15 1.4c-3.09-.05-5.34-.24-9.22-.24-2.39 0-9.6.25-12.9.25s-3.73-3.26-2.38-3.56c6.06-1.32 10.62-3.15 12.56-4.89a1.9 1.9 0 0 1 1.32-.5" style="fill:#263238"/><path d="M314.68 170.08c-4.64 2.48-9.31 4.81-14 7.09s-9.46 4.46-14.23 6.6l-1.79.8-.9.4-.11.05s-.11 0 0 0a1 1 0 0 0 .2-.13 1.8 1.8 0 0 0 .36-.3c.44-.46.45-.74.41-.69a1.64 1.64 0 0 0-.22.68 13.3 13.3 0 0 0-.07 2.89 34 34 0 0 0 .36 3.46c.71 4.76 1.93 9.82 3.16 14.72l-5.5 2.35a75.7 75.7 0 0 1-6.7-14.94c-.41-1.36-.79-2.75-1.09-4.23a23.6 23.6 0 0 1-.46-4.91 13 13 0 0 1 .45-3.16 8.8 8.8 0 0 1 2.39-4 7.7 7.7 0 0 1 1.13-.9l.63-.37.28-.15.86-.47 1.72-.93q6.87-3.72 13.77-7.34c4.61-2.4 9.25-4.78 13.88-7.07Z" style="fill:#ffc3bd"/><path d="M320.51 170.83c-2.69 7-23.4 13.42-23.4 13.42l-6.23-16.33s10.26-6.52 19.5-9.54c6.21-2.03 13.05 4.81 10.13 12.45" style="fill:#407bff"/><path d="M320.51 170.83c-2.69 7-23.4 13.42-23.4 13.42l-6.23-16.33s10.26-6.52 19.5-9.54c6.21-2.03 13.05 4.81 10.13 12.45" style="opacity:.2"/><path d="M305.63 167.39c-3.55 2.11-6.28 10.33-7.4 16.5 4.33-1.44 20-7 22.28-13.06Z" style="opacity:.2"/><path d="m288 206.38 1.09 5.89-8.44-1.89a8.45 8.45 0 0 1 1.62-6.7l2.78.13a3.13 3.13 0 0 1 2.95 2.57" style="fill:#ffc3bd"/><path style="fill:#ffc3bd" d="m287.64 217.77-6.8-.77-.19-6.62 8.45 1.89z"/><path style="opacity:.2" d="M347.76 389.53h-7.87l.34 9.39h7.87z"/><path d="M351.74 161.3a177 177 0 0 0-5 25.87c-.75 6.09-1.19 11.9-1.47 17.18-.65 12.36-.38 21.78-.75 25-6.15-.42-29.32-2-41.95-2.92-4.22-33 .61-54.16 3.43-63a8 8 0 0 1 6.64-5.51c1.53-.19 3.3-.38 5.16-.49.72 0 1.44-.07 2.17-.08a155 155 0 0 1 17.84 1.24c1.12.13 2.26.3 3.36.48 5.63.86 10.57 2.23 10.57 2.23" style="fill:#407bff"/><path d="M351.74 161.3a177 177 0 0 0-5 25.87c-.75 6.09-1.19 11.9-1.47 17.18-.65 12.36-.38 21.78-.75 25-6.15-.42-29.32-2-41.95-2.92-4.22-33 .61-54.16 3.43-63a8 8 0 0 1 6.64-5.51c1.53-.19 3.3-.38 5.16-.49.72 0 1.44-.07 2.17-.08a155 155 0 0 1 17.84 1.24c1.12.13 2.26.3 3.36.48 5.63.86 10.57 2.23 10.57 2.23" style="opacity:.2"/><path d="M341.15 172.62a33.2 33.2 0 0 0 5.19 18.18c.12-1.2.26-2.41.41-3.63.56-4.58 1.28-9.32 2.24-14.11Z" style="opacity:.2"/><path d="M335.11 136.94c3.86-.63 6 6.06 2.4 7.09 0 3.26-5.16 6.35-7.41 2.65s.81-9.05 5.01-9.74" style="fill:#263238"/><path d="M337.45 138.33c-1.52 5.67-3.38 16.1.37 20.21a17.87 17.87 0 0 1-14.13 4.51c-4.93-.45-4.94-3.92-3.71-5.75 6.51-1.08 6.68-5.84 5.87-10.38Z" style="fill:#ffc3bd"/><path d="m332.72 141.84-6.86 5.07a20 20 0 0 1 .33 3.21c2.47-.18 6-2.63 6.45-5.17a8.5 8.5 0 0 0 .08-3.11" style="opacity:.2"/><path d="M327 116.17c-3-3.74-13.66.27-11.39 4.16-4.11 2.84-3 9.75 4 8.39s10.69-8.5 7.39-12.55" style="fill:#263238"/><path d="M338.74 129.75c-1 7.73-1.22 12.31-5.43 16-6.32 5.59-15.66 1.36-17-6.53-1.18-7.1.69-18.56 8.51-21.12a10.65 10.65 0 0 1 13.92 11.65" style="fill:#ffc3bd"/><path d="M321.9 118.72c.65 2 6.07 7.84 12.9 8.67-1.94 3.55.39 7.61 3.34 8.22 4.6 0 10.77-5.07 6.1-8.05 3.45-5.12-.05-9.5-3.27-9.23-3.15-6.83-23.56-13.22-19.07.39" style="fill:#263238"/><path d="M322.24 118.33a10.5 10.5 0 0 0 3.27 7.13c-3.52-1-6.16-3.71-5.73-6.31s2.09-4.37 2.46-.82" style="fill:#263238"/><path d="M341.65 138.56a7.4 7.4 0 0 1-4.84 2.94c-2.57.38-3.53-2-2.55-4.26.89-2 3.3-4.68 5.75-4s3.04 3.36 1.64 5.32" style="fill:#ffc3bd"/><path d="M317.45 227.44s4.45 67.32 7.77 90.12c3.63 25 11.4 79.54 11.4 79.54H351s-2.94-52.2-4.3-76.77c-1.56-28-2.19-91-2.19-91Z" style="fill:#263238"/><path style="fill:#407bff" d="M334.89 397.41h16.96v-5.07l-17.6-.33z"/><path d="M326.8 131.1c0 .63-.41 1.12-.83 1.09s-.71-.57-.67-1.2.42-1.12.83-1.09.71.56.67 1.2m-7.15-.5c0 .63-.42 1.12-.83 1.09s-.71-.57-.67-1.2.42-1.12.83-1.09.71.6.67 1.2" style="fill:#263238"/><path d="M321.9 131.07a22.6 22.6 0 0 1-3.4 5.2 3.67 3.67 0 0 0 3 .78Z" style="fill:#ed847e"/><path d="M329.18 128.94a.39.39 0 0 1-.35-.17 3 3 0 0 0-2.29-1.41.37.37 0 1 1 0-.74 3.69 3.69 0 0 1 2.91 1.74.37.37 0 0 1-.1.52.6.6 0 0 1-.17.06m-4.93 11.2a5.71 5.71 0 0 0 4.63-2.52.2.2 0 0 0-.07-.27.19.19 0 0 0-.27.07 5.47 5.47 0 0 1-4.31 2.32.19.19 0 0 0-.19.21.19.19 0 0 0 .21.19m-7.5-12.22a.36.36 0 0 1-.22 0 .37.37 0 0 1-.14-.51 3.69 3.69 0 0 1 2.82-1.9.37.37 0 0 1 .39.35.38.38 0 0 1-.35.39 3 3 0 0 0-2.21 1.54.38.38 0 0 1-.29.13" style="fill:#263238"/><path d="M336.85 408.2a2.35 2.35 0 0 1-1.51-.4 1.1 1.1 0 0 1-.39-1 .56.56 0 0 1 .32-.52c.87-.45 3.41 1.11 3.69 1.29a.17.17 0 0 1 .09.18.19.19 0 0 1-.14.16 9.4 9.4 0 0 1-2.06.29m-1.17-1.63a.43.43 0 0 0-.24.05c-.05 0-.11.07-.12.22a.77.77 0 0 0 .25.67 3.82 3.82 0 0 0 2.8.14 7.6 7.6 0 0 0-2.69-1.08" style="fill:#407bff"/><path d="M338.86 407.92h-.09c-.81-.44-2.38-2.17-2.22-3a.61.61 0 0 1 .6-.49 1 1 0 0 1 .79.24c.91.74 1.1 3 1.11 3.11a.2.2 0 0 1-.09.17.17.17 0 0 1-.1-.03m-1.58-3.19h-.09c-.24 0-.26.14-.27.19-.1.51.9 1.82 1.71 2.43a4.4 4.4 0 0 0-.93-2.46.64.64 0 0 0-.42-.16" style="fill:#407bff"/><path d="M352.7 165.27c1.07 1.19 2 2.26 2.94 3.42s1.85 2.3 2.75 3.46c1.78 2.34 3.51 4.74 5.13 7.23a80.7 80.7 0 0 1 8.4 16.16l.14.37c.07.22.15.45.21.68a9 9 0 0 1 .24 1.27 10.2 10.2 0 0 1 0 2.14 13.8 13.8 0 0 1-.7 3.2 28.3 28.3 0 0 1-2.18 4.71 62 62 0 0 1-5.22 7.54 110 110 0 0 1-12 12.75l-4.4-3.93c3.14-4.58 6.27-9.29 9.07-14a69 69 0 0 0 3.69-7 17.6 17.6 0 0 0 1.09-3.13 4 4 0 0 0 .11-1c0-.07 0-.09 0 0a.7.7 0 0 0 0 .22 1 1 0 0 0 0 .18v-.05l-.05-.11a74 74 0 0 0-3.7-6.83c-1.4-2.26-2.9-4.49-4.46-6.7s-3.21-4.38-4.89-6.54-3.44-4.32-5.08-6.3Z" style="fill:#ffc3bd"/><path d="M349.56 160.89c7.52.31 16.74 17.11 16.74 17.11L353 189.44a83.5 83.5 0 0 1-10.57-13.08c-5.87-8.83-1.96-15.86 7.13-15.47" style="fill:#407bff"/><path d="M349.56 160.89c7.52.31 16.74 17.11 16.74 17.11L353 189.44a83.5 83.5 0 0 1-10.57-13.08c-5.87-8.83-1.96-15.86 7.13-15.47" style="opacity:.2"/><path d="m351 222.5-8-.42 3.52 8.94s7.06-.76 6.86-4.46Z" style="fill:#ffc3bd"/><path style="fill:#ffc3bd" d="m337.63 225.82 2.74 6.06 6.18-.86-3.53-8.94z"/><g style="opacity:.6000000000000001"><path d="M320.91 170.56c-6.31-.25-11.94 5.95-12.57 13.87s4 14.55 10.31 14.81 12-6 12.58-13.87-3.99-14.55-10.32-14.81m2.83 9.26a1.28 1.28 0 0 1 1.05 1.49 1.38 1.38 0 0 1-1.27 1.39 1.26 1.26 0 0 1-1-1.49 1.38 1.38 0 0 1 1.22-1.39m-7.09-.29a1.27 1.27 0 0 1 1 1.49 1.36 1.36 0 0 1-1.26 1.39 1.26 1.26 0 0 1-1-1.49 1.38 1.38 0 0 1 1.26-1.39m9.85 5.84c-1.18 3.65-4.15 6.1-7.23 6s-5.65-2.82-6.23-6.55a.56.56 0 0 1 .1-.47.31.31 0 0 1 .5 0 .44.44 0 0 1 .1.22c.52 3.37 2.82 5.8 5.61 5.92s5.45-2.11 6.5-5.42a.45.45 0 0 1 .11-.19.3.3 0 0 1 .5 0 .52.52 0 0 1 .04.49" style="fill:#fff"/></g><path d="m196.46 154.89-1.05-6.89 7.46 4.12s0 5.37-3.08 7l-.71-.42a5.45 5.45 0 0 1-2.62-3.81" style="fill:#ffb573"/><path style="fill:#ffb573" d="m197.53 142.18 6.7 2.47-1.36 7.51-7.46-4.12z"/><path d="M158.2 125.42c5-11.42 24-6.2 27.23 4.75 2.87 9.78 11.28 6.53 12.11 15.2s-9.66 8.69-6.61 19c2.65 8.9-6.12 7.75-11.2 4.17s-23.73 13.28-28.33 2.91 5.5-12.69 1.75-22.86-6.15-23.09 5.05-23.17" style="fill:#263238"/><path d="m196.22 172.42-.07-.09h.05l.16.15.42.34a12 12 0 0 0 1 .73 21 21 0 0 0 2.37 1.31 27 27 0 0 0 5.48 2c1 .28 2 .46 3 .68s2 .37 3.06.48l1.55.2h.06-.14a2.3 2.3 0 0 0-.95.5 2.45 2.45 0 0 0-.79 1.21c-.07.33 0 .4 0 .42a2.1 2.1 0 0 0-.11-.68 15.4 15.4 0 0 0-1-2.54c-.43-.9-.93-1.83-1.44-2.76-1-1.85-2.2-3.7-3.38-5.54-2.38-3.68-4.89-7.36-7.42-11l3.22-2.76a133 133 0 0 1 9.19 10.11c1.45 1.77 2.85 3.6 4.19 5.53.67 1 1.33 2 1.94 3a22 22 0 0 1 1.73 3.59 10 10 0 0 1 .6 2.58 6 6 0 0 1-.2 2.09 5.1 5.1 0 0 1-1.67 2.6 5.6 5.6 0 0 1-2.47 1.15 7 7 0 0 1-1 .12h-.77l-1.8-.06a45 45 0 0 1-7.23-.87 36 36 0 0 1-7.23-2.3 25 25 0 0 1-3.5-1.93c-.57-.39-1.14-.79-1.7-1.26-.28-.22-.57-.5-.85-.76l-.44-.44-.24-.27-.12-.14-.2-.24Z" style="fill:#ffb573"/><path d="M184.72 169.12c-1-4 11.23 2.19 13.8 3.43l-3.92 12.95s-9.55-1.6-11.46-5.82a9.53 9.53 0 0 1 1.58-10.56" style="fill:#407bff"/><path d="m191.49 174.1-1.4 10.24a32 32 0 0 0 3.64 1Z" style="opacity:.2"/><path d="M148.21 171.16c-2.11-5.66-.32-8.93 1.41-12.1 1.62-3 3.16-5.79 1.69-10.65-2.1-6.94-3.86-16.17-.29-20.72 1.56-2 4-2.91 7.21-2.75l-.06 1c-2.87-.16-5 .64-6.36 2.36-3.31 4.22-1.58 13.11.45 19.83 1.59 5.25-.11 8.38-1.77 11.41s-3.29 6-1.34 11.27Z" style="fill:#263238"/><path style="fill:#ffb573" d="m119.45 390.93 5.14 6.62 15.66-11.47-5.14-6.61z"/><path d="m125.41 397.33-5.21-7.83a.66.66 0 0 0-.85-.24l-6.79 3.23a1.34 1.34 0 0 0-.5 1.94c1.86 2.7 2.9 3.91 5.19 7.36 1.41 2.12 5.24 8.35 7.18 11.28s4.95 1.16 4.4-.23c-2.46-6.25-3.4-11.18-3.08-14a2.24 2.24 0 0 0-.34-1.51" style="fill:#263238"/><path style="opacity:.2" d="m140.25 386.08-9.2 6.74-4.02-7.44 8.07-5.91z"/><path d="M192 173.55c.21 5.82-.55 18.4-5 45.56h-34c.57-13.84.59-22.38-6-50.8a100 100 0 0 1 14.45-1.9 107.6 107.6 0 0 1 15.45 0c3.54.32 7.33.91 10.1 1.39a6 6 0 0 1 5 5.75" style="fill:#407bff"/><path d="M163 149c1 5 1.95 14.08-1.53 17.4 0 0 1.17 5.59 10.4 5.59 8.95 0 5-5.59 5-5.59-5.55-1.32-5.4-5.44-4.44-9.3Z" style="fill:#ffb573"/><path d="M176.46 181.17a.5.5 0 0 1-.27-.08c-.55-.34-13.64-8.54-17.19-14.28a.51.51 0 0 1 .16-.69.49.49 0 0 1 .69.16c3.07 5 14.06 12.16 16.42 13.68 2.61-5 2.85-11.18 1.26-13.13a.5.5 0 0 1 .07-.71.5.5 0 0 1 .7.07c1.88 2.3 1.67 9.23-1.41 14.72a.5.5 0 0 1-.31.24Z" style="fill:#fff"/><path d="m166.85 152.32 5.62 4.79a16.6 16.6 0 0 0-.48 2.74c-2.12-.31-5-2.63-5.25-4.85a7.5 7.5 0 0 1 .11-2.68" style="opacity:.2"/><path d="M157.63 140.4c1.89 8.1 2.52 11.56 7.37 15.06 7.29 5.26 16.82 1.16 17.38-7.34.5-7.65-2.68-19.6-11.24-21.49a11.33 11.33 0 0 0-13.51 13.77" style="fill:#ffb573"/><path d="M162 126.34c4.29.69 4.72 20.1-3.84 19.49s-6.84-21.21 3.84-19.49" style="fill:#263238"/><path d="M160.93 125.67c-3.6 3.4 1.78 10.77 6.89 7.27s8.06-2.83 12.67-1 4.66-6.38-3.45-7.88-11.94-2.34-16.11 1.61" style="fill:#263238"/><path d="M187.06 219.11s6.61 64.53 6.06 90.07c-.57 26.58-58.61 83.39-58.61 83.39l-6.27-9.44c-1.29 1.32 44.63-56.41 44-71.92-1.09-28.45-10.13-92.1-10.13-92.1Z" style="fill:#407bff"/><path d="M187.06 219.11s6.61 64.53 6.06 90.07c-.57 26.58-58.61 83.39-58.61 83.39l-6.27-9.44c-1.29 1.32 44.63-56.41 44-71.92-1.09-28.45-10.13-92.1-10.13-92.1Z" style="opacity:.30000000000000004"/><path style="fill:#263238" d="m126.98 382.65 7.47 10.98 4.88-2.69-9.08-11.8z"/><path d="M172.39 235.17c8.35 16.81 1.68 47.47-1.28 58.88-1.51-17.13-4.07-38.08-6.06-53.46 1.27-8.7 3.48-13.17 7.34-5.42" style="opacity:.2"/><path style="fill:#ffb573" d="M138.18 407.69h8.38l3.07-19.4h-8.37z"/><path d="M147 406.72h-9.41a.77.77 0 0 0-.74.57l-2 7.44a1.16 1.16 0 0 0 1.15 1.49c3.29-.05 4.89-.25 9-.25 2.55 0 9.82.27 13.34.27s4.15-3.48 2.73-3.79c-6.38-1.42-10.76-3.36-12.73-5.22a1.94 1.94 0 0 0-1.34-.51" style="fill:#263238"/><path style="opacity:.2" d="m149.63 388.29-1.58 10h-8.38l1.58-10z"/><path d="M177.65 219.11s-7 64.53-10.9 90.07c-4 26.58-16.67 87.17-16.67 87.17h-11.33s4.51-59 6.9-85.14c2.6-28.45 7.09-92.1 7.09-92.1Z" style="fill:#407bff"/><path d="M177.65 219.11s-7 64.53-10.9 90.07c-4 26.58-16.67 87.17-16.67 87.17h-11.33s4.51-59 6.9-85.14c2.6-28.45 7.09-92.1 7.09-92.1Z" style="opacity:.30000000000000004"/><path style="fill:#263238" d="M137.72 396.76h13.29l1.52-4.24-14.81-.52z"/><path d="M149.92 408.18a3.42 3.42 0 0 0 2.1-.52 1.25 1.25 0 0 0 .49-1 .56.56 0 0 0-.27-.53c-1-.56-4.52 1.14-4.92 1.34a.23.23 0 0 0-.13.2.17.17 0 0 0 .14.17 13.7 13.7 0 0 0 2.59.34m1.72-1.73a.7.7 0 0 1 .36.07.21.21 0 0 1 .11.21.84.84 0 0 1-.31.64c-.57.46-2 .53-3.78.23a12.1 12.1 0 0 1 3.62-1.15" style="fill:#407bff"/><path d="M147.36 407.88h.09c1.06-.46 3.27-2.26 3.23-3.21 0-.23-.13-.51-.67-.56a1.6 1.6 0 0 0-1.14.34c-1.17.88-1.65 3.13-1.68 3.23a.19.19 0 0 0 .06.18.23.23 0 0 0 .11.02m2.44-3.39h.12c.36 0 .36.19.36.23 0 .57-1.5 2-2.6 2.61a5.3 5.3 0 0 1 1.4-2.58 1.14 1.14 0 0 1 .72-.26" style="fill:#407bff"/><path d="M171 140.35c.12.67.56 1.15 1 1.07s.69-.67.58-1.34-.56-1.14-1-1.07-.65.68-.58 1.34m7.57-1.28c.12.67.56 1.15 1 1.07s.69-.67.58-1.34-.56-1.14-1-1.07-.69.67-.58 1.34" style="fill:#263238"/><path d="m179 137.8 1.52-.73s-.64 1.39-1.52.73" style="fill:#263238"/><path d="M176.46 140.67a18 18 0 0 0 3.09 3.84 2.91 2.91 0 0 1-2.3.85Z" style="fill:#ed893e"/><path d="M174.07 148.59a9 9 0 0 0 1-.09.2.2 0 0 0 .16-.23.22.22 0 0 0-.23-.17 5.32 5.32 0 0 1-4.65-1.33.2.2 0 1 0-.29.27 5.53 5.53 0 0 0 4.01 1.55" style="fill:#263238"/><path d="M156.26 147.46a6.1 6.1 0 0 0 3.76 2.72c2.07.48 3-1.4 2.36-3.31-.59-1.72-2.39-4-4.43-3.66a2.72 2.72 0 0 0-1.69 4.25" style="fill:#ffb573"/><path d="M167.76 139.33a.38.38 0 0 0 .37-.28c.54-1.75 2.79-2.5 2.81-2.51a.4.4 0 0 0-.25-.75c-.11 0-2.65.89-3.32 3a.41.41 0 0 0 .27.5Zm12.48-4.12a.42.42 0 0 0 .34-.2.4.4 0 0 0-.15-.54 3.94 3.94 0 0 0-3.61-.25.4.4 0 0 0 .36.71 3.13 3.13 0 0 1 2.86.22.36.36 0 0 0 .2.06" style="fill:#263238"/><path d="M125.93 400.76a3.1 3.1 0 0 0 1.55 1.41 1.09 1.09 0 0 0 1-.24.62.62 0 0 0 .26-.57c-.1-1.16-3.37-3-3.74-3.21a.2.2 0 0 0-.23 0 .2.2 0 0 0 0 .22 13.6 13.6 0 0 0 1.16 2.39m2.27.29a.8.8 0 0 1 .14.35.22.22 0 0 1-.1.22.72.72 0 0 1-.66.17c-.66-.17-1.49-1.28-2.26-3a10.9 10.9 0 0 1 2.88 2.26" style="fill:#407bff"/><path d="M124.74 398.44a.1.1 0 0 0 .06.05c.92.59 3.52 1.23 4.23.58.16-.16.31-.44.05-.93a1.45 1.45 0 0 0-.89-.73c-1.32-.39-3.3.7-3.39.74a.21.21 0 0 0-.1.17.2.2 0 0 0 .04.12m3.93-.22.06.1c.17.32.06.42 0 .46-.43.39-2.35.06-3.43-.45a4.6 4.6 0 0 1 2.74-.54 1.07 1.07 0 0 1 .63.43" style="fill:#407bff"/><path d="m171.44 139.08 1.52-.73s-.61 1.39-1.52.73m-18.91 78.04-.87 3c-.12.24.16.48.56.48h35c.31 0 .56-.15.58-.34l.31-3.05c0-.21-.25-.39-.58-.39h-34.44a.61.61 0 0 0-.56.3" style="fill:#263238"/><path d="M157.16 221h-.92c-.19 0-.33-.1-.31-.21l.43-4c0-.11.17-.21.36-.21h.92c.18 0 .32.1.31.21l-.43 4c-.02.08-.18.21-.36.21" style="fill:#407bff"/><path d="M157.16 221h-.92c-.19 0-.33-.1-.31-.21l.43-4c0-.11.17-.21.36-.21h.92c.18 0 .32.1.31.21l-.43 4c-.02.08-.18.21-.36.21" style="opacity:.30000000000000004"/><path d="M184.64 221h-.92c-.19 0-.33-.1-.32-.21l.44-4c0-.11.17-.21.35-.21h.93c.18 0 .32.1.31.21l-.44 4c.01.08-.17.21-.35.21" style="fill:#407bff"/><path d="M184.64 221h-.92c-.19 0-.33-.1-.32-.21l.44-4c0-.11.17-.21.35-.21h.93c.18 0 .32.1.31.21l-.44 4c.01.08-.17.21-.35.21" style="opacity:.30000000000000004"/><path d="M170.9 221h-.9c-.19 0-.33-.1-.32-.21l.44-4c0-.11.17-.21.35-.21h.93c.18 0 .32.1.31.21l-.43 4c-.04.08-.2.21-.38.21" style="fill:#407bff"/><path d="M170.9 221h-.9c-.19 0-.33-.1-.32-.21l.44-4c0-.11.17-.21.35-.21h.93c.18 0 .32.1.31.21l-.43 4c-.04.08-.2.21-.38.21" style="opacity:.30000000000000004"/><path d="M151.5 179.71c-.71 4.07-1.41 8.27-2.06 12.41s-1.21 8.3-1.64 12.42c-.12 1-.19 2.05-.29 3.08v.12-.08c0-.03 0-.13-.05-.21a1.6 1.6 0 0 0-.21-.45c-.19-.24-.28-.22-.18-.12a5.2 5.2 0 0 0 1.77.73 22 22 0 0 0 2.7.51 95 95 0 0 0 12.27.47l.65 4.19a54.8 54.8 0 0 1-13.28 2 26 26 0 0 1-3.65-.21 12.4 12.4 0 0 1-4.28-1.31 7 7 0 0 1-2.49-2.29 6 6 0 0 1-.8-1.93 5 5 0 0 1-.15-1v-.76c0-1.11 0-2.22.09-3.31.19-4.4.6-8.74 1.16-13s1.21-8.56 2.08-12.87Z" style="fill:#ffb573"/><path d="M147 168.31c-3.41 1-7.5 12.78-7.5 12.78l13.22 9.45s4.83-9.8 3.39-14.2c-1.48-4.59-5.21-9.21-9.11-8.03" style="fill:#407bff"/><path d="m161.79 208.77 8.6-2.8-3.2 7.89s-5.34.63-7.34-2.22Z" style="fill:#ffb573"/><path style="fill:#fff" d="m173.56 206.88 6.63-3.8h-13.81l6.63 3.8V216l-3.58 2.06h7.71l-3.58-2.06z"/><path style="fill:#407bff;opacity:.5" d="m173.28 205.96 3.75-1.77h-7.49z"/><path style="fill:#ffb573" d="m175.24 207.74-1.27 7.1-6.78-.98 3.2-7.89z"/></svg>